<svg id="javaBanner-svg" data-name="Layer 1" xmlns="http://www.w3.org/2000/svg" viewBox="0 0 900 528">
<defs>
	<style>
		#javaBanner-svg .cls-1{fill:#fff;}
		#javaBanner-svg .cls-2{fill:var(--accent);}
		#javaBanner-svg .cls-3{fill:#e7f1ea;}
		@media screen and (prefers-color-scheme: light) {
			.cls-2{fill:#7a32ff;}
			.cls-3{fill:#4a4a4a;}
		}
	</style>
</defs>
<path class="cls-1" d="M374.06,432.92h0l.52.19A5.55,5.55,0,0,0,374.06,432.92Zm0,0,0,0h0v0ZM274.16,251.23c0-.11-.05-.23-.08-.34,0,.11.05.22.07.34.1.49.19,1,.27,1.46C274.35,252.21,274.26,251.72,274.16,251.23ZM215.24,283l0,.11.06-.09Zm-78.38,58.8a.16.16,0,0,0,0,.17h0A.19.19,0,0,1,136.86,341.81Zm0,.17h0v0l.05,0S136.82,342,136.82,342Z"/><polygon class="cls-1" points="215.32 283.04 215.26 283.13 215.24 283.01 215.32 283.04"/><path class="cls-2" d="M868,280.28a37.59,37.59,0,0,0-3.85-17.11,30.45,30.45,0,0,0-9.32-11.12,40.8,40.8,0,0,0-16.33-7c-10.25-2.1-20.54-1.55-30.82-.26a130,130,0,0,0-21.44,4.71,57.26,57.26,0,0,0-10.66,4c-1.34.73-1.46.92-1.13,2.38.07.26.15.53.24.78,1.21,3.11,1.86,6.38,2.76,9.57.79,2.77.75,2.78,3.38,1.93,9.39-3,18.89-5.5,28.77-6.24a65.88,65.88,0,0,1,16.24.59c7.05,1.22,12.12,4.92,14.46,11.85,2,6,2.19,12.13,1.89,18.33,0,1.05-.51,1.66-1.63,1.64-.48,0-.95,0-1.43,0-10,.49-20.08.89-30,2.39-11.28,1.7-21.62,5.75-30.39,13.19a28.06,28.06,0,0,0-9.15,13.22c-3.46,11.56-2.44,22.7,3.86,33.13a21.58,21.58,0,0,0,9.1,8.22,52.24,52.24,0,0,0,28,5.3,58,58,0,0,0,27.67-9.88c2-1.37,3.89-2.94,5.85-4.4,1.22-.9,1.4-.85,1.74.72.62,2.85,1.22,5.7,1.82,8.55.43,2,.5,2.1,2.52,2.11q7.85,0,15.69,0c2,0,2.1-.15,2.14-2.05,0-.27,0-.55,0-.82V321h0C868,307.45,867.94,293.87,868,280.28ZM840.69,340c-6.68,5-13.74,9.23-22.09,10.81-5.8,1.09-11.34.55-16.48-2.6A16.65,16.65,0,0,1,794.33,337a23,23,0,0,1,1.26-13.38c1.67-4.36,5-7.16,9.2-9A45.33,45.33,0,0,1,820.17,311c6.23-.46,12.46-.87,18.72-.85.47,0,1,0,1.42,0,1.61,0,1.74.13,1.75,1.76,0,3.8,0,7.61,0,11.41v1.22h0c0,4.08,0,8.15,0,12.23A3.65,3.65,0,0,1,840.69,340Z"/><path class="cls-2" d="M628.9,280.88a37.86,37.86,0,0,0-1.74-12.42,35.26,35.26,0,0,0-3.88-8.47,33,33,0,0,0-14.22-11.78c-6.63-3.08-13.69-4.24-20.95-4.47A118.78,118.78,0,0,0,559,246.49c-7.36,1.61-14.66,3.43-21.58,6.51-2.12.95-2.3,1.34-1.76,3.58.76,3.16,2,6.18,2.73,9.36s.85,3.15,4,2.1a126,126,0,0,1,21.9-5.4,71.85,71.85,0,0,1,22.72-.13,17.88,17.88,0,0,1,10.33,5.24,21.44,21.44,0,0,1,4.93,9.88c1.21,4.78,1.15,9.7,1,14.59,0,1.82-.3,2-2.21,2.1q-12,.51-24,1.56a74.76,74.76,0,0,0-25,6.15A46.38,46.38,0,0,0,536.57,313a31.6,31.6,0,0,0-8,19.17,42.46,42.46,0,0,0,1.88,15.65c2.92,9.68,9.07,16,18.58,19.15a65.8,65.8,0,0,0,14,2.77,36.7,36.7,0,0,0,9.13.21,63.59,63.59,0,0,0,28.55-11c1.55-1.11,2.92-2.42,4.5-3.48,1-.7,1.39-.56,1.63.68.55,2.73,1.08,5.46,1.55,8.2.41,2.34.73,2.67,3.2,2.68q6.11,0,12.22,0c1.23,0,2.45,0,3.67,0,1.06,0,1.49-.46,1.44-1.48,0-.33,0-.67,0-1V320.62C628.87,307.37,628.83,294.13,628.9,280.88Zm-27.59,59.34a82.72,82.72,0,0,1-9.19,6c-5.63,3-11.54,5.15-18,5.1a19.94,19.94,0,0,1-14.65-6,16.21,16.21,0,0,1-4.23-8.43,22.2,22.2,0,0,1,1.21-12.95c2.08-5.11,6-8.06,10.9-10a53.88,53.88,0,0,1,17.12-3.2c5.35-.27,10.71-.66,16.07-.57H602c.86,0,1.22.45,1.22,1.27,0,.47,0,.95,0,1.42v11.82h0c0,3.94-.05,7.87,0,11.81A4.1,4.1,0,0,1,601.31,340.22Z"/><path class="cls-2" d="M756,246.54l-1.4,7.29c-1.5,7.73-3.55,15.33-5.43,23-.76,3-1.48,6.09-2.28,9.13q-.72,2.73-1.54,5.43c-.17.54-.33,1.09-.48,1.63-1.1,3.82-2,7.71-3.28,11.46-1.33,3.92-2.34,7.94-3.69,11.85-2.49,7.17-4.94,14.36-7.61,21.47-2.21,5.89-4.63,11.73-7.39,17.39-1.57,3.22-3,6.53-4.84,9.62a4.72,4.72,0,0,1-4.53,2.45c-9.1-.06-18.21-.05-27.31-.07-1.8,0-1.88-.07-2.43-1.77-2-6.33-4-12.67-6.15-19-2.65-7.83-5.18-15.7-7.8-23.55-1.21-3.6-2.31-7.23-3.55-10.82-2.7-7.88-5.23-15.83-7.86-23.74-1.22-3.67-2.33-7.37-3.6-11-2.7-7.82-5.25-15.68-7.79-23.55-.6-1.86-1.33-3.7-1.93-5.57-.5-1.58-.33-1.86,1.25-1.87q12.12,0,24.25,0c1.95,0,2.73.67,3.37,2.6q2.81,8.38,5.58,16.79c2.75,8.3,5.42,16.63,8.28,24.9,1.33,3.84,2.42,7.76,3.7,11.62,2.77,8.37,5.23,16.83,7.74,25.28,1.18,4,2.16,8,3.21,12a3.23,3.23,0,0,0,.39,1.36c.29.38.62.56.92,0a6,6,0,0,0,.38-.94c1.85-5.67,4-11.22,5.93-16.88q4.15-12.45,7.9-25c1.4-4.68,2.49-9.44,3.86-14.12,1.5-5.09,2.34-10.31,3.57-15.45a150.63,150.63,0,0,0,3.05-19.9c.22-2.2.29-2.21,2.51-2.21q11.52,0,23,0A3.54,3.54,0,0,1,756,246.54Z"/><path class="cls-2" d="M509.37,207.88q0,70.31,0,140.6a74.28,74.28,0,0,1-1.75,17.8,61.46,61.46,0,0,1-4.71,13.82c-1.36,2.65-2.59,5.35-4.21,7.88a51.5,51.5,0,0,1-22.45,19.4,74.34,74.34,0,0,1-7.4,2.85,2.27,2.27,0,0,1-2.71-.69c-1.53-1.72-3.14-3.37-4.67-5.09-2.3-2.56-4.55-5.16-6.93-7.87,2.49-1.28,4.92-2.13,7.11-3.47a36.75,36.75,0,0,0,8.78-7.5c4.89-5.74,7.77-12.46,9.62-19.74a67.61,67.61,0,0,0,1.75-16.75q0-71,0-142c0-4.74-.07-4,4.08-4,6.93,0,13.86,0,20.79,0,.4,0,.81,0,1.22,0a1.38,1.38,0,0,1,1.46,1.56C509.36,205.71,509.37,206.8,509.37,207.88Z"/><path class="cls-2" d="M279.4,65.71a65.47,65.47,0,0,1-2.16,14.47,75.17,75.17,0,0,1-7.5,18,82.82,82.82,0,0,1-11.11,15c-3.71,4-7.79,7.56-11.83,11.19-3.07,2.76-6.17,5.5-9.24,8.26-4.69,4.22-9.38,8.43-14.05,12.68-2.86,2.6-5.67,5.26-8.49,7.9-4.81,4.49-9.54,9.07-14.09,13.81q-4.87,5.06-9.34,10.48a96.06,96.06,0,0,0-9.44,13.73c-.93,1.64-1.64,3.42-2.42,5.15a27.09,27.09,0,0,0-2.6,13.64,31.26,31.26,0,0,0,1.57,8.17c.61,1.65.92,3.41,1.48,5.08A119.28,119.28,0,0,0,190.26,245c1.4,2.4,2.74,4.83,4.16,7.22,3.06,5.14,6.39,10.09,9.76,15a119.31,119.31,0,0,0,8.79,12,8.84,8.84,0,0,1,2,3.28c-4.16-3.62-8.22-7.31-12-11.27-4.43-4.59-9-9.08-13.36-13.68-2.68-2.79-5.27-5.66-7.82-8.57-5.62-6.44-11.08-13-16.2-19.86a112.83,112.83,0,0,1-10-15.56c-2.67-5.14-4.87-10.46-4.49-16.49a32.46,32.46,0,0,1,2-8.88,51.35,51.35,0,0,1,7.13-13A116,116,0,0,1,173.68,160c5.33-5.13,10.84-10,16.61-14.69,2.8-2.25,5.53-4.59,8.32-6.86q9-7.31,18.21-14.36c4.31-3.3,8.56-6.68,12.86-10,4.47-3.43,8.9-6.91,13.06-10.71,1.55-1.42,3.1-2.85,4.51-4.4a106.48,106.48,0,0,0,9.49-11.67,92.82,92.82,0,0,0,8.13-14.75,84.83,84.83,0,0,0,3.93-11.75c2.85-10.34,2.81-20.78,1.05-31.28a15.86,15.86,0,0,1-.22-1.82c0-.38-.14-.88.39-1s.74.25,1,.58a27.08,27.08,0,0,1,4.43,8A88.48,88.48,0,0,1,279.4,65.71Z"/><path class="cls-3" d="M374.06,432.88v0h0Z"/><path class="cls-3" d="M378.72,444.37a41.38,41.38,0,0,1-11.34,8.15c-10.65,5.63-22.08,9-33.7,11.82-9.5,2.33-19.11,4.1-28.78,5.53-7.18,1.06-14.4,1.89-21.63,2.61-12.3,1.21-24.63,2-37,2.62-8.41.43-16.83.69-25.25,1-13.17.48-26.34.65-39.52.65-12.63,0-25.26-.17-37.89-.59s-25.1-1.06-37.63-2c-9.15-.67-18.28-1.41-27.37-2.59-10.84-1.41-21.65-3-32.15-6.19a39.28,39.28,0,0,1-11.11-4.95c-3.11-2.11-4.07-4.95-2.81-8.48,1.15-3.24,3.57-5.4,6.23-7.32,5.7-4.11,12.18-6.5,18.81-8.56a174.88,174.88,0,0,1,25.78-5.86c7.65-1.15,15.33-2.14,23.1-1.81.82,0,1.63.1,2.44.15.18,0,.26.08.22.47l-5.82,1a174.83,174.83,0,0,0-22.64,5A61.56,61.56,0,0,0,69,439.82a13.21,13.21,0,0,0-4.69,4.12c-1.59,2.35-1.12,4.28,1.22,5.93,3.16,2.25,6.79,3.37,10.48,4.32a210.18,210.18,0,0,0,24,4.43c7.94,1.09,15.9,2,23.87,2.72,6,.57,12.05.93,18.08,1.39,9.27.71,18.56,1.3,27.87,1.31,17.79,0,35.59-.13,53.37-.78,8.89-.33,17.79-.63,26.67-1,10.72-.46,21.44-1,32.13-1.89,7.38-.6,14.76-1.1,22.13-1.82a384.46,384.46,0,0,0,43.5-6.25,115.1,115.1,0,0,0,15.68-4.3,41.61,41.61,0,0,0,8.2-4,9.85,9.85,0,0,0,3.43-3.71,5.34,5.34,0,0,0-.06-4.71c-.12-.29-.27-.57-.42-.86a3,3,0,0,1-.43-1.74h0a8.24,8.24,0,0,1,1,.42l.49.26a8.76,8.76,0,0,1,.88.56c.15.1.29.21.43.32a10.21,10.21,0,0,1,.77.69,12.14,12.14,0,0,1,2.41,3.45C381.12,440.8,380.25,442.72,378.72,444.37Z"/><path class="cls-2" d="M327.66,122.54c0,.67-.53.77-.9,1-6.79,4.1-13.65,8.1-20.37,12.3-5.41,3.38-10.7,6.95-16,10.54-1.54,1-3.07,2.11-4.59,3.2s-3,2.18-4.52,3.3q-4.47,3.36-8.77,6.94A130,130,0,0,0,259,172.71a59.58,59.58,0,0,0-9,12.75A23.84,23.84,0,0,0,250,208a97.74,97.74,0,0,0,6.77,11.11c2.9,4.25,5.94,8.41,8.71,12.75a59.08,59.08,0,0,1,6.24,12.08c.43,1.21.91,2.41,1.36,3.61a26.43,26.43,0,0,1,1.12,3.71c.1.49.19,1,.26,1.46a26.32,26.32,0,0,1-2.67,16.51,54.52,54.52,0,0,1-9.92,13.33,100.92,100.92,0,0,1-8.81,7.83,134,134,0,0,1-15.44,10.55.75.75,0,0,1-.85.11c-.17-.45.25-.79.49-1.12,1.85-2.51,3.81-4.95,5.56-7.52,3.18-4.66,6.25-9.41,7.63-15a18,18,0,0,0-.36-9.64c-1.59-5.31-4.54-9.81-7.79-14.18-2.91-3.91-5.8-7.85-8.74-11.75a94.45,94.45,0,0,1-6.38-9.17,55.31,55.31,0,0,1-6.3-14.72A60.88,60.88,0,0,1,219,207.57a44.55,44.55,0,0,1,4.61-22.27,59.85,59.85,0,0,1,10.8-15.45,107.23,107.23,0,0,1,16.06-13.71q6.24-4.41,12.85-8.22c5.71-3.28,11.58-6.23,17.56-9q10.1-4.62,20.51-8.42c8.28-3,16.66-5.76,25.2-8C326.91,122.46,327.28,122.23,327.66,122.54Z"/><path class="cls-3" d="M296.16,415.54a37.61,37.61,0,0,1-7.14,2.57c-11.35,3.25-22.76,6.28-34.36,8.47a237.8,237.8,0,0,1-31.48,4,294.93,294.93,0,0,1-38.87-.82,206.56,206.56,0,0,1-29.19-4.13,82.45,82.45,0,0,1-17.93-5.9,24.72,24.72,0,0,1-7.85-5.72,8.67,8.67,0,0,1,.11-11.2c3-3.4,7-5.33,11.05-7.06a30,30,0,0,1,5.42-1.74,4,4,0,0,1,1.93-.13,2.13,2.13,0,0,1-.65,1.73,5.27,5.27,0,0,0,1.75,7.86c3.23,2,6.79,2.66,10.38,3.38,4.75,1,9.59.92,14.4,1.12,11.06.46,22.13.71,33.2.43,10.86-.28,21.7-.82,32.53-1.82a188.22,188.22,0,0,0,23.76-3.38c5.73-1.28,5.73-1.35,10.7,1.54a141.55,141.55,0,0,0,21.17,10.36C295.41,415.19,295.71,415.34,296.16,415.54Z"/><path class="cls-3" d="M136.83,342l-.05,0v0Z"/><path class="cls-3" d="M303.69,364.21a35.71,35.71,0,0,1-6.88,2.4,344.91,344.91,0,0,1-42.15,9.08c-8.93,1.31-17.91,2.17-26.93,2.67-14.88.84-29.73.14-44.59-.35-5.43-.18-10.85-.53-16.26-1-12.65-1-25.26-2.43-37.59-5.6a51.43,51.43,0,0,1-11.22-4.21,10.26,10.26,0,0,1-5-4.63c-1.48-3.27-.49-6.22,1.28-9,2.53-4,6.46-6.32,10.6-8.28l1.25-.56c.85-.36,1.7-.68,2.57-1,1.29-.44,2.61-.82,3.95-1.15.88-.21,1.78-.41,2.68-.58l.45-.09a1.58,1.58,0,0,1,.65,0,.73.73,0,0,1,.25.08c-.83,1.72-2.35,2.91-3.37,4.49-1.77,2.74-1.63,5,.63,7.29a16.1,16.1,0,0,0,6.75,3.63,64.35,64.35,0,0,0,13,2.5c14.75,1.54,29.55,1.51,44.35,1q11.61-.36,23.2-1.07,13.6-.83,27.18-2.27c9.72-1,19.4-2.35,29.05-3.83,1.14-.17,2.28-.36,3.41-.57a6.29,6.29,0,0,1,5.32,1.39,55.5,55.5,0,0,0,11.59,7.49c.46.21.92.4,1.39.59.93.37,1.9.71,2.9,1C302.65,363.89,303.17,364.05,303.69,364.21Z"/><path class="cls-3" d="M322.21,304.88c-5.62,3.28-11.28,6.5-16.87,9.84a14.21,14.21,0,0,1-5.51,1.94c-9.95,1.34-19.89,2.76-29.86,4-8,1-15.92,1.78-23.88,2.62-5.67.59-11.34,1.12-17,1.66-8.72.83-17.46,1.43-26.2,1.86-10.31.5-20.63,1.07-31,.8-11.41-.31-22.81-.67-34.2-1.37-6.37-.39-12.74-.79-19.09-1.4-10.8-1-21.63-2-32.24-4.44a60.49,60.49,0,0,1-9.54-2.87,16.57,16.57,0,0,1-3.75-2.39,3,3,0,0,1-.24-4.32,23.43,23.43,0,0,1,7.32-5.41C90,300.31,100.44,297,111,294a219.7,219.7,0,0,1,28.26-6,127.84,127.84,0,0,1,13-1.42,3.61,3.61,0,0,1,2.43.47l-10,2.71C135.58,292.25,126.56,295,118,299a25.71,25.71,0,0,0-7.33,4.7,7.84,7.84,0,0,0-1,1c-1.59,2.18-1.18,3.85,1.19,5.16a28.09,28.09,0,0,0,9.1,2.78c5.89,1,11.84,1.6,17.79,2,20.82,1.52,41.67,1.58,62.52,1.2,8.41-.16,16.81-.78,25.21-1.39,6.37-.47,12.74-.87,19.09-1.41q12-1,23.93-2.2c6.55-.66,13.08-1.47,19.62-2.23,8.7-1,17.37-2.22,26-3.5,2.88-.42,5.74-1,8.63-1.17C323.05,304.64,322.51,304.7,322.21,304.88Z"/><path class="cls-3" d="M403,456.48a9.3,9.3,0,0,1-1.36,3.93,37,37,0,0,1-8.24,8.92c-7.94,6.37-17.1,10.44-26.52,14-12.43,4.7-25.38,7.34-38.45,9.51q-14.07,2.32-28.23,3.93-11.82,1.34-23.71,2.22c-9.62.74-19.24,1.37-28.87,1.77-14.45.59-28.91.82-43.38.36-7.06-.22-14.11-.45-21.16-.9-10.24-.64-20.44-1.53-30.62-2.79s-20.28-2.91-30.3-5.06q-9-1.92-17.77-4.44a3.79,3.79,0,0,1-2.18-1.12c1.81.13,3.33.22,4.84.35,7.23.62,14.47,1.27,21.7,1.86,5.62.47,11.24.94,16.86,1.29,15.11.92,30.24,1.65,45.38,2,15.54.39,31.09.51,46.64.12,10.87-.27,21.73-.64,32.57-1.35,13.27-.87,26.51-2.14,39.71-3.89,11.84-1.57,23.6-3.61,35.23-6.34a206.07,206.07,0,0,0,30.3-9.36,119.49,119.49,0,0,0,24.68-13.25c.33-.24.67-.47,1-.68Z"/><path class="cls-3" d="M403.18,317.76c-.39,6.08-2.77,11.38-6.14,16.35a72.06,72.06,0,0,1-18.78,18.4,136.89,136.89,0,0,1-28.59,15,207.3,207.3,0,0,1-21.67,7,2.27,2.27,0,0,1-1.55,0,8.14,8.14,0,0,1,2.44-1.76A216.15,216.15,0,0,0,349,360a149.64,149.64,0,0,0,12.68-10.2,128.79,128.79,0,0,0,9.78-9.77,49,49,0,0,0,4.12-5.29,45.39,45.39,0,0,0,6.71-14.28,22.81,22.81,0,0,0,.71-8.67c-.81-5.95-2.73-11.5-7.15-15.83a26.44,26.44,0,0,0-11.61-6.48,56.66,56.66,0,0,0-21.81-1.42c-1.34.15-2.68.34-4.51.57a15.14,15.14,0,0,1,6.58-4c11.57-3.85,23.17-4.18,34.68.27a46.17,46.17,0,0,1,13.64,8.35,31.37,31.37,0,0,1,8.73,12.32A28.11,28.11,0,0,1,403.18,317.76Z"/><path class="cls-3" d="M136.79,342h0s0,0,0,0Z"/><path class="cls-3" d="M137.12,341.9a.77.77,0,0,1-.29.08h0a.16.16,0,0,1,0-.17.17.17,0,0,1,.12-.05C137.14,341.74,137.21,341.83,137.12,341.9Z"/><polygon class="cls-2" points="215.32 283.04 215.26 283.13 215.24 283.01 215.32 283.04"/><path class="cls-3" d="M374,432.81l.05.06h-.1s0-.05,0-.06,0,0,0,0S374,432.78,374,432.81Z"/><polygon class="cls-3" points="374.01 432.88 374.02 432.88 374.01 432.88 374.01 432.88"/><path class="cls-3" d="M374.06,432.88l0,0,0,0Z"/></svg>
