<?xml version="1.0" standalone="no"?>
<!DOCTYPE svg PUBLIC "-//W3C//DTD SVG 20010904//EN"
 "http://www.w3.org/TR/2001/REC-SVG-20010904/DTD/svg10.dtd">
<svg version="1.0" xmlns="http://www.w3.org/2000/svg"
 width="290.000000pt" height="290.000000pt" viewBox="0 0 290.000000 290.000000"
 preserveAspectRatio="xMidYMid meet">
<metadata>
Created by potrace 1.11, written by Peter Selinger 2001-2013
</metadata>
<g transform="translate(0.000000,290.000000) scale(0.100000,-0.100000)"
fill="#000000" stroke="none">
<path d="M1880 2410 c-125 -18 -226 -65 -291 -137 -115 -127 -149 -297 -149
-745 l0 -198 -40 0 -40 0 0 -110 0 -110 85 0 85 0 0 -50 c0 -49 -1 -50 -30
-50 -20 0 -30 -5 -30 -15 0 -9 -9 -15 -25 -15 -14 0 -25 -4 -25 -10 0 -5 25
-10 55 -10 l55 0 0 -135 0 -135 485 0 485 0 0 255 0 255 -45 0 -45 0 0 40 0
40 90 0 90 0 0 130 0 130 45 0 c41 0 45 2 45 25 l0 25 -340 0 -340 0 0 -110 0
-109 113 -3 112 -3 3 -212 2 -213 -180 0 -180 0 0 125 0 125 -34 0 -34 0 -7
65 c-12 111 1 613 17 676 22 86 60 143 111 168 72 35 195 25 261 -22 36 -25
72 -105 81 -178 l6 -56 132 18 c73 10 138 19 145 19 15 0 16 79 2 165 -31 189
-136 308 -311 350 -79 19 -272 27 -359 15z"/>
<path d="M270 1905 l0 -505 75 0 c73 0 75 -1 75 -25 0 -24 -2 -25 -75 -25
l-75 0 0 -360 0 -360 175 0 175 0 0 125 0 125 -30 0 -30 0 0 220 0 220 125 0
125 0 0 -130 0 -130 75 0 75 0 0 -200 0 -200 185 0 185 0 0 125 0 125 -91 0
-90 0 3 33 c3 32 4 32 61 35 l57 3 0 209 0 210 -100 0 -100 0 0 35 0 35 68 0
67 0 27 43 c58 92 71 156 76 357 4 197 -7 279 -47 358 -24 47 -86 109 -133
133 -87 45 -133 49 -505 49 l-353 0 0 -505z m625 202 c26 -9 45 -23 58 -44 23
-41 40 -153 32 -215 l-7 -48 -89 0 -89 0 0 -35 0 -35 85 0 c94 0 99 -6 47 -63
-35 -37 -78 -47 -204 -47 l-108 0 0 250 0 250 118 -1 c64 0 135 -6 157 -12z
m205 -342 l0 -35 -60 0 c-59 0 -60 0 -60 28 0 39 5 42 67 42 l53 0 0 -35z"/>
<path d="M584 1277 c0 -30 3 -34 28 -34 21 0 25 3 17 13 -6 7 -7 23 -3 36 6
20 5 21 -10 9 -10 -9 -16 -10 -16 -2 0 6 -4 11 -8 11 -4 0 -8 -15 -8 -33z"/>
<path d="M1820 1250 c0 -22 5 -40 10 -40 6 0 10 18 10 40 0 22 -4 40 -10 40
-5 0 -10 -18 -10 -40z"/>
<path d="M589 1211 c10 -6 11 -13 2 -29 -15 -29 -14 -32 14 -32 14 0 25 5 25
10 0 6 -5 10 -12 10 -9 0 -9 3 0 12 21 21 14 38 -15 38 -20 0 -24 -3 -14 -9z"/>
<path d="M2526 1149 c-8 -40 -2 -48 34 -47 33 1 38 10 17 30 -8 7 -12 20 -9
30 3 13 -1 18 -16 18 -14 0 -21 -9 -26 -31z"/>
<path d="M2537 1053 c-11 -19 -17 -72 -9 -77 5 -3 21 -2 37 2 24 7 26 10 14
22 -8 8 -14 24 -14 34 0 20 -20 33 -28 19z"/>
<path d="M1897 1023 c-13 -13 -7 -61 9 -67 40 -15 72 14 59 54 -6 20 -53 29
-68 13z m45 -45 c-16 -16 -37 4 -28 28 6 16 8 16 23 1 13 -13 15 -19 5 -29z"/>
<path d="M2008 1023 c6 -2 12 -20 12 -39 0 -19 5 -34 10 -34 6 0 10 13 10 28
0 15 5 33 12 40 9 9 4 12 -22 11 -19 0 -29 -3 -22 -6z"/>
<path d="M2537 923 c-3 -4 -8 -23 -12 -40 -6 -32 -6 -33 29 -33 l35 0 -13 37
c-12 36 -29 52 -39 36z"/>
<path d="M2535 788 c-3 -7 -6 -24 -7 -38 -3 -22 1 -25 29 -28 l32 -3 -13 37
c-13 40 -33 55 -41 32z"/>
<path d="M1780 645 c0 -13 27 -15 185 -15 158 0 185 2 185 15 0 13 -27 15
-185 15 -158 0 -185 -2 -185 -15z"/>
</g>
</svg>
