<svg id="laptop-svg" data-name="Layer 1" xmlns="http://www.w3.org/2000/svg" viewBox="0 0 970.67 600">
<defs>
	<style>
		#laptop-svg .cls-1{fill:#fefefe;}
		#laptop-svg .cls-2{fill:#535353;}
		#laptop-svg .cls-3{fill:#ccc;}
		#laptop-svg .cls-4{fill:#666;}
		#laptop-svg .cls-5{fill:#c4c4c4;}
		#laptop-svg .cls-6{fill:#454545;}
		#laptop-svg .cls-7{fill:#3e3e3e;}
		#laptop-svg .cls-8{fill:#bdbdbd;}
		#laptop-svg .cls-9{fill:#bfbfbf;}
		#laptop-svg .cls-10{fill:#d0d0d0;}
		#laptop-svg .cls-11{fill:#575757;}
		#laptop-svg .cls-12{fill:#696969;}
		#laptop-svg .cls-13{fill:#525252;}
		#laptop-svg .cls-14{fill:#606060;}
		#laptop-svg .cls-15{fill:#646464;}
		#laptop-svg .cls-16{fill:#747474;}
		#laptop-svg .cls-17{fill:#010101;}
		#laptop-svg .cls-18{fill:#1c1c1c;}
		#laptop-svg .cls-19{fill:#727272;}
		#laptop-svg .cls-20{fill:#c9c9c9;}
		#laptop-svg .cls-21{fill:#c8c8c8;}
		#laptop-svg .cls-22{fill:gray;}
		#laptop-svg .cls-23{fill:#b4b4b4;}
		#laptop-svg .cls-24{fill:#898989;}
		#laptop-svg .cls-25{fill:#1e1e1e;}
		#laptop-svg .cls-26{fill:#303030;}
		#laptop-svg .cls-27{fill:#414141;}
		#laptop-svg .cls-28{fill:#292929;}
		#laptop-svg .cls-29{fill:#fff;}
		#laptop-svg .cls-30{fill:var(--accent);}
	</style>
</defs>
<path class="cls-1" d="M924.27,524.47l-69.16.12c-2.87,0-6,.29-5.89-4,1-5.6,1-11.24,1-16.9q0-95.54,0-191.08,0-123.72,0-247.45c0-5.45.16-11-2.87-15.91-3.44-8.29-9.78-12.71-18.52-14.11a100.31,100.31,0,0,0-16-.8l-613.82,0c-17,0-34-.08-51,.22-14.37.26-22.29,6.57-25.72,19.73-1.75,3.45-1.07,7.19-1.07,10.79q0,223.58.09,447.13a49,49,0,0,0,1.08,11.4c-2.13,1.34-4.51,1-6.82,1q-34.45,0-68.92-.09c-2.11,0-4.39-.56-6.12,1.3-.46,3.31.85,5.07,4.21,6,5.54,1.6,10.9,3.78,16.62,4.74a157.47,157.47,0,0,0,27.17,5c2.07.23,4.24,0,6.29.47l2.64.23.29,0c-1.11-2.12-3.41-2-5.58-2.23l-3.88-.36h-.09L86,539.44h-.06a110.63,110.63,0,0,1-18.45-3c-.92-.24-1.83-.51-2.74-.81h0L63,535c-4.29-1.71-8.92-2.16-13.28-3.61-1.68-.56-3.66-.71-2.77-3.34a5.27,5.27,0,0,1,1-.57,4.55,4.55,0,0,1,.76-.32,7.79,7.79,0,0,1,1.57-.37,25,25,0,0,1,4.74.06l.54,0,.62,0,2.41.1c9.31.28,18.61.08,27.91-.21l1.73-.06c10.09-.31,20.17-.71,30.26-.67a8.6,8.6,0,0,0,3.48-.41h0a2.81,2.81,0,0,0,.66-.41,3.36,3.36,0,0,0,1.1-1.79c0-.95,0-1.91,0-2.86s-.11-2.09-.18-3.13c0,0,0-.05,0-.08l-.15-1.92v-.1c-.21-2.59-.41-5.19-.41-7.81q0-108.63,0-217.28v-.54q0-110.83,0-221.68a71.78,71.78,0,0,1,.92-13.42c1.49-6.76,4.51-12.34,11.17-15.45,6.38-3,13-3.28,19.95-3.28q329.85-.3,659.7,0a76.75,76.75,0,0,1,16.79,1.64c7.08,1.57,11.73,5.85,14.48,12.4C848.54,57,848.77,64.5,848.77,72q0,27.6,0,55.2v.57q0,169.65-.06,339.29c0,15,.73,29.93-.18,44.88h0q-.25,4.4-.73,8.79c0,.1,0,.2,0,.29-.17,3.63,1.66,5.11,5.37,5.05,6.65-.1,13.32-.32,19.87,1.27a15.21,15.21,0,0,0,4.47,0l1.94-.1c12.71-.61,25.42-.26,38.12-.07h.34a39.38,39.38,0,0,0,4.51-.17h.11c.57,0,1.13-.12,1.69-.21a24.61,24.61,0,0,0,4.77-1.24c.35-.13.69-.27,1-.42s.84-.38,1.26-.59C928.92,524.53,926.59,524.46,924.27,524.47Z"/><path class="cls-1" d="M931.24,530.55c-9.32,2.39-18.32,5.87-27.79,7.71-8.64,1.67-17.24,3.56-26.12,3.4l-4,1h-.52a2,2,0,0,1,.15-.43,1.83,1.83,0,0,1,.13-.16,5.34,5.34,0,0,1,1.86-1.42c.71-.35,1.46-.64,2.14-1,15.48.35,30.13-3.89,44.81-8.11C924.86,530.7,927.72,526.84,931.24,530.55Z"/><path class="cls-2" d="M931.24,525.56v5c-9.32,2.39-18.32,5.87-27.79,7.71-8.64,1.67-17.24,3.56-26.12,3.4-1.41.17-2.83.32-4.24.45l-1.54.14c-9.3.78-18.63.84-28,.83-.83,0-1.66,0-2.49,0h-9q-153.85-.1-307.7-.1c-2.37,0-4.88.6-7.1-.86a2.56,2.56,0,0,1-.42-.61,2,2,0,0,1-.16-.47,2.47,2.47,0,0,1,.14-1.48l0-.09.11-.15a3.11,3.11,0,0,1,1.71-1.16h0a8.53,8.53,0,0,1,2.56-.13h0l.32,0c5,.22,10,.13,15.05-.07h0c4.45-.18,8.9-.44,13.34-.65a0,0,0,0,0,.05,0c5.9-.27,11.8-.43,17.7-.15,15.3.72,30.56-.32,45.83,0,5.37.1,10.58-1.24,15.9-1,3.89.45,7.8.68,11.72,1h11.43q81.64,0,163.29,0c4.85,0,9.7-.18,14.55-.15h0a91.76,91.76,0,0,1,11.6.67c6.53.84,13-.27,19.37-1h0a55.91,55.91,0,0,1,12.06-.36l1.69-.06h0l2.91-.11h.07a180.48,180.48,0,0,0,24-2.06,25.13,25.13,0,0,0,6.66-2,14.67,14.67,0,0,0,1.85-1.05,5.45,5.45,0,0,0,.58-.4l0,0,.51-.4.51-.42.2-.17a19.3,19.3,0,0,1,3.64-.86,18.92,18.92,0,0,0,6.07-1.61,4.65,4.65,0,0,0,.56-.34,7.17,7.17,0,0,0,1.31-1.06l0,0c.15-.15.3-.31.44-.48,1.74.13,3.51-.29,5.24,0A5.15,5.15,0,0,1,931.24,525.56Z"/><path class="cls-3" d="M931.24,524.56v1h-7a12.23,12.23,0,0,1-1.31,1.11l-.45.33c-2.81,2-6.06,2.8-9.38,3.46l-.67.12-1.17.23-.44.08-.26.05c-1.86,0-3.72.06-5.58.07h-.57c-7.42.07-14.84,0-22.25,0-1.43,0-3.19.33-4.13-.77h0a.69.69,0,0,1-.11-.13c-2.23-3-5.14-2.32-8.23-2.45-6.25-.25-12.5.19-18.75-.27-2-.15-3.58-.66-3.88-2.74-.19-1.32-.46-2.87.7-3.64a3.15,3.15,0,0,1,1.46-.45c-.06,4.3,3,4,5.89,4l69.16-.12C926.59,524.46,928.92,524.53,931.24,524.56Z"/><path class="cls-4" d="M849.29,189q-.1,158.44-.12,316.9c0,1.92,1.2,4.47-.65,6h0a3.78,3.78,0,0,1-1.11.65h0l-.22.09a4.93,4.93,0,0,1-1.22-1.94,6.31,6.31,0,0,1-.29-1.78c0-1.28.16-2.61.16-3.87q0-16.92,0-33.83,0-90.15,0-180.29,0-110.8,0-221.61a63,63,0,0,0-.79-12,26,26,0,0,0-2.58-7.44c-.8-1.48-1.41-3-2.93-3.92-4.24-4.23-9.46-6.05-15.35-6.21-2-.05-4,0-6,0q-332.13,0-664.26,0a77.58,77.58,0,0,0-8.49.22c-10.87,1.18-17.15,7.51-18.27,18.41a65,65,0,0,0-.21,7V478.7a66.44,66.44,0,0,0,.55,10c.56,6-.09,11.94-.51,17.9-1.06-.93-1.53-2.49-1.58-4.64-.08-4.44,1-9-.93-13.31q0,16-.1,32h0a1.63,1.63,0,0,1-.68,0c-.81-.26-1-1.21-1.08-2.07a38.51,38.51,0,0,1-.12-5.48c0-75.48.41-151-.12-226.45s-.13-150.94-.36-226.41c0-2-.43-4,.41-5.91,3.43-13.16,11.35-19.47,25.72-19.73,17-.3,34-.22,51-.22l613.82,0a100.31,100.31,0,0,1,16,.8c8.74,1.4,15.08,5.82,18.52,14.11a41.56,41.56,0,0,1,2.36,14.11c.09,26,.35,51.92-.07,77.87C849.38,157.16,849.3,173.09,849.29,189Z"/><path class="cls-5" d="M98.23,542.29l.6.08-.61-.07Z"/><path class="cls-5" d="M837.37,545.1a17.83,17.83,0,0,0,2.14-.48A6.5,6.5,0,0,1,837.37,545.1Z"/><path class="cls-5" d="M838.7,543l2.14,0h-8.66C834.35,543,836.52,542.93,838.7,543Z"/><path class="cls-5" d="M871.55,542.25c-9.3.78-18.63.84-28,.83,8.95,0,17.88-.59,26.79-1.44.32.07.78.07.92.29A1.85,1.85,0,0,0,871.55,542.25Z"/><path class="cls-6" d="M872,542.69h-.79c-8.76.68-17.51,1.39-26.26,2-1.81.13-3.64-.05-5.47-.08a17.83,17.83,0,0,1-2.14.48h0c-3.55.59-7.17.2-10.75.2q-242.6.11-485.21.12-101,0-201.88,0c-9.83,0-19.64-.55-29.42-1.51a14.2,14.2,0,0,1-3.56-.61l-2.74-.52a26.42,26.42,0,0,0-4.15-.25l-.81-.12-.6-.08c1.89-2.33,4.81-.78,7.22-1.16l.18,0c.56.07,1.12.17,1.68.28l1.23.22c12.92,2.27,26,2.27,39,2.28q334.28.19,668.55,0c5.35,0,10.68-.66,16-.91h9c.83,0,1.66,0,2.49,0,9.33,0,18.66-.05,28-.83A3.39,3.39,0,0,0,872,542.69Z"/><path class="cls-7" d="M837.37,545.1a17.83,17.83,0,0,0,2.14-.48A6.5,6.5,0,0,1,837.37,545.1Z"/><path class="cls-7" d="M877.33,541.66l-4,1H872a3.39,3.39,0,0,1-.48-.44c-9.3.78-18.63.84-28,.83-.83,0-1.66,0-2.49,0h-9c-5.35.25-10.68.9-16,.91q-334.27.12-668.55,0c-13,0-26.11,0-39-2.28l-1.23-.22c-.56-.11-1.12-.21-1.68-.28a1.85,1.85,0,0,1,.84-.74h.08a8.76,8.76,0,0,1,2.65-.32c2.93-.16,5.86-.05,8.8-.06h9.71q100.31,0,200.61,0h18.47q82.2.08,164.4,0c1.92,0,3.93-.23,5.58,1a6,6,0,0,1,.55.47c40.48-.07,80.95-.21,121.42-.2q106.44,0,212.89.23a100.13,100.13,0,0,0,15.94-.75,18.16,18.16,0,0,1,7.38-.08A9.32,9.32,0,0,1,877.33,541.66Z"/><path class="cls-8" d="M911.4,529.65c-9.28,0-18.56-.06-27.83-.17-1.39,0-3.68.67-3.91-1.1a5.31,5.31,0,0,0-.25-1.12c-.85-2.47-3.19-1.59-5-1.63-7.28-.13-14.58,0-21.87-.09-3.45,0-5.11-1.37-3.33-5,1-5.6,1-11.24,1-16.9q0-95.54,0-191.08,0-123.72,0-247.45c0-5.45.16-11-2.87-15.91a144.92,144.92,0,0,1,1.78,20.83q-.2,28.58-.37,57.14v.57q-.22,39.75-.32,79.48-.27,149.26-.36,298.52c0,2.29.23,4.62-.68,6.82l0,.08c-.24,12-.24,12-12.41,12q-134.51,0-269,0c-1.16,0-2.33.07-3.49.11H562a1.55,1.55,0,0,0,0,.43,1.93,1.93,0,0,0,.4,1l0,0c1.77,1.66,4.06,1.43,6.13,1.38l2.74-.06c33-.81,66.06,0,99.12-.89-.51.47-.41,1.22,0,2.08a6,6,0,0,0,.37.62c.07.11.15.21.21.32h0a4.22,4.22,0,0,0,2.92,1.94,37.27,37.27,0,0,0,7.46.46c68.8.34,137.62-.67,206.41.64H888l3.08.05c4.32.09,8.65-.46,13-.34h.54A17.63,17.63,0,0,0,909,532a9.44,9.44,0,0,0,1.87-.65,1.69,1.69,0,0,0,.42-.48.83.83,0,0,0,.14-.32,0,0,0,0,0,0,0,.69.69,0,0,0,0-.25h0A1.44,1.44,0,0,0,911.4,529.65ZM824.8,526q-66.59.06-133.17,0C736,525.19,780.41,525.89,824.8,526Z"/><path class="cls-9" d="M409.63,524.77h-.46q-53.4-.06-106.8-.12-85.83,0-171.67,0c-3,0-6.33.6-6.39-4l0,0a11.39,11.39,0,0,1-.86-3.18s0-.05,0-.08a17.53,17.53,0,0,1-.15-1.92v-.1c0-1.51,0-3,0-4.53-.5-73.52.21-147-.42-220.56v-.54q-.11-14.19-.3-28.38c-.44-31.77-.14-63.54-.16-95.31q-.06-55.89-.09-111.77c-1.75,3.45-1.07,7.19-1.07,10.79q0,223.58.09,447.13a49,49,0,0,0,1.08,11.4c-.48,2.73-2.64,1.41-4,1.43-8.6.13-17.21,0-25.81.14-2.12,0-5.62-1.46-6.17,1.06a3.05,3.05,0,0,0-.07.57c-.07,1.42.83,2.19,2,2.77h.22c.4.19.83.35,1.26.51l.72.27.62.26a6.27,6.27,0,0,1,.64.3c.59.31-.14-.16.48.08,71.29.19,142.59,0,213.88.07a9.72,9.72,0,0,0,3.94-.47h0a4.51,4.51,0,0,0,.44-.22c.08-.18.16-.36.24-.52l.06-.13c0-.06.05-.11.06-.15a6.08,6.08,0,0,0,.77-2.4l5,.23c27.6,1.38,55.32.2,83,.24h4.07c1.77,0,3.9.19,5.33-1.37a3.14,3.14,0,0,0,.39-.48,1.81,1.81,0,0,0,.11-.6A1.41,1.41,0,0,0,409.63,524.77Zm-168.35,1.29q12-.06,24.23,0Z"/><path class="cls-10" d="M122.56,525.22c-.08.25-.28.36-.66.41h0a12.1,12.1,0,0,1-1.34,0c-9.26,0-18.51-.09-27.76-.06-1.58,0-3.29-.5-5,.8l.35.3c1.13,1,2.19,1.92,3.26,2.84a4.49,4.49,0,0,1-.44.51l-.33.27a3.3,3.3,0,0,1-.39.26c-1.29.7-2.86.43-4.3.43-6.2,0-12.41.07-18.61,0h-.42c-1.78,0-3.56,0-5.33,0H59.25a2.41,2.41,0,0,1-1.81-.4,7.61,7.61,0,0,1-1.2-1.08l-.27-.28a5.3,5.3,0,0,0-.86-.72,2.46,2.46,0,0,0-1-.38,20.34,20.34,0,0,0-2-.33c-1.08-.11-2.17-.16-3.26-.26l-.89-.09H47.8c-2.6.26-5.26.76-7.22-1.68,1.73-1.86,4-1.3,6.12-1.3q34.46,0,68.92.09c2.31,0,4.69.35,6.82-1A4.78,4.78,0,0,1,122.56,525.22Z"/><path class="cls-11" d="M68.91,535.18a1.65,1.65,0,0,1-.17.39,2.23,2.23,0,0,1-.4.51,5.53,5.53,0,0,1-.86.31c-2,.51-4.07-.23-6.07.16-5.72-1-11.08-3.14-16.62-4.74-3.36-1-4.67-2.73-4.21-6,2.59-.95,5.22-.39,7.83-.19.59.42,1.19.82,1.79,1.19s1.2.72,1.82,1a22.08,22.08,0,0,0,4.22,1.71,18.87,18.87,0,0,0,3.13.64l1.36.53c.29.12.57.23.86.33a23.64,23.64,0,0,0,3,.93,14.75,14.75,0,0,0,2.21.35l.54,0h0a3.16,3.16,0,0,1,1.15.93,3,3,0,0,1,.2.45,2.3,2.3,0,0,1,.12.34A2,2,0,0,1,68.91,535.18Z"/><path class="cls-6" d="M118.41,541.53c-3.27.3-6.62-.37-9.87.13l-1.23-.22c-.56-.11-1.12-.21-1.68-.28l-.18,0c-2.41.38-5.33-1.17-7.22,1.16l-.44,0-.28,0L94.86,542c-2-.47-4.21-.24-6.28-.47a157.47,157.47,0,0,1-27.17-5,6.51,6.51,0,0,1,3.32-1h0c1.21-.08,2.45,0,3.67,0a5.35,5.35,0,0,1,.5-.37,4.44,4.44,0,0,1,1.54-.68h0c2.31-.52,4.66.85,6.93,1,1.64.13,3.31.48,5,.53l.32.08c.49.14,1,.26,1.46.37,1.53.37,3,.68,4.58.93h0a139.93,139.93,0,0,0,18.41,1.41h.09c2.22.07,4.44.13,6.65.23,1.11,0,2.43-.21,3.36.32h0a1.66,1.66,0,0,1,.65.64A3.15,3.15,0,0,1,118.41,541.53Z"/><path class="cls-12" d="M643.58,536.54a1.85,1.85,0,0,1-.06.5c-.33,1.43-2.08.86-3.3,1h0a1.3,1.3,0,0,0-.91.46h-8c-7.75-.68-15.53-.32-23.29-.47-12.07-.23-24.14,1.41-36.22-.37-.56-.08-1.12-.14-1.69-.18h0c-1-.06-2-.06-3.06,0h0c-2.55.09-5.1.42-7.63.55-7.49.39-15,.1-22.46-.09h0c-5.19-.12-10.37-.19-15.54.06h-.12l-1.27.06-1.12.06c-2.77.14-5.53.2-8.31.23h-.07c-6,0-12.07,0-18.09.22-7.7.32-15.72,1.63-23.58-.37l-.1,0h0a14.76,14.76,0,0,0-6.58,0h0c-.56.11-1.11.25-1.66.41-3,.89-6,.17-9-.34h0A18.25,18.25,0,0,0,446,538c-1,.14-2.1.26-3.15.36h0c-9.81,1-19.68.69-29.46.43-8-.21-16.26-.53-24.1-.14-11.37.57-22.8-.51-34.14.4h0q-3.56.27-7.1.85c-.42.07-.84.12-1.26.16h0a29.09,29.09,0,0,1-4.85,0c-.61,0-1.21-.09-1.82-.15a59.28,59.28,0,0,0-8.94.09,19.09,19.09,0,0,0-4.78-1.42h0A59.88,59.88,0,0,0,317,538c-9.47-.17-18.95.18-28.41.49h-.08c-7.14.22-14.28.43-21.42.38-34.28-.25-68.54.52-102.81.12a15.73,15.73,0,0,1-4.09-.21,2.92,2.92,0,0,1-1.49-1,4.05,4.05,0,0,1-.78-2,1,1,0,0,1,0-.25.5.5,0,0,1,0-.12c.67-2.82,3.21-3.08,5.2-3,22.49.7,45,0,67.47.14,14.09.12,28.22-.58,42.29-.17,21.62.63,43.23-.06,64.85.28,14.54.24,29.12,0,43.69-.35,10.58-.24,21.2.42,31.81.33a24.35,24.35,0,0,0,4.92-.6c1.08.28,2.23.4,3.33.62l21-.2H548.25l3,.18a8.78,8.78,0,0,0,2.81-.74,12.86,12.86,0,0,0,5.43.51,283.8,283.8,0,0,1,29.46-.23c11.32.35,22.62-.35,33.94-.18,5.52.08,11,.76,16.42,1.28,1.69.16,3.31.53,4.14,2.29a4.56,4.56,0,0,1,.08.57C643.57,536.29,643.58,536.42,643.58,536.54Z"/><path class="cls-13" d="M332.36,538.54a10.83,10.83,0,0,1,7,0c4.45-1.19,8.89,0,13.34,0,16.79.08,33.58-.24,50.37-.09,10.05.09,20.09-.26,30.14-.12,13.28.19,26.61-.25,39.89-.07,12.9.18,25.8-.65,38.69.2,1.89.12,3.94-.5,5.54,1.11v2l-189,0c-1.73-.94-3.6-.48-5.4-.48q-68.7,0-137.4,0c-17.27,0-34.54-.31-51.81.41-2.12.08-4.25-1.15-6.36,0h-9c-7.43-2.07-15.12-.36-22.61-1.62-4.8-.8-10,.92-14.39-2.36,6-3,12.35-1.09,18.57-1,12,.14,24,2.45,36.11.66a16.76,16.76,0,0,1,3.09-.05c21,1,41.95,1.14,62.92.82,13.59-.21,27.17.34,40.77-.31,10.76-.51,21.57.77,32.34.29,17-.74,33.92-.16,50.88-.38C328.21,537.54,330.46,537.07,332.36,538.54Z"/><path class="cls-14" d="M517.33,539.54c-59.32-.84-118.66,1.15-178-1,1.81-1.11,3.83-.94,5.83-1,14.47-.4,28.95.05,43.44-.49,8.84-.32,17.9.41,26.79.23,9.75-.19,19.57-.38,29.29-.38,9.89,0,19.84-.47,29.81.34,9.67.8,19.5-.68,29.26-.63,19.62.11,39.23.7,58.85.86,20.61.16,41.23,0,61.84.08,2.32,0,4.7-.3,6.83,1-12.25-.2-24.49.33-36.75.21C568.81,538.5,543.07,539.22,517.33,539.54Z"/><path class="cls-15" d="M639.3,538.54l4-2c2.09-3.19,5.57-2,8.48-2.74,10.12,4.07,20.74,2.15,31.09,2.18q66.51.24,133,.06c5,0,10,.34,14.61-2.15,12.36-.83,24.71.4,37.07.25,2.57,0,5.36-.49,7.52,1.63a1.55,1.55,0,0,1,.16,1.78c-3.55,1.69-7.32,0-10.8.55-11.45,1.93-22.86.61-34.31.56C766.52,538.43,702.91,538.54,639.3,538.54Z"/><path class="cls-15" d="M875.25,537.55v-1c.48-3.1,3-3.15,5.26-3.34a155.08,155.08,0,0,1,17-.77,12.62,12.62,0,0,0,7.77-1.91l5.8-.09a1.58,1.58,0,0,1,2.29.27c-.77,1.06-.08,2.74-2.3,3.27C899.26,536.82,887.31,537.66,875.25,537.55Z"/><path class="cls-16" d="M913.34,530.71l-2.29-.27c.12-.26.24-.52.35-.79,2.34.05,4.55.14,6.06-2.34s4.36-1.76,6.79-1.73c.13,3.47-2.17,4.5-5,4.82C917.29,530.62,915.31,530.61,913.34,530.71Z"/><path class="cls-17" d="M145.05,65.31a19.1,19.1,0,0,0-2.14,0h33.46Zm128.34,0h15.48C283.71,65.22,278.55,65.21,273.39,65.33Zm349.34,0h18C634.73,65.3,628.72,64.91,622.73,65.33Zm28.55,0c-1.81,0-3.62-.09-5.43,0q-1.51.06-3,.06H770.88C731,65,691.15,65.29,651.28,65.29Zm0,0c-1.81,0-3.62-.09-5.43,0q-1.51.06-3,.06H770.88C731,65,691.15,65.29,651.28,65.29Zm-28.55,0h18C634.73,65.3,628.72,64.91,622.73,65.33Zm-349.34,0h15.48C283.71,65.22,278.55,65.21,273.39,65.33Zm-128.34,0a19.1,19.1,0,0,0-2.14,0h33.46ZM846.34,462.5c-.3-36.24-.07-72.49-.08-108.74q0-142.77,0-285.53c0-8.4-.4-16.57-5.11-23.88h0a19.07,19.07,0,0,0-13.91-6.87c-4.48-.32-9-.29-13.48-.29H158.05c-4.17,0-8.34,0-12.49.19-12.47.66-20.35,8.56-21,21-.14,2.66-.16,5.32-.16,8q0,92.34,0,184.69,0,118.8.07,237.6c1.89,4.32.85,8.87.93,13.31,0,2.15.52,3.71,1.58,4.64.42-6,1.07-11.92.51-17.9a66.44,66.44,0,0,1-.55-10V65.38a65,65,0,0,1,.21-7c1.12-10.9,7.4-17.23,18.27-18.41a77.58,77.58,0,0,1,8.49-.22q332.13,0,664.26,0c2,0,4,0,6,0,5.89.16,11.11,2,15.35,6.21,1.52.91,2.13,2.44,2.93,3.92A26,26,0,0,1,845,57.38a82.93,82.93,0,0,1,.27,8.93q.07,161.43,0,322.87,0,37.94,0,75.88c0,2.07.3,4.14.47,6.22q0,16.92,0,33.83c0,1.26-.21,2.59-.16,3.87a6.31,6.31,0,0,0,.29,1.78c.8-.44.82-1.68.82-4.37C846.74,491.76,846.47,477.13,846.34,462.5ZM651.28,65.29c-1.81,0-3.62-.09-5.43,0q-1.51.06-3,.06H770.88C731,65,691.15,65.29,651.28,65.29Zm-28.55,0h18C634.73,65.3,628.72,64.91,622.73,65.33Zm-349.34,0h15.48C283.71,65.22,278.55,65.21,273.39,65.33Zm-128.34,0a19.1,19.1,0,0,0-2.14,0h33.46Zm0,0a19.1,19.1,0,0,0-2.14,0h33.46Zm128.34,0h15.48C283.71,65.22,278.55,65.21,273.39,65.33Zm349.34,0h18C634.73,65.3,628.72,64.91,622.73,65.33Zm28.55,0c-1.81,0-3.62-.09-5.43,0q-1.51.06-3,.06H770.88C731,65,691.15,65.29,651.28,65.29Zm0,0c-1.81,0-3.62-.09-5.43,0q-1.51.06-3,.06H770.88C731,65,691.15,65.29,651.28,65.29Zm-28.55,0h18C634.73,65.3,628.72,64.91,622.73,65.33Zm-349.34,0h15.48C283.71,65.22,278.55,65.21,273.39,65.33Zm-128.34,0a19.1,19.1,0,0,0-2.14,0h33.46Z"/><path class="cls-17" d="M845.78,471.28c-.17-2.08-.47-4.15-.47-6.22q-.07-37.95,0-75.88,0-161.43,0-322.87a82.93,82.93,0,0,0-.27-8.93,26,26,0,0,0-2.58-7.44c-.8-1.48-1.41-3-2.93-3.92-4.24-4.23-9.46-6.05-15.35-6.21-2-.05-4,0-6,0q-332.13,0-664.26,0a77.58,77.58,0,0,0-8.49.22c-10.87,1.18-17.15,7.51-18.27,18.41a65,65,0,0,0-.21,7V478.7a66.44,66.44,0,0,0,.55,10c.56,6-.09,11.94-.51,17.9a5.45,5.45,0,0,0,4.1,1c1.83-.1,3.67,0,5.5,0h698.8c3.37,0,6.8-.39,10.32,1.37,0-1.28.16-2.61.16-3.87Q845.79,488.19,845.78,471.28ZM831,500.3H140.29v-435h2.62a19.1,19.1,0,0,1,2.14,0l31.32,0h97c5.16-.12,10.32-.11,15.48,0H622.73c6-.42,12,0,18,0h2.09q1.51,0,3-.06c1.81-.07,3.62,0,5.43,0,39.87,0,79.74-.25,119.6,0H831Z"/><path class="cls-18" d="M847.37,512.61l-.22.09a4.93,4.93,0,0,1-1.22-1.94,6.31,6.31,0,0,1-.29-1.78l.27.14c0-12.13,0-23.87,0-35.62,0-.74,0-1.48-.11-2.22-.17-2.08-.47-4.15-.47-6.22q-.07-37.95,0-75.88,0-161.43,0-322.87a82.93,82.93,0,0,0-.27-8.93A20.63,20.63,0,0,0,841,46.73c-.36-.48.08-1.57.15-2.38,5.24,5.09,5.91,11.71,5.92,18.41q.14,52.38.09,104.76,0,168.11-.1,336.2C847.1,506.69,847.28,509.65,847.37,512.61Z"/><path class="cls-18" d="M847.37,512.61v.07c-.24,12-.24,12-12.41,12q-134.51,0-269,0c-1.16,0-2.33.07-3.49.11H562l-8.71,0-143.68,0h-.46q-53.4-.06-106.8-.12-85.83,0-171.67,0c-3,0-6.33.6-6.39-4v0q0-16,.1-32c1.89,4.32.85,8.87.93,13.31,0,2.15.52,3.71,1.58,4.64a5.45,5.45,0,0,0,4.1,1c1.83-.1,3.67,0,5.5,0h698.8c3.37,0,6.8-.39,10.32,1.37a6.31,6.31,0,0,0,.29,1.78,4.93,4.93,0,0,0,1.22,1.94Z"/><path class="cls-18" d="M562.46,524.74a4.41,4.41,0,0,1-.44.43c-1.76,1.6-3.81,1.61-5.88,1.45h0c-.47-.94-1.57-1.06-2.88-1l0,0h0c0,.26,0,.52,0,.77h-.1c-.27.06-.54.1-.81.14a4.75,4.75,0,0,0,.64-.56.58.58,0,0,1,0-.14,1.56,1.56,0,0,1,0-.31h0l-134.47,0c-1.27.16-2.9-.5-3.68.67h-.5c-1.71,0-3.27-.06-4.59-1.08a4.45,4.45,0,0,1-.47-.41h.46l143.68,0,8.71,0Z"/><path class="cls-6" d="M127.4,541.53c2-1.18,4.17-1,6.33-1H322c2.15,0,4.35-.2,6.33,1-46.28,0-92.55-.16-138.83.12-11.27.07-22.59.16-33.85.34C146.34,542.15,136.8,542.69,127.4,541.53Z"/><path class="cls-19" d="M905.25,530.53c-.08.18-.17.34-.26.5a6.62,6.62,0,0,1-1,1.33c-2,2-4.81,2.12-7.66,2.17A131.3,131.3,0,0,0,878.31,536h-.07c-.94.15-1.87.31-2.81.49l-.18,0c-4.57.17-9.13.13-13.7,0h0c-10.08-.22-20.17-.76-30.25,0q-34.44-.31-68.89-.46h-3.76q-20.83-.06-41.68,0h-1.67q-21.21,0-42.44.23h-.15l-6.94.08h-.33q-7,.06-14.11.16h-8a69.14,69.14,0,0,0-16.74-1.91c-21.73-.12-43.48.12-65.22.12-3.43,0-7.06.36-10-2.09h0a8.78,8.78,0,0,0,2.81-.74,4,4,0,0,0,2.27-3.65,3,3,0,0,0-.23-1.64c-.47-.94-1.57-1.06-2.88-1l0,0h0c0,.26,0,.52,0,.77h-.1a1.94,1.94,0,0,1-.17-.42.58.58,0,0,1,0-.14,1.56,1.56,0,0,1,0-.31h0a1.4,1.4,0,0,1,.43-.84l8.71,0h.44l.06.85c1.73,2.3,4.2,1.82,6.59,1.85l2.21,0c31.32.41,62.64-.29,94,.27a20.89,20.89,0,0,1,5.21.92,34.92,34.92,0,0,0,3.79.93h.05c47.16,0,94.31,0,141.47.16,20.74.07,41.48.28,62.23.5h0q13.59.13,27.18.27Z"/><path class="cls-20" d="M674.33,529.6q-53.43.09-106.87.19c-2.9,0-5.56-.14-4.93-4.2H843.82v1H671.69C672.13,528.74,673.6,528.76,674.33,529.6Z"/><path class="cls-19" d="M553.31,524.72v.85l-.06.07,0,0h0a3.52,3.52,0,0,1-.31.35.58.58,0,0,1,0-.14,1.56,1.56,0,0,1,0-.31h0l-134.47,0c-1.27.16-2.9-.5-3.68.67h0a3,3,0,0,0-.42,1.39c-.23,2.22,1,3.42,2.78,4.1a8.35,8.35,0,0,0,1,.3c1.08.28,2.23.4,3.33.62-6.63,3.46-13.86,2.77-20.85,2.51-19.56-.74-39.11-1.36-58.65.2-3.74.3-7.26-.74-10.91-.83-20.06-.53-40.11.46-60.2-.24a322,322,0,0,0-36.85.7c-5.67.45-11.58-.44-17.4-.46-16.92,0-33.85.78-50.77,0a15.4,15.4,0,0,0-7.35,1l-.53.26a19.81,19.81,0,0,1-6,1.82h-.07a25,25,0,0,1-6.69,0,36.47,36.47,0,0,0-10.79.07,37.92,37.92,0,0,1-9.28.17h-.25c-2.5-.19-5-.45-7.48-.53l-5.32-.17h-.25c-8.83-.27-17.66-.52-26.49-.9H85.2l-2.48-.12-.7,0a53.59,53.59,0,0,1-11.56-1.61h0q-.78-.19-1.56-.45c-.49-.15-1-.32-1.46-.5h0a3.92,3.92,0,0,1-.57-1.24,2,2,0,0,1-.06-.48,1.61,1.61,0,0,1,.19-.76.09.09,0,0,1,0-.07v0a2,2,0,0,1,.16-.24,3.08,3.08,0,0,1,.58-.55c7.38-.24,14.77-.1,22.16-.1h1c69.85,0,139.7.51,209.54-.25l10.13-.1H311l20.44-.16h2.37c17.68-.13,35.37-.26,53.05-.56,4.32-.07,8.61-1,12.93-1.35a34.36,34.36,0,0,1,5.65-.08,4.08,4.08,0,0,0,3.71-1.95,7.56,7.56,0,0,1,.07-.82h.46Z"/><path class="cls-21" d="M409.1,525.59l.24,3.89c-1.17.93-2.55.56-3.85.56q-45.62,0-91.24,0c-1.3,0-2.67.32-3.88-.49.64-2-.29-2.83-2.16-2.91-1.67-.07-3.33-.07-5-.07l-174.94.06c-.45,0-.9-.15-1.33-1Z"/><path class="cls-22" d="M310.37,529.55l99-.07c-2.58,1.69-5.49,1.07-8.28,1.08q-162.12,0-324.24,0c-3.16,0-6.33.08-9.49.13-2.65,2.35-5.28.86-7.91,0-2-.09-4-.17-5.94-.28-3-.18-5-1.54-5.06-4.83l6.82.09c1.17,1,1.16,2.75,2.23,3.84l33.94,0,161.6.08Q281.69,529.63,310.37,529.55Z"/><path class="cls-23" d="M57.47,529.51c-2.82-.08-2.95-1.72-2.23-3.84C58.61,525.43,59.44,526.66,57.47,529.51Z"/><path class="cls-15" d="M67.42,533.55c20.17,2.49,40.49,1.59,60.73,2.76,10,.57,20.16-.46,30.25-.76,1.66,2.17,4.07,2.09,6.39,2,15.44-.8,31-.7,46.33-.34,15.75.37,31.45-1.82,47.24,0,8.27,1,16.85-.24,25.29-.53,14.3-.5,28.63-.15,43-.13,2.11,0,4.44-.4,5.76,2-47.63,0-95.26-.18-142.89.12-13.79.09-27.58,0-41.38.41-16.85.57-33.84,1-50.71-1.26-5.24-.72-10.64-.21-16-.26-4.54.68-8.58-1.89-13-2C68.08,534.88,67.75,534.22,67.42,533.55Z"/><path class="cls-15" d="M59.42,530.69l7.91,0,.09,2.84C64.39,533.62,61.49,533.3,59.42,530.69Z"/><path class="cls-8" d="M553.22,525.64v0h0c0,.26,0,.52,0,.77h-.1c-.27.06-.54.1-.81.14a4.75,4.75,0,0,0,.64-.56.58.58,0,0,1,0-.14,1.56,1.56,0,0,1,0-.31h.43Z"/><path class="cls-8" d="M556.36,528.26a4,4,0,0,1-2.27,3.65,8.78,8.78,0,0,1-2.81.74l-3-.18H442.39l-21,.2c-1.1-.22-2.25-.34-3.33-.62a8.35,8.35,0,0,1-1-.3c-1.77-.68-3-1.88-2.78-4.1a3,3,0,0,1,.42-1.39h0c.78-1.17,2.41-.51,3.68-.67l134.47,0h0a1.56,1.56,0,0,0,0,.31.58.58,0,0,0,0,.14,4.75,4.75,0,0,1-.64.56c.27,0,.54-.08.81-.14h.1c0-.25,0-.51,0-.77h0l0,0c1.31-.08,2.41,0,2.88,1A3,3,0,0,1,556.36,528.26Z"/><path class="cls-24" d="M553.25,525.64l0,0h0v0Z"/><path class="cls-12" d="M651.29,536.53a52.43,52.43,0,0,1,17.24-1.75c13.1.81,26.25.28,39.28.14,24.79-.28,49.6-.58,74.37-.12,14.91.28,29.85-.31,44.76.75a9.2,9.2,0,0,1,4.32,1c-2,1.2-4.17,1-6.32,1H658.15C655.81,537.54,653.48,537.55,651.29,536.53Z"/><path class="cls-25" d="M770.88,65.33H651.26s0,0,0,0C691.15,65.29,731,65,770.88,65.33Z"/><path class="cls-26" d="M288.87,65.33H273.39C278.55,65.21,283.71,65.22,288.87,65.33Z"/><path class="cls-27" d="M176.37,65.33H142.91a19.1,19.1,0,0,1,2.14,0Z"/><path class="cls-28" d="M640.73,65.33h-18C628.72,64.91,634.73,65.3,640.73,65.33Z"/><path class="cls-28" d="M651.28,65.29v0h-8.46q1.51,0,3-.06C647.66,65.2,649.47,65.28,651.28,65.29Z"/><path class="cls-29" d="M651.28,65.33h-8.46c-.69,0-1.39,0-2.09,0h10.55Z"/><path class="cls-29" d="M830.11,65.33Z"/><path class="cls-30" d="M566.55,283.87q0-33.57,0-67.12c0-8.89-1.24-9.71-9.48-6.72-13.55,4.9-27.06,9.9-40.64,14.71-19.93,7.06-15.91,3.15-16.41,23.73,0,.5.05,1,0,1.5-.08,4,1.36,5.33,5.48,3.93,7.52-2.56,15.37-4.24,22.73-7.15,6.33-2.49,7.58-.57,7.55,5.5-.18,32.82.08,65.64-.21,98.46-.07,6.92,1.61,10.23,9.08,9.4a64.63,64.63,0,0,1,13.41,0c6.46.61,8.7-1.71,8.61-8.36C566.33,329.13,566.55,306.5,566.55,283.87Zm-84.48,19c-5.95.93-7.73-1.85-7.58-7.64.35-13.18.12-26.35.1-39.53,0-13.44-.24-26.87.11-40.28.15-5.69-1.94-7.49-7.37-7.17a175.2,175.2,0,0,1-17.9,0c-4.43-.2-7.11,1.2-9.59,5.2C422,242.09,404,270.63,385.66,298.9c-4.34,6.66-6.18,13.11-5.19,20.94.72,5.63,2.4,8.16,8.69,8,15.4-.46,30.84.08,46.26-.26,5.94-.14,8.75,1.37,8.25,7.83-.45,5.93.14,11.93-.13,17.88-.24,5.26,2,7.06,7.07,6.8,6-.29,11.95-.22,17.91,0,4.44.14,6.28-1.59,6.13-6.12-.24-6.71.13-13.43-.1-20.15-.15-4.33,1.17-6.13,5.86-6.21,11-.18,11-.43,11-11.37a24.29,24.29,0,0,1,0-3.72C492.62,305,489.78,301.68,482.07,302.87Zm-38.7-3.76c0,2.77-2.08,3.73-4.6,3.74-7.47,0-14.92,0-22.39,0-3.32,0-4.77-1.33-2.72-4.59Q427.32,276.62,441,255l2.4.51C443.41,270,443.46,284.57,443.37,299.11Z"/><path class="cls-30" d="M682.88,275.61Q600.55,193.13,518.1,110.72c-7.72-7.72-15.39-15.5-23.24-23.09a25.45,25.45,0,0,0-4.73-3.81,7.8,7.8,0,0,0-3.29-1.15,0,0,0,0,0,0,0,8,8,0,0,0-3.3,1.15,26.1,26.1,0,0,0-4.72,3.81c-7.85,7.59-15.53,15.37-23.25,23.09q-82.4,82.44-164.77,164.89c-3.52,3.52-5.37,6.13-5.6,8.65v0c.23,2.52,2.08,5.13,5.6,8.66q82.34,82.47,164.77,164.88c7.72,7.72,15.4,15.5,23.25,23.09a25.67,25.67,0,0,0,4.72,3.81,7.83,7.83,0,0,0,3.3,1.15h0a7.66,7.66,0,0,0,3.29-1.15,25,25,0,0,0,4.73-3.81c7.85-7.59,15.52-15.37,23.24-23.09Q600.49,375.41,682.88,293c3.51-3.53,5.37-6.14,5.6-8.66v0C688.25,281.74,686.39,279.13,682.88,275.61Zm-22.79,18.7q-76.46,76.51-153,153c-3.33,3.34-6.66,6.7-10,10-7.05,6.88-10.73,7.12-17.61.34q-28.16-27.7-56-55.68Q370.23,348.75,317,295.5c-10-10-10.07-12.43-.15-22.34q80-79.86,159.83-159.77c10.19-10.19,12.35-10.11,22.87.42q79,79,158.1,158c3.57,3.57,8.38,6.58,8.43,13.82C666.26,289.08,662.86,291.54,660.09,294.31Z"/><path class="cls-30" d="M566.55,283.87q0-33.57,0-67.12c0-8.89-1.24-9.71-9.48-6.72-13.55,4.9-27.06,9.9-40.64,14.71-19.93,7.06-15.91,3.15-16.41,23.73,0,.5.05,1,0,1.5-.08,4,1.36,5.33,5.48,3.93,7.52-2.56,15.37-4.24,22.73-7.15,6.33-2.49,7.58-.57,7.55,5.5-.18,32.82.08,65.64-.21,98.46-.07,6.92,1.61,10.23,9.08,9.4a64.63,64.63,0,0,1,13.41,0c6.46.61,8.7-1.71,8.61-8.36C566.33,329.13,566.55,306.5,566.55,283.87Zm-84.48,19c-5.95.93-7.73-1.85-7.58-7.64.35-13.18.12-26.35.1-39.53,0-13.44-.24-26.87.11-40.28.15-5.69-1.94-7.49-7.37-7.17a175.2,175.2,0,0,1-17.9,0c-4.43-.2-7.11,1.2-9.59,5.2C422,242.09,404,270.63,385.66,298.9c-4.34,6.66-6.18,13.11-5.19,20.94.72,5.63,2.4,8.16,8.69,8,15.4-.46,30.84.08,46.26-.26,5.94-.14,8.75,1.37,8.25,7.83-.45,5.93.14,11.93-.13,17.88-.24,5.26,2,7.06,7.07,6.8,6-.29,11.95-.22,17.91,0,4.44.14,6.28-1.59,6.13-6.12-.24-6.71.13-13.43-.1-20.15-.15-4.33,1.17-6.13,5.86-6.21,11-.18,11-.43,11-11.37a24.29,24.29,0,0,1,0-3.72C492.62,305,489.78,301.68,482.07,302.87Zm-38.7-3.76c0,2.77-2.08,3.73-4.6,3.74-7.47,0-14.92,0-22.39,0-3.32,0-4.77-1.33-2.72-4.59Q427.32,276.62,441,255l2.4.51C443.41,270,443.46,284.57,443.37,299.11Z"/><path class="cls-30" d="M566.55,283.87q0-33.57,0-67.12c0-8.89-1.24-9.71-9.48-6.72-13.55,4.9-27.06,9.9-40.64,14.71-19.93,7.06-15.91,3.15-16.41,23.73,0,.5.05,1,0,1.5-.08,4,1.36,5.33,5.48,3.93,7.52-2.56,15.37-4.24,22.73-7.15,6.33-2.49,7.58-.57,7.55,5.5-.18,32.82.08,65.64-.21,98.46-.07,6.92,1.61,10.23,9.08,9.4a64.63,64.63,0,0,1,13.41,0c6.46.61,8.7-1.71,8.61-8.36C566.33,329.13,566.55,306.5,566.55,283.87Zm-84.48,19c-5.95.93-7.73-1.85-7.58-7.64.35-13.18.12-26.35.1-39.53,0-13.44-.24-26.87.11-40.28.15-5.69-1.94-7.49-7.37-7.17a175.2,175.2,0,0,1-17.9,0c-4.43-.2-7.11,1.2-9.59,5.2C422,242.09,404,270.63,385.66,298.9c-4.34,6.66-6.18,13.11-5.19,20.94.72,5.63,2.4,8.16,8.69,8,15.4-.46,30.84.08,46.26-.26,5.94-.14,8.75,1.37,8.25,7.83-.45,5.93.14,11.93-.13,17.88-.24,5.26,2,7.06,7.07,6.8,6-.29,11.95-.22,17.91,0,4.44.14,6.28-1.59,6.13-6.12-.24-6.71.13-13.43-.1-20.15-.15-4.33,1.17-6.13,5.86-6.21,11-.18,11-.43,11-11.37a24.29,24.29,0,0,1,0-3.72C492.62,305,489.78,301.68,482.07,302.87Zm-38.7-3.76c0,2.77-2.08,3.73-4.6,3.74-7.47,0-14.92,0-22.39,0-3.32,0-4.77-1.33-2.72-4.59Q427.32,276.62,441,255l2.4.51C443.41,270,443.46,284.57,443.37,299.11Z"/><path class="cls-30" d="M482.07,302.87c-5.95.93-7.73-1.85-7.58-7.64.35-13.18.12-26.35.1-39.53,0-13.44-.24-26.87.11-40.28.15-5.69-1.94-7.49-7.37-7.17a175.2,175.2,0,0,1-17.9,0c-4.43-.2-7.11,1.2-9.59,5.2C422,242.09,404,270.63,385.66,298.9c-4.34,6.66-6.18,13.11-5.19,20.94.72,5.63,2.4,8.16,8.69,8,15.4-.46,30.84.08,46.26-.26,5.94-.14,8.75,1.37,8.25,7.83-.45,5.93.14,11.93-.13,17.88-.24,5.26,2,7.06,7.07,6.8,6-.29,11.95-.22,17.91,0,4.44.14,6.28-1.59,6.13-6.12-.24-6.71.13-13.43-.1-20.15-.15-4.33,1.17-6.13,5.86-6.21,11-.18,11-.43,11-11.37a24.29,24.29,0,0,1,0-3.72C492.62,305,489.78,301.68,482.07,302.87Zm-38.7-3.76c0,2.77-2.08,3.73-4.6,3.74-7.47,0-14.92,0-22.39,0-3.32,0-4.77-1.33-2.72-4.59Q427.32,276.62,441,255l2.4.51C443.41,270,443.46,284.57,443.37,299.11Z"/><path class="cls-30" d="M566.69,351.74c.09,6.65-2.15,9-8.61,8.36a64.63,64.63,0,0,0-13.41,0c-7.47.83-9.15-2.48-9.08-9.4.29-32.82,0-65.64.21-98.46,0-6.07-1.22-8-7.55-5.5-7.36,2.91-15.21,4.59-22.73,7.15-4.12,1.4-5.56,0-5.48-3.93,0-.5-.05-1,0-1.5.5-20.58-3.52-16.67,16.41-23.73,13.58-4.81,27.09-9.81,40.64-14.71,8.24-3,9.46-2.17,9.48,6.72q.06,33.56,0,67.12C566.55,306.5,566.33,329.13,566.69,351.74Z"/></svg>