<svg id="solderHand-svg" data-name="Layer 1" xmlns="http://www.w3.org/2000/svg" viewBox="0 0 1213.63 1003.44">
<defs>
	<style>
		#solderHand-svg .cls-1{fill:#fefefe;}
		#solderHand-svg .cls-2{fill:var(--accent);}
		#solderHand-svg .cls-3{fill:#a5a5a5;}
		#solderHand-svg .cls-4{fill:#e0c1a7;}
		#solderHand-svg .cls-5{fill:#2c2b2c;}
		#solderHand-svg .cls-6{fill:red;}
	</style>
</defs>
<path class="cls-1" d="M413.87,533.58c-.1.66-.18,1.34-.22,2h0A19.09,19.09,0,0,1,413.87,533.58Z"/><path class="cls-2" d="M1180.53,563.81V911.75a10,10,0,0,1-7-2.07c-6.87-5.74-15.71-6.54-23.82-7.65-7.65-1.06-15.77,1-23.64,2-3.67.48-7.23.83-10.86,0-4.78-1.09-9.07,1.46-13.68,1.91-14.5,1.43-28.82.93-43-2.46-15.46-3.7-30-9.87-44.45-16.35C997.76,879.82,981,873.35,964.74,866a173.31,173.31,0,0,1-24.45-13.89c-7.58-5.05-16.2-8.18-24.32-12.23-9.52-4.74-18-11.2-27.2-16.34a181.21,181.21,0,0,1-46.9-37.8c-8.17-9.13-18.83-12-28.72-17.14q-5.49-2.85-10.89-5.87c-11.76-6.56-22.72-14.3-33.52-22.32-5.47-4.06-12.68-4.62-18.49-8.34-4.16-2.66-9.07-4.2-12.94-7.37-7.58-6.21-17-4.14-25.54-5.94-5-1.06-10.23-1.15-15.19-2.35-10-2.41-20.27-3-30.4-4.52-7.21-1.06-14.43-2.13-21.56-3.56-3.07-.62-5.74-.42-8.11,1-8.33,5-17.88,7-26.51,11.27-4.51,2.23-8.07,4.47-10.92,9.22a39.22,39.22,0,0,1-21.28,17c-11.14,3.88-22.23,6.22-34,4.12-.49-.09-1.32.1-1.44-.13-3.38-6.37-11-7-15.59-11.67-3.7-3.77-7.22-7.76-9.62-12.59-1.3-2.63-2.12-5.35-1.42-8.17a62.7,62.7,0,0,1,3.06-8.86c1.18-2.89,0-6.28,2.32-8.8-1.45-.82-2.62-.86-3.51.08-7.16,7.59-27,4.18-33-5.18-6.88-10.7-13.22-21.36-11.94-34.79-2.46-.5-3.41,2.22-5.48,2.09,1.71-3.18,4.61-5.79,7.91-5,5.84,1.47,8.06.94,12-3.52,3-3.39,5.6-7.08,9.47-9.83,5.25-3.72,11.47-4.86,17-7.78,4.21-2.24,8-5.93,13.43-4.49a82.85,82.85,0,0,0,9.75,2.36c3.33.45,4.32,2.42,5,5.27.69,3.12.24,7.53,5.81,6.38.68-.14,1.11.64,1.1,1.38,0,4.42,1.39,9.68-.51,13.09-4.37,7.85-6.35,17.26-14,23.18a9.26,9.26,0,0,0-3.11,5.73c2.93-.94,5.85-.49,7.27-3.4,2.2-4.46,6-7.12,10-10,6.3-4.53,13.38-8.61,17.29-15.51,2.66-4.69,7-6.35,11.08-7.33a74.48,74.48,0,0,0,12.22-3.84c4.37-1.89,6.86.42,9.43,3.27s.54,5.25-.78,7.62c-1.22,2.19-2.65,4.36-2.4,6.91a66.14,66.14,0,0,0,4.66,17.68,2.9,2.9,0,0,0,1.13,1.44,1.18,1.18,0,0,0,1.62-.7c.74-1.51-.19-4.81,2.1-4.33,3.08.65.08,3.51.65,5.32.14.48.33.94.43,1.43.2.94,0,2.13,1.34,2.36s1.79-.78,2.14-1.7c1.49-3.94,5.4-6.24,6.47-10.64,2.07-8.5,10.62-12.14,15.1-18.91,2.1-3.16,4-2.17,6.33.12,1.35,1.34,3.37,4,5.51.72.6-.91.42-2.47,2.1-2.12,1.89.39,2,2,2,3.53.06,3.71-.28,7.5,2,10.94a6.9,6.9,0,0,0,3-6.15c-.05-1.43-.24-3,1.83-3.57,4.31-1.13,4.41-4.66,3.67-7.91s-.22-6.55-1.31-9.8c-.85-2.53,1.77-2.84,3.64-3.68,2.1-.94-2.94-3.47.56-4.58,2.48-.8,4.06-2.94,7-3.34,6.31-.84,12.61-2.79,18.89-1.33,6.47,1.51,13.49.26,19.53,4.41,1.84,1.26,1.68,4.6,4.92,4.21,2.26-.28,3.25,1.24,3.37,3.4,0,1,0,2.25,1.39,2.21s1.44-1.35,1.24-2.29c-1.81-8.32-3.46-16.7-5.67-24.91-1.14-4.21-4-7.83.76-11.94,1.48-1.29,3.9-.5,4.68-2.6-3.43-1.47-7.29-.7-10.24-2.21-8.95-4.61-18.22-7.45-28.28-6.09a100.12,100.12,0,0,1-14.42.92c-6.25-.06-12.45,1.94-18.71.43-.3-2.24-2.07-1.63-3.46-1.81-4.41-.58-8.81-1.25-13.23-1.77-13.28-1.55-26.49-4-39.95-3.27-4.9-.87-9.46-2.92-14.21-4.19-13.58-3.63-27.8-3.24-41.54-6.35-18.47-4.19-36.6-8.58-49.26-24.29-1.51-1.86-2.59-1.57-4.5-.26C473.58,559,470,563.46,466,567.44c-1.12,1.12-1.79,1.83-3.24.82-3.17-2.21-6.05-4.63-7.38-8.46-.34-1-.85-2,.19-2.68,4.21-2.54,7-6.61,10.65-9.73,4.71-4,8-7.92,5.83-15.54-3.69-12.82-1.38-25.59,4.84-37.53,3.87-7.43,10.8-12.07,16.15-18.13,6.26-7.1,13.75-9.39,22.65-9.11,2,.06,4.26.46,5.9-.33,7.92-3.85,16.7-4.35,24.93-6.88,6.19-1.9,13.06-2,18.75-4.6,8.51-3.9,15.06-11,21.77-17.58,3.22-3.15,5.81-3.72,9.25.08,2.71,3-1.17,3.7-2.61,5.2a13.92,13.92,0,0,0-2.49,3.06c-.65,1.24-3,1.81-2,3.51s2.72.65,4.1.29a190.19,190.19,0,0,1,34.32-5.94c9.28-.7,18.67-2.34,27.85-1.58,17.12,1.41,32.47,9.52,48.48,15.07,6.65,2.31,12.85,6,19.59,8,9.8,2.83,20,4.34,29.84,7,8.24,2.19,16.72,2.48,25,4.05a2.25,2.25,0,0,0,1.75-.49,1.13,1.13,0,0,0-.33-1.73c-5.62-2.5-8.85-8.39-14.14-10.81-5.69-2.59-9.19-7.09-12.94-11.32-3.92-4.41-2-8.16,3.94-8.61,3-.23,1.91-1.54,1.13-2.8-2.42-3.88-4.67-7.72-1-12.11a1.93,1.93,0,0,0,.47-1.39c-1.13-6.52,2.66-11.3,5.88-16.16,2.85-4.29,6.1-8.31,6.61-13.66.2-2.11,3.71-5,.91-5.88-2.5-.81-3.3,3.41-4,5.82-2.94,10.42-10.1,17.89-18.83,22.95-11.87,6.88-25.59,7.41-39.1,7.51-1.67,0-3.77,0-4.31-1.72s1.21-2.86,2.27-4.14c5-6,12.09-8.73,18.7-12.3,2.74-1.48,6.51-.66,8.24-2.69,3.4-4,8-6,12.11-8.75a54.61,54.61,0,0,0,16.71-17.22c2.24-3.7,6.46-5.07,8.65-8.82,8.72-14.88,22-25.87,33.48-38.36,4.2-4.55,9.14-8.51,12.82-13.43,7.9-10.55,17.09-19.82,26.54-28.9,3.14,3.19,7.33,1.56,10.92,2,10.18,1.16,20.36,2.28,30.75,1,11.28-1.37,22.56-3.49,34.12-1.5,13.19,2.26,24.87,7.51,33.5,17.61,11,12.93,21.18,26.63,31.62,40.06,8.44,10.86,16.75,21.82,25.86,32.14,7.14,8.08,14.64,15.89,21.17,24.44,9.75,12.77,20.61,24.59,30.7,37.05,12.29,15.2,25.28,29.83,37.49,45.09,9.87,12.33,20.84,23.66,31.77,34.95a261.24,261.24,0,0,0,37.51,31.74C1173,558.53,1175.62,562.86,1180.53,563.81Z"/><path class="cls-2" d="M693.26,291.68c-5.28,5.85-11.54,10.63-17.28,15.93s-11,11-16.61,16.32q-17,16-34.11,32-20.75,19.35-41.57,38.6-10.74,10-21.54,19.88c-2.74,2.53-4.64,2.63-6.5-1.3-1-2-1.52-6.17-3.82-5.59-2.56.65.31,3.88-.07,6.08s0,3.86-3.42,2.18c-4.9-2.41-5.89,2.61-7,5.38-2.14,5.34-4.21,10.61-7.6,15.33-2.4,3.32-6.86,3-9.59,6a79,79,0,0,0-6,6.86c-2.39,3.29-4.49,7.4-8.45,9.41a22.37,22.37,0,0,0-8.16,7c-2.2,3-6.29,3.82-8.88,6.84-4.35,5.07-9.46,9.45-13.95,14.46s-10,9.3-15,13.9c-4.51,4.11-7.54,9.37-10.73,14.43a118.11,118.11,0,0,0-6.5,11.23c-2.37,4.88-7.66,9-13.11,11.67a4,4,0,0,1-3.38-.13c-5.1-3.41-10.78-2.63-16.38-2.6h0a19.09,19.09,0,0,1,.23-2c.07-.44.15-.87.25-1.3s.21-.85.33-1.27c1.51-5.2,4.87-9.49,8.42-13.56,3.36-3.85,4.1-8.7,5.45-13.12.86-2.82-2.86-6-3.06-9.62-.51-9.3.09-18.33,6.82-25.57,4.69-5.06,6.22-11.9,10.56-17.21,11.95-14.62,20.91-31.19,30.55-47.34,9.3-15.57,22.43-27.61,38.18-36.72,2.56-1.48,4.8-3.5,7.25-5.19a463.31,463.31,0,0,1,46.21-28c9.9-5.23,19.28-11.46,29.27-16.48,8.88-4.46,16.89-10.43,26.09-14.29,11.49-4.83,23.57-6.88,35.86-7.9,10.24-.86,20.28-3,30.41-4.54C688.77,291.15,691,290.55,693.26,291.68Z"/><path class="cls-3" d="M41.81,977.23h0l.24-.07A.84.84,0,0,1,41.81,977.23Zm.88-1.5v0h0v0Zm.05,0h0l.27,0ZM87.6,926.37q-5,5.37-10,10.69,5-5.32,10-10.69l2.63-2.83Zm29.51-31.25a4.24,4.24,0,0,0,.47.76A4.91,4.91,0,0,1,117.11,895.12Zm7.68,5a.82.82,0,0,0,.06.43A1.12,1.12,0,0,1,124.79,900.17Zm.48,1.13-.12-.15.11.15a3.38,3.38,0,0,0,.26.27A3.32,3.32,0,0,1,125.27,901.3Zm6-.82a2.44,2.44,0,0,0,.56-.41A4.75,4.75,0,0,1,131.26,900.48Zm.56-.41A.53.53,0,0,0,132,900h0A.86.86,0,0,1,131.82,900.07Zm-5.23-1.84h0q2.73-2.75,5.47-5.48Zm8.93-1.87c1.63-1.55,3.3-3.05,5-4.54C138.82,893.3,137.15,894.8,135.52,896.36ZM260,766.85,256,770.69q2-1.91,4.05-3.83l2.39-2.3C261.63,765.32,260.83,766.08,260,766.85Zm-1.52,13.71c-.66.62-1.32,1.25-2,1.89l2-1.88,7.68-7.31Zm23.16-21.81q3.9-3.57,7.89-7.07Q285.58,755.16,281.68,758.75Zm23.91-69.14h0l0,0Zm1.11,13.53h0c.34-.47.69-.93,1-1.38C307.38,702.21,307,702.67,306.7,703.14Zm1.14-23.06s0-.09,0-.14a2.32,2.32,0,0,1,0-.38,3.09,3.09,0,0,0,0,1.23c0-.12,0-.21,0-.32A2.6,2.6,0,0,1,307.84,680.08Zm.16,1.35c0-.13-.06-.27-.08-.39s0-.17-.05-.25a6,6,0,0,0,.2,1h0C308.05,681.65,308,681.54,308,681.43Zm1.11-7.35a.51.51,0,0,0,.23.29A.66.66,0,0,1,309.11,674.08Zm2.4,31.36a3.24,3.24,0,0,0-.62,2.93h0A3.32,3.32,0,0,1,311.51,705.44Zm.23-33.6v0c.15-.19.3-.37.46-.55Zm.3,4.53h0l.28,0h0Zm.75-8.55c-.06-.23-.11-.44-.16-.65s-.1-.41-.16-.59a.7.7,0,0,1,.16-.69.7.7,0,0,0-.17.7c.13.4.23.9.37,1.41A1.16,1.16,0,0,0,312.79,667.82Zm.14.51a4.42,4.42,0,0,0,.36.91A5.94,5.94,0,0,1,312.93,668.33Zm2.72,2.45v0h0v0Zm.69,2.42a.7.7,0,0,1-.21,0,.47.47,0,0,0,.21,0l.32-.05ZM318,726.11l-1.74,1.52,1.74-1.51a3.75,3.75,0,0,0,.35-.33Zm1.6-9.17a.69.69,0,0,0,0,.2h0A1.5,1.5,0,0,1,319.62,716.94Zm-.05-57.12c-.16.23-.32.45-.49.67.17-.22.34-.44.5-.67a5.3,5.3,0,0,1,.34-.45A5.37,5.37,0,0,0,319.57,659.82Zm4.09,62.08h0a3.61,3.61,0,0,1,0-1.4,3.46,3.46,0,0,0-.05,1.41,1.08,1.08,0,0,1,.07.31A.81.81,0,0,0,323.66,721.9Zm4.93,6.71a3.54,3.54,0,0,0,1.08-.31A4.33,4.33,0,0,1,328.59,728.61Zm-.81,0h0l4.46-4.66Zm5.27-3-.28.27.28-.26c1.18-1.11,2.36-2.22,3.53-3.35Q334.83,724,333.05,725.61Zm3.08-47.86-12.54,12,12.54-12,.75-.73Zm5.1-8.46c.19.44.39.87.6,1.3h0C341.63,670.16,341.43,669.72,341.23,669.29ZM345.7,710q-4.51,4.63-9,9.31,4.47-4.66,9-9.31Zm2.81-36.75h0a4.57,4.57,0,0,1,.83-.07A4.59,4.59,0,0,0,348.51,673.25Zm.43-2.82c0-.38,0-.76,0-1.14,0-.19,0-.38,0-.57C348.92,669.29,348.94,669.86,348.94,670.43Zm.15,7.3h0l1.1,1.34C349.86,678.67,349.49,678.22,349.09,677.73Zm.66,24.35q-1.62,1.41-3.21,2.87c1.06-1,2.13-1.92,3.21-2.86l.72-.66Zm.74-22.6c.41.52.75,1,1,1.38A15.42,15.42,0,0,0,350.49,679.48Zm3.85,40.79a.89.89,0,0,0,.18.82A.94.94,0,0,1,354.34,720.27Zm.91-47.18a6.16,6.16,0,0,1,3-.29A5.93,5.93,0,0,0,355.25,673.09Zm4.4-.25a7.4,7.4,0,0,1-.27,1.08,6.06,6.06,0,0,0,.28-1.08Zm1.7,18.9c.1.54.2,1.08.29,1.62h0Zm3.48,5c-.34.15-.68.31-1,.48l1-.47.42-.14A3.38,3.38,0,0,0,364.83,696.75Zm8.81,2.38c.51.25,1,.5,1.46.23C374.64,699.62,374.15,699.37,373.64,699.13Z"/><path class="cls-3" d="M394.25,682.71c-4.32-3-8.63-6-12.09-10.09-1.34-1.59-3.26-4.13-4.76.66-.74,2.35-3.5,5.18-7.08,3.6-6-2.65-6.72-6.34-2.06-10.86,3.2-3.1,2.85-5.74-.11-8.55,0,.17.07.35.1.52a7.75,7.75,0,0,1-.07,3.17l-.15.53a7.19,7.19,0,0,1-.4,1,8.48,8.48,0,0,1-.52.93h0a14.55,14.55,0,0,1-1.61,2h0l-.61.63c-.47.47-.95.92-1.43,1.39-.17.15-.33.31-.49.47l-.62.62-.31.32a15.47,15.47,0,0,0-1.38,1.67c-.47.67-1.12,1.1-.93,2,.71.21,1.45.38,2.17.57a11.19,11.19,0,0,1,2.08.75,10,10,0,0,1,1.12.67l.53.41a5.11,5.11,0,0,1,.48.45,4.54,4.54,0,0,1,.41.48,4,4,0,0,1,.35.59l.12.31a1.18,1.18,0,0,1,.08.31.76.76,0,0,1,0,.21,2.14,2.14,0,0,1,0,.71,1.87,1.87,0,0,1-.38.8l-.07.08a1.57,1.57,0,0,1-1,.45,4.12,4.12,0,0,1-.92,0l-.32,0-1-.21-.62-.14c-.59-.12-1.6-.21-1.82.11-.34.5-.7,1-1.07,1.44-.18.23-.36.45-.56.67s-.38.44-.58.66-.53.57-.8.85-.55.55-.83.81l-.85.78h0q-.72.64-1.47,1.26l-1.51,1.21a0,0,0,0,1,0,0l-.92.71-.93.71-1.87,1.42q-1.25.94-2.46,1.92c-.8.66-1.59,1.34-2.36,2s-1.5,1.45-2.2,2.23-1.48,1.63-2.23,2.43c-1.51,1.59-3.06,3.14-4.64,4.68-4,3.83-8.07,7.53-12.05,11.36-.49.47-.91,1-1.4,1.55a5.36,5.36,0,0,1-.43.4l-.24.18a2.94,2.94,0,0,1-.52.3l-.29.11-.24.07-.15,0a2.91,2.91,0,0,1-.6.06h-.09a.69.69,0,0,1,0-.2,2.57,2.57,0,0,1,.06-.85,1.6,1.6,0,0,1,.11-.33,1.15,1.15,0,0,1,.12-.25.41.41,0,0,1,0-.09.87.87,0,0,1,.16-.23.73.73,0,0,1,.14-.18.85.85,0,0,1,.16-.17.69.69,0,0,1,.17-.17,2.5,2.5,0,0,1,.39-.34c.44-.36.91-.68,1.29-1.05,8.71-8.41,17.49-16.76,26.19-25.18,1-1,1.77-1.72,2.38-2.38q.3-.33.54-.63a3.36,3.36,0,0,0,1-2.11c0-.1,0-.2,0-.3a2,2,0,0,0-.05-.24,1.38,1.38,0,0,0-.08-.27,1.17,1.17,0,0,0-.09-.24,3,3,0,0,0-.25-.51,6,6,0,0,0-.34-.56c-.27-.41-.61-.86-1-1.38l-.31-.4-1.1-1.34h0l.25-.13.16-.08a2.23,2.23,0,0,1,.43-.16l.18-.06A8.21,8.21,0,0,1,352,677c.47,0,.95,0,1.43,0,.32,0,.64,0,.95,0l.47,0c.31,0,.62,0,.92-.09a1.47,1.47,0,0,0,.29-.05c.22,0,.44-.09.65-.15a3,3,0,0,0,.42-.15,3.49,3.49,0,0,0,1.11-.69c.11-.1.21-.21.31-.32a2.81,2.81,0,0,0,.38-.55,1.59,1.59,0,0,0,.13-.22l.12-.25a1.42,1.42,0,0,0,.08-.18,3.62,3.62,0,0,0,.13-.35,7.4,7.4,0,0,0,.27-1.08,13.62,13.62,0,0,1-1.42,0,6.16,6.16,0,0,0-3,.29c-2.05,1-4,.1-5.92.1a4.57,4.57,0,0,0-.83.07h0a7.1,7.1,0,0,0,.43-2.82c0-.57,0-1.14,0-1.71,0-.19,0-.38,0-.57s0-.3.07-.45a5.06,5.06,0,0,1,.42-1.32,4.63,4.63,0,0,1,.24-.43c2-3.22,3.22-7.09,5.49-10.08.24-.31.49-.62.75-.91l.41-.43a10.74,10.74,0,0,1,2.06-1.65,8.51,8.51,0,0,1,.89-.5c.39-.19.8-.36,1.22-.52.22-.08.44-.16.67-.22l.7-.19a212.44,212.44,0,0,0-15.12-20.67c3.48,4.94,1.56,8.45-2.91,11.42a6.2,6.2,0,0,0-2.34,3.66c-1.45,4.93-6.15,6.91-10.76,4.93-3.38-1.45-6.44-2.53-9.5,1.31-6.59,8.26-14.76,15-22.76,21.82a75.39,75.39,0,0,0-6.95,7c-1.22,1.36-2.15,3-1.09,5,1.24,2.33,1.91,5.27,3.75,6.93,4.17,3.78,2.37,7.28-.37,10C283.75,713,273.35,722.77,263,732.57c-11.72,11-23.62,21.92-35.31,33-12.63,12-25,24.2-37.65,36.19C175.06,816,160,830,145,844.17,132.5,856,120.1,868,107.58,879.8c-1.38,1.3-1.35,2.85-1.87,4.39-1.79,5.22.64,11.12-3.77,16.08-11.48,12.9-22.45,26.25-33.62,39.42C58.88,950.82,49.48,962,40,973.05c-1.7,2-2.87,3.79-1.2,6.16s4.26,1.73,6.33,1c1.8-.66,3.32-2.16,4.88-3.39,10.07-7.95,20.06-16,30.21-23.87,5.34-4.13,11.36-7.47,16.37-11.95,8.79-7.84,19.37-13.47,27.22-22.41,1.18-1.33,2.39-.4,3.66-.26,5.83.64,11.53,1.09,16.47-3.36,4.15-3.75,8.13-7.68,12.36-11.36,11.5-10,22.24-20.86,33.26-31.4,13.39-12.81,26.71-25.71,40.17-38.46,18-17.08,36.26-34,54.3-51.09,10.52-10,20.67-20.28,31.35-30,4.79-4.37,9.37-9,14.19-13.29,2.09-1.88,3.7-4,7.6-1,7.29,5.62,10.18,5,15.32.18,9.85-9.34,19.69-18.69,29.64-27.91,1.77-1.64,2-2.52.67-4.79-3.59-6-1.22-10.16,5.84-11.12,1.13-.15,2.27,0,2.87-1.42,2-4.75,5.47-6.16,10.29-4.56C400.08,685.58,396.9,684.53,394.25,682.71Zm-48.76-6.65a1.59,1.59,0,0,1-.16.41,2.14,2.14,0,0,1-.28.39,3.33,3.33,0,0,1-.25.28l-.27.27q-15.57,15-31.19,29.87a8.5,8.5,0,0,1-2.44,1.08h0a3.24,3.24,0,0,1,.62-2.93s0,0,0,0l.17-.19.17-.17a.94.94,0,0,1,.18-.17.91.91,0,0,1,.17-.17l.23-.21.29-.26.17-.16c1.82-1.76,3.65-3.53,5.47-5.27.58-.57,1.15-1.13,1.73-1.66q5.11-5,10.25-9.87l.81-.78q3.66-3.53,7.34-7l3.75-3.59.1-.09c.22-.24.44-.57.69-.84l.11-.11a.31.31,0,0,1,.1-.1l.11-.1a.92.92,0,0,1,.25-.15l.17-.07a.85.85,0,0,1,.23,0,1.53,1.53,0,0,1,1,.5A1.23,1.23,0,0,1,345.49,676.06Zm-12.74-20a1.06,1.06,0,0,1,0-.19l.06-.17a.95.95,0,0,1,.14-.24.81.81,0,0,1,.16-.16.74.74,0,0,1,.21-.13h0a1.5,1.5,0,0,1,.44-.12h.37a1.92,1.92,0,0,1,.56.1l.29.1.17.09.2.12a1.4,1.4,0,0,1,.33.31l.14.18a3.31,3.31,0,0,1,.45.83c.13.3.23.63.35,1,.05.14.1.29.16.42a8.49,8.49,0,0,0,.39.8l.23.37q.24.36.51.69t.57.63a9.65,9.65,0,0,0,1.13,1c.25.2.52.38.79.57l.84.53,1.15.71c.53.33,1,.63,1.43.91s.53.36.75.54.32.26.46.38l.2.19.18.18a3,3,0,0,1,.45.63,1,1,0,0,1,.09.21.16.16,0,0,1,0,.09l0,.09a1.18,1.18,0,0,1,0,.2,2.11,2.11,0,0,1,0,.26,2.16,2.16,0,0,1,0,.35,3,3,0,0,1-.09.38c0,.09-.06.18-.1.27a1.69,1.69,0,0,1-.12.28c0,.1-.09.2-.14.3s-.17.31-.27.47-.21.34-.33.52a3.45,3.45,0,0,1-.25.37c-.19.29-.41.59-.65.91l-.41.56-.95,1.26-.5.2-.43.19a10.75,10.75,0,0,0-1.61.94q-.33.23-.66.48l-.57.46c-.28.23-.55.47-.82.72-.45.41-.89.83-1.33,1.26l-.75.73-12.54,12q-6.27,6-12.55,12c-1,1-2,2.39-4.33,1.33h0c.34-.47.68-.93,1.05-1.38l.54-.67c.17-.23.36-.45.55-.66.37-.44.75-.86,1.14-1.28s.77-.83,1.17-1.23l.8-.8q.9-.9,1.8-1.74c1.23-1.17,2.48-2.32,3.7-3.48q.92-.85,1.8-1.74l1.42-1.4,1.42-1.38c1-.93,1.91-1.84,2.87-2.75l1.92-1.82c3.32-3.15,6.65-6.27,9.92-9.46.33-.33.66-.64,1-.93a4.29,4.29,0,0,1,.35-.28,3.47,3.47,0,0,1,.4-.3,3.32,3.32,0,0,1,.41-.28l.25-.15.38-.2a3.49,3.49,0,0,1,.44-.2,5.44,5.44,0,0,1,.68-.23,1.55,1.55,0,0,1,.36-.08,4.8,4.8,0,0,1,.76-.11c-.21-.43-.41-.86-.6-1.3-.6-1.31-1.18-2.64-1.85-3.9-.15-.27-.3-.54-.46-.8a14.49,14.49,0,0,0-1.12-1.65,6.4,6.4,0,0,0-.41-.5.1.1,0,0,0,0-.05,5.11,5.11,0,0,0-.45-.48,7.83,7.83,0,0,0-.9-.83,1.71,1.71,0,0,0-.26-.21c-.2-.16-.41-.31-.63-.46s-.49-.31-.75-.45C332.92,659.17,332.57,657.64,332.75,656.07Zm-20.12,9.82a.32.32,0,0,1,.1-.1.88.88,0,0,1,.24-.19,1.91,1.91,0,0,1,.32-.16l.18-.07.19,0,.2-.05a2,2,0,0,1,.43-.07l.39,0a3.15,3.15,0,0,1,.44,0,3.57,3.57,0,0,1,.57.1l.31.1c0-.18.07-.34.11-.51a1.6,1.6,0,0,1,.11-.33,1.48,1.48,0,0,1,.13-.35,7.31,7.31,0,0,1,.4-.79c.15-.23.3-.47.47-.69s.29-.39.45-.57c.45-.57.95-1.11,1.41-1.68.17-.22.33-.44.49-.67a5.37,5.37,0,0,1,.35-.45,4.83,4.83,0,0,1,.38-.4,4.23,4.23,0,0,1,.4-.34,4,4,0,0,1,.42-.3,3.78,3.78,0,0,1,.43-.26,6.11,6.11,0,0,1,.63-.31c.21-.1.42-.18.64-.26.91-.35,1.85-.6,2.74-1,.21-.09.42-.18.63-.29s.34-.18.51-.28a1.65,1.65,0,0,1,2.11.21,2.66,2.66,0,0,1,.47.6,4.14,4.14,0,0,1,.37.82,4.43,4.43,0,0,0,.3.67c.08.17.18.33.26.48a1.74,1.74,0,0,1,.14.27,1,1,0,0,1,.09.21,1.59,1.59,0,0,1,.07.2,1.42,1.42,0,0,1,.06.58,1.12,1.12,0,0,1-.06.23.78.78,0,0,1-.05.14,1.22,1.22,0,0,1-.15.27.67.67,0,0,1-.11.14,2.09,2.09,0,0,1-.14.17,3,3,0,0,1-.31.3c-3.33,2.89-5.95,6.61-10.08,8.55,0,.12-.05.23-.08.35a2.07,2.07,0,0,1-.1.33,3,3,0,0,1-.16.42l-.09.2c-.07.14-.15.27-.23.41a3.09,3.09,0,0,1-.26.37,2,2,0,0,1-.23.27,2.93,2.93,0,0,1-.42.37,1.94,1.94,0,0,1-.29.21,3.51,3.51,0,0,1-.55.27,3.78,3.78,0,0,1-.6.17l-.32.05a.47.47,0,0,1-.21,0l-.09,0a.21.21,0,0,1-.1-.06.36.36,0,0,1-.12-.15.31.31,0,0,1-.05-.1.83.83,0,0,1,0-.15.88.88,0,0,1,0-.24c-.05-.52,0-1.19,0-1.66h0v0l-.44,0a1.77,1.77,0,0,1-.33-.08,2.52,2.52,0,0,1-.77-.38,2.91,2.91,0,0,1-.27-.24,1.27,1.27,0,0,1-.22-.25,1.87,1.87,0,0,1-.2-.29.81.81,0,0,1-.1-.18.09.09,0,0,1,0-.07,4.42,4.42,0,0,1-.36-.91c0-.11-.07-.22-.1-.33-.14-.51-.24-1-.37-1.41A.7.7,0,0,1,312.63,665.89Zm-.32,10.52h0l-.28,0h0l.17-.25Zm-3.23-2.79a2.15,2.15,0,0,1,.13-.47,2.38,2.38,0,0,1,.2-.39,2.35,2.35,0,0,1,.19-.25l.07-.07a1,1,0,0,1,.19-.16.66.66,0,0,1,.17-.12.61.61,0,0,1,.21-.11,2.74,2.74,0,0,1,.4-.15,3.57,3.57,0,0,1,.47-.11,4,4,0,0,1,.5-.06l.59-.42c-.16.18-.31.36-.46.55s0,.33,0,.49a3,3,0,0,1-.07.45,1.69,1.69,0,0,1-.08.24l-.06.17a1.15,1.15,0,0,1-.14.27,1.39,1.39,0,0,1-.23.31,1.27,1.27,0,0,1-.27.25,1.67,1.67,0,0,1-.56.3,1.89,1.89,0,0,1-.36.11l-.23,0a.64.64,0,0,1-.2,0,.49.49,0,0,1-.18-.08.51.51,0,0,1-.23-.29A.87.87,0,0,1,309.08,673.62Zm-1.18,5.94a1.23,1.23,0,0,1,.11-.34,1.51,1.51,0,0,1,.11-.22,2,2,0,0,1,.17-.23,1.86,1.86,0,0,1,.26-.23,2.23,2.23,0,0,1,.59-.32l.15-.06h0l.27-.09a.51.51,0,0,1,.31,0l.09,0,.08,0c.17.07.31.18.32.26a2.08,2.08,0,0,1,0,.6.25.25,0,0,1,0,.12,2.43,2.43,0,0,1-1,1.48l-.27.22-.28.23-.24.21a5.85,5.85,0,0,0-.52.49h0a6,6,0,0,1-.2-1A3.09,3.09,0,0,1,307.9,679.56Zm-2.31,10.05,13.26-14,13.27-14h0l1.48,1.39c-3.36,3.46-6.72,6.92-10.15,10.33-.7.71-1.42,1.42-2.14,2.11l-2.16,2.1L317,679.67c-1.1,1-2.2,2.06-3.32,3.06L312,684.24c-.56.5-1.13,1-1.7,1.48-.76.66-1.52,1.31-2.29,1.95s-1.55,1.29-2.34,1.91l0,0,0,0ZM113.05,908.3a53.86,53.86,0,0,1-5,5.47l-7.39,6.94-7.42,6.93-7.41,6.92q-3.7,3.45-7.4,6.94c-2,1.85-3.93,3.71-5.88,5.58q-2.1,2-4.19,4c-.77.73-1.53,1.47-2.3,2.22q-2.59,2.5-5.17,5c-.39.39-.79.77-1.19,1.14l-1.2,1.13L55.87,963c-.89.8-1.77,1.61-2.63,2.43-.28.25-.55.51-.82.78s-.79.77-1.18,1.16-.55.55-.81.83c-.43.44-.85.89-1.25,1.35-.27.3-.53.59-.78.9s-.42.49-.62.75-.3.37-.44.56c-.48.62-1,1.26-1.39,1.92a5.41,5.41,0,0,1-.67.83c-.1.11-.21.21-.32.31a3.07,3.07,0,0,1-.35.28,3,3,0,0,1-.43.25,2.26,2.26,0,0,1-.43.17,1.72,1.72,0,0,1-.39.1,1.34,1.34,0,0,1-.35.05l-.27,0a0,0,0,0,0,0,0h0c0,.07,0,.15,0,.22a1.88,1.88,0,0,1-.2.83.33.33,0,0,1-.1.14s0,0-.08.08a.07.07,0,0,1-.06,0,.24.24,0,0,1-.11.06.12.12,0,0,1-.08,0l-.24.07h0s0,0-.05,0a1,1,0,0,1-.18-.11l-.09-.08c-.13-.12-.22-.25-.21-.33a1,1,0,0,1,.07-.28.72.72,0,0,1,.12-.21,1,1,0,0,1,.58-.34,3.7,3.7,0,0,1,.48-.08l.2,0v0h.05a5.54,5.54,0,0,1,.17-.58c0-.13.08-.26.13-.38a1.34,1.34,0,0,1,.07-.18,4.38,4.38,0,0,1,.23-.54,5,5,0,0,1,.26-.52,4.63,4.63,0,0,1,.24-.43c.08-.14.17-.28.26-.42s.3-.46.47-.69c.42-.56.87-1.1,1.34-1.62s1-1,1.43-1.53q5-5.31,10.1-10.59c6.74-7,13.49-14.09,20.18-21.18q5-5.32,10-10.69l2.64-2.83c1.76-1.88,3.54-3.75,5.32-5.6q2.34-2.43,4.7-4.85c2.92-3,5.87-6,8.83-8.94.56-.56,1-.88,1.46-.88l.19,0a.7.7,0,0,1,.19.06,1.46,1.46,0,0,1,.41.24.7.7,0,0,1,.17.14,4.3,4.3,0,0,1,.37.37l.15.17a.81.81,0,0,1,.16.16c.11.13.23.25.34.37l.26.29.14.16.23.3a4,4,0,0,1,.24.38,1.59,1.59,0,0,1,.12.27,1.07,1.07,0,0,1,.09.27s0,0,0,.08a1.53,1.53,0,0,1,0,.3A2.32,2.32,0,0,1,113.05,908.3Zm10.14-11.46c-.18.15-.37.29-.55.42h0l-.44.26-.22.11a2.92,2.92,0,0,1-.46.18l-.23,0-.11,0h-.12l-.3,0a1.24,1.24,0,0,1-.33,0h0a1.83,1.83,0,0,1-.39-.09l-.35-.14a4.51,4.51,0,0,1-.94-.61l-.16-.14-.26-.24a6.73,6.73,0,0,1-.69-.77,4.24,4.24,0,0,1-.47-.76,3.06,3.06,0,0,1-.32-1,.77.77,0,0,1,0-.15.66.66,0,0,1,0-.14,2.54,2.54,0,0,1,0-.55,2.93,2.93,0,0,1,.21-.81,3.52,3.52,0,0,1,.18-.4,1.3,1.3,0,0,1,.14-.26c0-.08.09-.16.14-.24a5.59,5.59,0,0,1,.52-.71,1.24,1.24,0,0,1,.18-.22,11,11,0,0,1,.88-.95l.56-.55c21.31-20.21,42.44-40.62,63.85-60.73,16.82-15.8,33.4-31.87,50-47.92l6.1-5.86q6.12-5.83,12.3-11.61l7.72-7.22q4.56-4.26,9.12-8.55c1.66-1.55,3.32-3.12,5-4.69,1.08-1,2.16-2,3.24-3.08,1.91-1.81,3.81-3.64,5.71-5.47,7.64-7.38,15.3-14.72,23.07-22a10,10,0,0,1,1.87-1.57,1.51,1.51,0,0,1,.26-.12,1,1,0,0,1,.37-.1l.2,0a1.57,1.57,0,0,1,.77.21,2.82,2.82,0,0,1,.55.39h0a2.65,2.65,0,0,1,.29.29,6.53,6.53,0,0,1,.64.76,8.15,8.15,0,0,1,1.67,2.78,2,2,0,0,1-.06,1,1.45,1.45,0,0,1-.11.31h0a2,2,0,0,1-.17.32c-.06.1-.12.2-.19.3l-.17.22a6.23,6.23,0,0,1-.51.58l-.42.42-4.9,4.69c-.7.66-1.39,1.33-2.09,2q-4.47,4.29-8.91,8.63-3.94,3.82-7.87,7.67L279,748.47q-3,3-6.11,5.95-5.24,5.1-10.49,10.14l-2.39,2.3q-2,1.92-4.05,3.83c-1.18,1.12-2.38,2.23-3.57,3.33l-3.6,3.32q-5.4,5-10.83,9.9-2.19,2-4.35,4c-.79.71-1.57,1.43-2.36,2.16q-2.06,1.89-4.1,3.79l-.94.84a3.58,3.58,0,0,0-.29.27l-.4.4-.22.23a4.61,4.61,0,0,0-.46.63l-4.05,3.84-3.43,3.27-10.11,9.59-1.13,1.08-3.1,2.94-.8.76-2.91,2.77-.23.21-17.79,16.89-15.27,14.5-2.64,2.5-3.72,3.54-.05,0-.94.89c-.28.32-.56.66-.85.94l0,0q-8.15,7.83-16.25,15.7T125.3,894.76l-.32.32C124.4,895.67,123.81,896.31,123.19,896.84ZM319.27,724.5a.61.61,0,0,0,0,.12,5.18,5.18,0,0,1-1.2,1.5l-1.74,1.51-2.28,2c-.75.66-1.51,1.33-2.28,2-.5.44-1,.88-1.53,1.31-.71.62-1.43,1.22-2.16,1.81l-1.2,1-1.32,1c-.53.41-1.07.81-1.61,1.21-5.41,4-9.34,9.35-14.33,13.73q-4,3.5-7.89,7.07T273.91,766h0c-2.58,2.42-5.13,4.85-7.7,7.29l-7.68,7.31-2,1.88q-3,2.82-5.92,5.69l-7.85,7.61q-3.93,3.79-7.87,7.57c-2.64,2.51-5.29,5-8,7.48-16.36,15.05-31.78,31.07-48.36,45.9-3,2.67-6,5.32-9,8-1,.86-2,1.73-2.92,2.61l-2.55,2.31-3,2.75c-1,.91-2,1.84-3,2.78s-1.77,1.69-2.65,2.56l-.08.08c-.2.19-.4.38-.59.58s-.3.28-.44.43l-.85.85-.85.86a2.17,2.17,0,0,0-.26.27l-.81.82-1.19,1.19c-1.19,1.18-2.42,2.33-3.66,3.46-.83.75-1.66,1.5-2.5,2.24l-3.79,3.34c-1.68,1.49-3.35,3-5,4.54-.67.64-1.34,1.29-2,2-.33.33-.66.67-1,1l-.59.61h0a.53.53,0,0,1-.14.12,2.44,2.44,0,0,1-.56.41c-.15.09-.3.18-.46.26s-.45.24-.66.37l-.1.07a2.7,2.7,0,0,0-.53.43l-.13.13-.12.12a3,3,0,0,1-1,.62,2.09,2.09,0,0,1-.46.12h0a1.88,1.88,0,0,1-.85-.09l-.18-.07a.11.11,0,0,1-.08,0,1.59,1.59,0,0,1-.29-.15l-.07,0-.08-.05a4.22,4.22,0,0,1-.36-.27,3.61,3.61,0,0,1-.35-.33,3.38,3.38,0,0,1-.26-.27l-.11-.15a1.84,1.84,0,0,1-.17-.25.09.09,0,0,1,0-.06.88.88,0,0,1-.09-.2s0,0,0,0a.82.82,0,0,1-.06-.43,1,1,0,0,1,.11-.38l.13-.2.17-.2.13-.13a2.69,2.69,0,0,1,.32-.27l.5-.39a1.33,1.33,0,0,0,.19-.14,2.84,2.84,0,0,0,.25-.23l5.48-5.48,10.94-11q8.22-8.22,16.42-16.44a1.29,1.29,0,0,1,.18-.16l.08.08L227,801.39c.21-.1.42-.22.62-.34s.46-.26.68-.41l.68-.44c.25-.17.49-.35.73-.53s.36-.26.53-.41a.13.13,0,0,0,.07-.06l.66-.54c.2-.16.39-.33.59-.51.37-.33.75-.67,1.11-1s.69-.67,1-1c1-1,2-2.1,3-3.15l1.2-1.22c.26-.28.53-.54.8-.8,4.79-4.6,9.53-9.23,14.34-13.82q3.6-3.43,7.25-6.82t7.4-6.67c.67-.59,1.34-1.19,2-1.79,1.19-1.08,2.35-2.19,3.5-3.31.6-.58,1.2-1.16,1.79-1.75q1.53-1.5,3-3l2-2,1.62-1.61c.81-.8,1.63-1.6,2.46-2.39l.67-.64.67-.63c.45-.42.9-.84,1.37-1.23l.56-.48c.38-.31.76-.61,1.15-.89.17-.13.35-.25.53-.37a.41.41,0,0,1,.11-.07,4.83,4.83,0,0,1,.56-.36l.06,0,.37-.22c.19-.11.38-.22.57-.31l.59-.29c.2-.1.4-.18.6-.26a6.62,6.62,0,0,1,.62-.24c.23-.09.46-.16.7-.23l.14,0a5.68,5.68,0,0,0,1-.43,4,4,0,0,0,.45-.26,2.18,2.18,0,0,0,.31-.22,1.84,1.84,0,0,0,.22-.17,3.62,3.62,0,0,0,1.19-1.66c.09-.28.18-.55.28-.81s.17-.45.26-.67a2,2,0,0,1,.11-.26c.06-.14.12-.28.19-.41a3.39,3.39,0,0,1,.18-.39l.3-.59a16.73,16.73,0,0,1,1.05-1.74l.35-.51c.12-.17.25-.33.37-.49s.43-.55.65-.82l.42-.49.59-.66c.47-.51,1-1,1.45-1.47s.77-.73,1.17-1.08c1-.87,1.95-1.7,2.95-2.54l1.75-1.48.75-.65c.5-.43,1-.88,1.47-1.33s.95-.92,1.41-1.39.72-.77,1.06-1.17a3.34,3.34,0,0,1,1-.86l.15-.07a1.14,1.14,0,0,1,.27-.08l.25,0a1.21,1.21,0,0,1,.38.06l.27.12.13.07a3.56,3.56,0,0,1,.62.51l.16.16a11.41,11.41,0,0,0,1.1,1.1l.4.33.18.17.17.18a1.8,1.8,0,0,1,.19.21s0,0,0,0a1.63,1.63,0,0,1,.17.22.82.82,0,0,1,.16.22,2.16,2.16,0,0,1,.2.36A2.42,2.42,0,0,1,319.27,724.5Zm48-15.17a3.42,3.42,0,0,1-.21.43,3,3,0,0,1-.21.4,2.48,2.48,0,0,1-.22.38s0,0,0,.05a2,2,0,0,1-.2.34.05.05,0,0,1,0,0l-.21.31a15.15,15.15,0,0,1-1.19,1.55l-.54.58c-.22.24-.45.47-.68.69s-.46.45-.7.66-.47.44-.71.64l-.82.72-1.33,1.13-.49.42-.81.72c-.75.68-1.47,2.24-2.32,3a.83.83,0,0,1-.21.16l-.17.11-.17.07a.19.19,0,0,1-.1,0l-.1,0a1,1,0,0,1-.61-.1,1.2,1.2,0,0,1-.17-.11.77.77,0,0,1-.19-.15.63.63,0,0,1-.13-.11,1.16,1.16,0,0,1-.18-.22.89.89,0,0,1-.18-.82,1.91,1.91,0,0,1,.58-.85c.14-.13.31-.26.48-.39h0l.55-.39h0l.58-.38.28-.19c.19-.13.37-.26.53-.39a4.18,4.18,0,0,0,.43-.39h0q.58-.63,1.2-1.23l.94-.94,1-.92,1.39-1.3c1-.92,2-1.82,3-2.73s1.71-1.55,2.55-2.33A12,12,0,0,1,367.25,709.33ZM375.51,699a1.44,1.44,0,0,1-.41.41c-.46.27-1,0-1.46-.23l-.22-.1-.21-.08-.23-.08a6.1,6.1,0,0,1-.82-.28,8.08,8.08,0,0,1-.8-.35l-.53-.26-1.05-.54-.54-.26-.53-.23-.54-.2c-.19-.06-.37-.11-.56-.15a3.66,3.66,0,0,0-.56-.1l-.23,0a3.64,3.64,0,0,0-.66,0H366l-.27,0a3.73,3.73,0,0,0-.46.09l-.42.14-1,.47-.95.53a21.25,21.25,0,0,0-2.6,1.88c-.54.46-1.06.94-1.57,1.44-1.35,1.3-2.6,2.71-3.89,4.06-.43.45-.86.89-1.3,1.33s-1,1-1.56,1.46-1.19,1-1.78,1.58c-.42.36-.83.73-1.24,1.11l-1.35,1.23-1.15,1.06c-3.32,3.08-6.58,6.24-9.86,9.36-1.17,1.13-2.35,2.24-3.53,3.35l-.28.26c-.46.44-.91.9-1.39,1.31a4.92,4.92,0,0,1-.52.41,1.12,1.12,0,0,1-.22.16,4.66,4.66,0,0,1-.47.3,2.55,2.55,0,0,1-.5.24,3.54,3.54,0,0,1-1.08.31l-.3,0a2.77,2.77,0,0,1-.5,0h0l4.47-4.66,4.48-4.68q4.47-4.66,9-9.31h0q.5-.53,1-1l1.43-1.38c1.44-1.36,2.92-2.68,4.38-4,.49-.44,1-.89,1.46-1.35,1.44-1.36,2.85-2.76,4.16-4.24.63-.71,1.24-1.45,1.82-2.22s1.14-1.57,1.66-2.4c-.09-.54-.19-1.08-.29-1.62-.32.12-.63.26-.92.4l0,0c-.26.12-.51.26-.76.4l-.25.15c-.23.14-.46.28-.68.44a15,15,0,0,0-1.35,1c-.16.14-.32.27-.47.42-.37.32-.73.67-1.08,1l-.37.38c-.29.29-.57.6-.84.91l-.81.91c-1.08,1.23-2.15,2.47-3.32,3.59l-.72.66c-1.08.94-2.15,1.9-3.21,2.86-4.24,3.87-8.33,7.89-12.52,11.8q-1.57,1.47-3.17,2.91c-2.13,1.92-4.3,3.8-6.54,5.59l-.18-.17a1.9,1.9,0,0,1-.25-.35.88.88,0,0,1-.09-.2.49.49,0,0,1-.06-.17.78.78,0,0,1,0-.21,1.1,1.1,0,0,1,0-.18,2.8,2.8,0,0,1,0-.41,1.23,1.23,0,0,1,0-.27,1197259389064.73,1197259389064.73,0,0,1,0-.54,2,2,0,0,0,0-.54,1.08,1.08,0,0,0-.07-.31,3.46,3.46,0,0,1,.05-1.41.48.48,0,0,1,.06-.18.64.64,0,0,1,.06-.18,3.24,3.24,0,0,1,.36-.69,4.61,4.61,0,0,1,.28-.38l.21-.24.37-.37c9.83-9.37,19.58-18.82,29.36-28.23l.46-.45.31-.29a3.12,3.12,0,0,1,1.75-.94,2.4,2.4,0,0,1,1.3.24l3.42,0a.14.14,0,0,0,.08-.09,1.07,1.07,0,0,0,.17-.39,5.91,5.91,0,0,1,.21-.83.71.71,0,0,1,.11-.17l.06,0,.06,0a.41.41,0,0,1,.16,0,1,1,0,0,1,.47.15c.39.2.78.41,1.16.64a1,1,0,0,1,.17.1l.6.35.05,0a1.35,1.35,0,0,1,.22.14.55.55,0,0,1,.17.11.16.16,0,0,1,.1.05c.28.16.56.34.83.52.54.33,1.06.69,1.58,1.06s.92.67,1.37,1l.2.16.66.54a4.36,4.36,0,0,1,.4.35q.39.32.78.69l.46.43c.16.14.31.29.46.45a1.52,1.52,0,0,1,.22.22l.23.23.44.46c.3.32.59.64.86,1,.15.16.29.33.42.5s.28.33.41.5C375.25,697.46,376.06,698.15,375.51,699Z"/><path class="cls-3" d="M446.53,680.75c-3,5.48-5.24,6.36-10.61,4.1a15.9,15.9,0,0,1-3.54-1.79c-3.61-2.75-6.34-1.92-9.21,1.4-2.34,2.72-5.4,4.82-8.08,7.27-4.8,4.39-8.4,3.8-12.26-2.06,1.62-.12,2.86.29,4.59-1.43a39.83,39.83,0,0,1,6.94-5.34c3.08-1.89,4.83-4.48,2.65-8.28a5.55,5.55,0,0,1-.09-6.13c5.22,3.32,9.42,8,15,10.7,3.68,1.75,7.11,5.65,10.16-.72.44-.92,1.64-1.46,3.16-2.75C444.7,678.22,441.09,681.35,446.53,680.75Z"/><path class="cls-3" d="M372,623.35c-1.72,1.89-2.78-.5-4-1.31a30.18,30.18,0,0,1-8.52-8.18c-.87-1.27-1.69-2.21-3.12-1a65.25,65.25,0,0,0-11,11.24c-1,1.41.39,2.52-.09,3.73-3.5-2.43-3.08-5-.35-7.74,3.36-3.44,7-6.62,10-10.35,2.18-2.62,2.78-4.62.91-7.75-1.29-2.18-2.91-4.47-3-7.25,3.53,1,3.27,4.66,4.78,7a124.74,124.74,0,0,0,12.93,17.57C371.31,620.24,373.44,621.78,372,623.35Z"/><path class="cls-3" d="M385.89,562.08c-1.64,6.76-8.48,8.94-12.26,13.86-4.26,5.57-10.93,9-14.43,15.32-.57,1-1.65,1.59-2.44.77-1.89-1.95-2.82.33-4.17.7-1.53-2,.56-3.17,1.43-3.29,4.87-.67,7-4.76,10.07-7.62,5.92-5.56,11.54-11.46,17.36-17.13C382.67,563.51,383.6,561.55,385.89,562.08Z"/><path class="cls-3" d="M400.14,562.81c-.93-.15-2.3-.22-2.83.31-4.79,4.79-5.66-1.25-8.11-2.83l13.33-1.44C403.38,561.15,404.35,563.48,400.14,562.81Z"/><path class="cls-4" d="M746.3,241.17c-.61.6-1.23,1.18-1.87,1.75l-2,1.76Z"/><path class="cls-5" d="M779.9,209,778,211A10.22,10.22,0,0,1,779.9,209Z"/><path class="cls-4" d="M734.86,253.16a1.76,1.76,0,0,1-2.08,1.82,4.46,4.46,0,0,1,0-.65,1.25,1.25,0,0,1,1.1-1.24A3,3,0,0,1,734.86,253.16Z"/><path class="cls-4" d="M851.52,283.9c.06,1.34-.61,1.94-1.93,1.87C849.42,284.32,850,283.65,851.52,283.9Z"/><path class="cls-2" d="M754.94,300.88c-5.67-6.87-12.58-12.52-18.27-19.37-2.41-2.89-5.35-2.13-8.72,1.15,4-.67,6.16,1,7.43,3.39a4.84,4.84,0,0,1-.92,6c-2.78,2.22-1.4-2.69-3.14-2.4-1.7.95-1.3,2.32-1.24,3.65s.24,3.49-1.8,3.41c-1.85-.08-1.74-2.06-1.82-3.56a18.75,18.75,0,0,1,.34-6.13,9.55,9.55,0,0,1,.53-1.4h0l.31-.59c-3.47.58-11,6.87-12,9.84-.39,1.27.06,2.33,1.15,2,5.4-1.48,6.36,3.69,9.14,6a2.91,2.91,0,0,1-.14,4.78c-1.88,1.47-2.94-.13-4.06-1.42-4.51-5.24-4.53-5.23-10.08-1.3-.53.37-1,.77-1.69,1.26,2.19,2.44,4.45,4.65,5.87,7.48.64,1.26.75,2.74-.5,3.64-1.45,1-2.59-.09-3.3-1.21-2.14-3.38-6.18-5.85-5.21-10.76.15-.75.18-1.74-.77-2.15s-1.57.4-2,1c-2.18,3.11-5.49,5.37-7.23,9,5.23,1.1,10.67,4.89,11.27,8.81A11,11,0,0,1,703.35,333c-1.14.83-2.27,1.78-1.14,3.72,3.19,5.51,4.89,5.92,9.66,1.87a9.12,9.12,0,0,1,1.56-1.22c1-.54,2.26-1.09,3.17,0s.26,2.2-.65,3.05c-1.93,1.83-3.71,3.91-5.91,5.34-2.43,1.59-5.2,2.2-7.76-.19-6.45-6-6.49-11-.2-17.11,1-1,3.18-2,2.49-3.33-1.37-2.58-3.14-5.34-5.49-6.89-2.07-1.36-3,1.88-4.37,3.11-3.84,3.54-4.92,3.49-7-.8a5.55,5.55,0,0,1-.48.29c-.32.2-.66.38-1,.56s-.66.38-1,.58a5.39,5.39,0,0,0-1.21,1.06c-3.4,4.31-8.82,6.64-11.4,11.72l.56-.07a7.65,7.65,0,0,0,.83-.18.7.7,0,0,0,.19-.06l.35-.14a1.11,1.11,0,0,0,.19-.09l.25-.16a2.53,2.53,0,0,0,.59-.55,3.76,3.76,0,0,1,1.74-1.28,2,2,0,0,1,1.22,0,1.47,1.47,0,0,1,.36.17l.19.12a2,2,0,0,1,.34.31,1.17,1.17,0,0,1,.26.42,1.41,1.41,0,0,1,0,1,2.92,2.92,0,0,1-.32.67l-.17.26c-.29.4-.62.77-.89,1.09a10.36,10.36,0,0,1-.91,1c-.15.16-.32.31-.48.46a14.89,14.89,0,0,1-2.81,1.94,5.64,5.64,0,0,1-2.42.82.88.88,0,0,1-.29,0,.27.27,0,0,1-.12,0l-.1,0a.53.53,0,0,1-.15-.08.31.31,0,0,1-.09-.07.11.11,0,0,1-.08-.07.24.24,0,0,1-.08-.09,1.77,1.77,0,0,1-.32-.8,5.31,5.31,0,0,1-.06-.83,13.79,13.79,0,0,1,.1-1.49c-3.43,1.18-5.57,3.81-7.26,6.82-1.5,2.69-.78,5.58,1.55,7,6.71,4,11,10.4,16.84,15.26,2.27,1.9,4.65,5.85,8.54,2.23,9-8.37,17.86-16.84,26.86-25.18q18.61-17.26,37.38-34.36C757.35,306,757.69,304.2,754.94,300.88ZM698.73,352.7a4.46,4.46,0,0,1-.07.51,4.35,4.35,0,0,1-.13.58c-.07.28-.16.56-.26.85l-.18.48a16.89,16.89,0,0,1-1.24,2.43c-.18.29-.37.58-.56.86l0,.06c-.18.26-.37.52-.56.77l-.42.54s0,0,0,0c-.15.19-.3.37-.46.54s-.3.35-.46.52-.31.32-.47.48l-.36.35c-.24.22-.47.43-.71.63a10.38,10.38,0,0,1-1,.75,3,3,0,0,1-.34.2,3.91,3.91,0,0,1-1.24.45,3.78,3.78,0,0,1-.56,0,1.9,1.9,0,0,1-.35,0l-.18,0a.13.13,0,0,1-.08,0l-.11,0a.55.55,0,0,1-.15-.08.9.9,0,0,1-.19-.15l-.16-.18v0a1.06,1.06,0,0,1-.11-.21,1.69,1.69,0,0,1-.09-.34,3.45,3.45,0,0,1,0-.85.37.37,0,0,1,0-.11c0-.14.05-.29.08-.44.4-1.75,2.27-2.37,3.13-3.75a2.1,2.1,0,0,1,.42-.48,1.09,1.09,0,0,1,.17-.13,5.27,5.27,0,0,1,.6-.41l.45-.25.37-.22.41-.25a2.31,2.31,0,0,0,.23-.18,1.71,1.71,0,0,0,.2-.18.75.75,0,0,0,.12-.14.24.24,0,0,0,.06-.08.93.93,0,0,0,.11-.19.9.9,0,0,0,.08-.23,1,1,0,0,0,0-.45c0-.07,0-.14,0-.21a1.94,1.94,0,0,0-.17-.45,15.21,15.21,0,0,0-1.07-1.8,14.91,14.91,0,0,0-1.29-1.7A15.09,15.09,0,0,0,691,349c-.25-.24-.51-.48-.78-.71s-.53-.43-.81-.63l-.42-.3a1.25,1.25,0,0,0-1.46-.06,2.21,2.21,0,0,0-.43.34,1.89,1.89,0,0,0-.2.2c-.34.36-.66.79-1,1.19a4.58,4.58,0,0,1-.42.46,2.69,2.69,0,0,1-.68.51c-1.47.75-2.64,3.37-4.47,1.25a1.88,1.88,0,0,1-.18-.24,1.51,1.51,0,0,1-.12-.2,2,2,0,0,1-.1-.21A2.05,2.05,0,0,1,680,349a3.17,3.17,0,0,1,.21-.41,4.56,4.56,0,0,1,.27-.39l.32-.36a4.59,4.59,0,0,1,1.07-.8,10.06,10.06,0,0,0,2.24-1.52q.27-.27.48-.51a3.58,3.58,0,0,0,.54-.9c0-.09.07-.18.1-.26a3.12,3.12,0,0,0,.13-.65,3.17,3.17,0,0,0-.14-1.29,4.36,4.36,0,0,0-.42-1,5.37,5.37,0,0,0-.36-.66c-.15-.25-.32-.5-.49-.75s-.33-.47-.51-.72l-1.08-1.45c-.94-1.26-3.5-2.79-1.49-4.44a3.19,3.19,0,0,1,.55-.38,2.84,2.84,0,0,1,.53-.25l.1,0,.28-.08.27-.06a3.47,3.47,0,0,1,2.53.57,3.54,3.54,0,0,1,.45.34,5.55,5.55,0,0,1,.42.42,3.37,3.37,0,0,1,.3.36.61.61,0,0,1,.07.1l.1.14c.1.14.19.29.28.44a15.35,15.35,0,0,0,1.44,1.93l.51.63a7.27,7.27,0,0,1,.82,1.35,3.44,3.44,0,0,1,.14.37,3.37,3.37,0,0,1,.18.79,3.31,3.31,0,0,1,0,.89,2.94,2.94,0,0,1-.08.49.24.24,0,0,1,0,.08c0,.09,0,.17,0,.25a1.21,1.21,0,0,0,0,.51.49.49,0,0,0,.06.17.39.39,0,0,0,.08.14.52.52,0,0,0,.16.17,1.64,1.64,0,0,0,.26.16l.16.06c.16.06.34.1.51.15a3.45,3.45,0,0,1,.72.27l.1,0a15,15,0,0,1,2.44,2.06c.18.19.36.38.52.57s.33.38.49.58.32.39.46.59q.45.6.84,1.2c.26.4.51.81.74,1.21.13.2.24.41.34.6s.22.4.33.59c.21.4.41.78.59,1.16.1.18.19.37.28.55A5.53,5.53,0,0,1,698.73,352.7Zm37.13-34.63c0,5.34-6.94,12-11.87,11.3a1.17,1.17,0,0,1-.33-.09,1.9,1.9,0,0,1-.28-.1l-.2-.09a5.13,5.13,0,0,1-.67-.37l-.38-.25a3.16,3.16,0,0,1-.39-.28l-.38-.28c-.15-.11-.3-.24-.45-.37l-.43-.36-.53-.48-.63-.6-.08-.07-.54-.56q-.26-.25-.48-.51t-.63-.72a4.7,4.7,0,0,1-.35-.43q-.18-.21-.33-.42a10.25,10.25,0,0,1-1.14-1.8,1,1,0,0,1-.11-.27,1.19,1.19,0,0,1-.08-.22,1.91,1.91,0,0,1-.08-.49c0-.13,0-.26,0-.38a2,2,0,0,1,0-.24,2.87,2.87,0,0,1,.18-.66,3.07,3.07,0,0,1,.2-.36,1.47,1.47,0,0,1,.71-.53,1.39,1.39,0,0,1,.35-.09,2.31,2.31,0,0,1,.37,0,4.13,4.13,0,0,1,1.6.37,2.32,2.32,0,0,1,.41.22,3.37,3.37,0,0,1,.37.29,3.73,3.73,0,0,1,.35.34,14.2,14.2,0,0,0,1.75,1.8,3.25,3.25,0,0,1,.77.87,1.2,1.2,0,0,1,.13.21,3.37,3.37,0,0,1,.19.32c.18.34.35.68.51,1s.23.43.35.62a3.68,3.68,0,0,0,.38.52,1.32,1.32,0,0,0,1.46.41l.51-.18.5-.22q.25-.12.51-.27c.16-.09.33-.19.49-.3a11.47,11.47,0,0,0,1.14-.87c.18-.16.36-.32.53-.49a9.59,9.59,0,0,0,.81-.88,5.43,5.43,0,0,0,.57-.74c.09-.12.17-.25.25-.37a4,4,0,0,0,.24-.38,2.38,2.38,0,0,0,.29-2,2.34,2.34,0,0,0-.27-.58l-.1-.15a2.42,2.42,0,0,0-.27-.36l-.31-.35c-.45-.46-1-.89-1.47-1.32-.17-.15-.33-.29-.48-.44a2,2,0,0,1-.25-.25l-.22-.25a1.14,1.14,0,0,0-.19-.19,1.8,1.8,0,0,0-.2-.19c-.13-.12-.28-.22-.42-.33a1.82,1.82,0,0,1-.23-.15l-.4-.27-.28-.2a4.47,4.47,0,0,1-.4-.34,2.18,2.18,0,0,1-.25-.28l-.11-.16a2.07,2.07,0,0,1-.09-1.92,3.61,3.61,0,0,1,.21-.49,3.23,3.23,0,0,1,.27-.44,2.75,2.75,0,0,1,.22-.26l.17-.18a1.51,1.51,0,0,1,.23-.21l.13-.1a3.48,3.48,0,0,1,.77-.44,2.51,2.51,0,0,1,.46-.16,3.57,3.57,0,0,1,.47-.11,2.64,2.64,0,0,1,1.33.11,2.55,2.55,0,0,1,.69.37l.23.17a4.12,4.12,0,0,1,.43.41,4.94,4.94,0,0,1,.36.44,2.86,2.86,0,0,1,.33.47q.24.36.45.72a19,19,0,0,0,1.11,1.6l.6.78.29.39c.2.26.38.53.55.8,0,0,0,0,0,0a6.39,6.39,0,0,1,.81,1.76,5.07,5.07,0,0,1,.13.56,3,3,0,0,1,.06.43,4.07,4.07,0,0,1,0,.5Zm15.87-11.51c-.07.3-.17.62-.27.91-.88,2.6-3,4-5.12,3.57a5,5,0,0,1-.73-.21h0a4.52,4.52,0,0,1-.74-.35,6.87,6.87,0,0,1-.73-.51l-.84-.65-.42-.28a4.76,4.76,0,0,0-.81-.46h0a3.3,3.3,0,0,0-.85-.25,2.87,2.87,0,0,0-1.29.08,4.43,4.43,0,0,0-.44.14h0l-.47.21a1.71,1.71,0,0,1-2.18-.71,2.84,2.84,0,0,1-.35-1.36,2,2,0,0,1,0-.25.75.75,0,0,1,0-.26,1.32,1.32,0,0,1,.09-.3,1.36,1.36,0,0,1,.13-.24.47.47,0,0,1,.06-.09.87.87,0,0,1,.13-.15.64.64,0,0,1,.15-.13q1.08-.75,2.16-1.47c1.56-1,3.15-2,4.77-3,.64-.39,1.3-.75,2-1.11l.2-.09a2.09,2.09,0,0,1,.43-.11,1.52,1.52,0,0,1,.79.09,1.56,1.56,0,0,1,.52.31,1.79,1.79,0,0,1,.42.51,2.35,2.35,0,0,1,.27.72,2.22,2.22,0,0,1-.11.39,1.55,1.55,0,0,1-.14.29,1.75,1.75,0,0,1-.18.29,1.07,1.07,0,0,1-.14.16,2.68,2.68,0,0,1-.61.49l-.21.12a6.45,6.45,0,0,1-.59.29l-.49.21-.31.15a3.63,3.63,0,0,0-.44.25l-.18.15-.16.16a1,1,0,0,0-.2.35l0,.11a1,1,0,0,0,0,.25,1.33,1.33,0,0,0,0,.38,4,4,0,0,0,.16.43,5.65,5.65,0,0,0,.29.53,3.89,3.89,0,0,0,.28.39,1.46,1.46,0,0,0,.16.19,2.57,2.57,0,0,0,.39.35.86.86,0,0,0,.2.13,1.13,1.13,0,0,0,.28.12,1.7,1.7,0,0,0,.42.06.88.88,0,0,0,.24,0,.76.76,0,0,0,.29-.13l.08-.06a1.21,1.21,0,0,0,.21-.24,2.59,2.59,0,0,0,.19-.33l.12-.29c0-.11.1-.23.14-.34a4.27,4.27,0,0,1,.18-.43,3.07,3.07,0,0,1,.31-.53,1.08,1.08,0,0,1,.18-.24,1.3,1.3,0,0,1,.19-.22.68.68,0,0,1,.12-.12,1.68,1.68,0,0,1,.43-.3l.09,0a1.31,1.31,0,0,1,.94-.06l.12,0,.08,0,.09.05a.81.81,0,0,1,.18.1,1.47,1.47,0,0,1,.61.8,1.59,1.59,0,0,1,.07.38,1.34,1.34,0,0,1,0,.2A3.78,3.78,0,0,1,751.73,306.56Zm-24-21.62-.05.08.13,0Zm-55.1,49.87h0l.06.07h0l.05-.08h0Zm-2,2s0,.07,0,.1l.08,0Z"/><path class="cls-1" d="M634.65,401.55a8.32,8.32,0,0,1-.23,1.08c0,.18-.11.36-.18.55a7.38,7.38,0,0,1-.55,1.23l-.24.41c-2.27.15-3.34,1.09-2.24,3.44a.6.6,0,0,1-.08.08l-.09.09h0c-4.87-1.1-9.59,1.72-14.46.53h0l-.85-.57-.79-.58c-5.45-4.16-6.78-9.12-3.88-14.52s8.9-7.93,13.73-5.28a28.06,28.06,0,0,1,4.35,2.95c.28.23.55.47.82.72s.54.49.79.75.5.52.74.79.47.54.69.82a13.62,13.62,0,0,1,1.43,2.18c.15.3.29.6.43.91h0a9.2,9.2,0,0,1,.6,2.07c0,.14,0,.28,0,.42s0,.27,0,.41a0,0,0,0,1,0,0A7.2,7.2,0,0,1,634.65,401.55Z"/><path class="cls-6" d="M799.32,238.49v.15c0,.06,0,.11,0,.16v0a2.19,2.19,0,0,1,0,.36v0a8.38,8.38,0,0,1-.26,1.38q-.09.34-.21.69a11.32,11.32,0,0,1-1.68,3.08,13,13,0,0,1-1.2,1.38,15.18,15.18,0,0,1-7.68,4.14l-.63.11c-.42.06-.85.1-1.28.12-.23,0-.46,0-.69,0h-.57a5.82,5.82,0,0,1-.73-.08.8.8,0,0,1-.15,0l-.16,0-.1,0-.24-.05a4.6,4.6,0,0,1-.66-.2l-.1,0-.11,0c-.19-.07-.38-.16-.57-.25l-.38-.2a8,8,0,0,1-1.08-.71c-.29-.22-.56-.46-.83-.71s-.52-.52-.76-.81c0,0,0,0,0,0-.19-.23-.37-.47-.55-.71h0a9.93,9.93,0,0,1-.82-1.37c-.05-.1-.1-.2-.14-.3a2.56,2.56,0,0,1-.11-.24h0s0,0,0,0c-.07-.17-.14-.34-.2-.51s-.12-.32-.17-.48a.29.29,0,0,1,0-.09h0c-.06-.2-.11-.39-.16-.59h0a10.56,10.56,0,0,1-.27-1.59,10.14,10.14,0,0,1,0-1.35v0a12.07,12.07,0,0,1,3.92-7.8c.26-.24.52-.47.8-.69a10,10,0,0,1,.84-.61l.43-.28c.29-.18.59-.34.89-.49s.6-.27.91-.39a7.88,7.88,0,0,1,3.12-.52,8.61,8.61,0,0,1,1.48.2l1,.27a13.69,13.69,0,0,1,2,.82c.33.16.66.34,1,.53l.49.29q.72.45,1.38,1c.29.23.58.46.85.7h0c.27.25.53.49.78.74s.25.25.37.38a13.53,13.53,0,0,1,1.24,1.57h0c.09.13.17.27.25.4a3,3,0,0,1,.21.4c.07.13.13.26.19.4a2.75,2.75,0,0,1,.15.36.16.16,0,0,1,0,.09c0,.11.07.22.1.33a1.86,1.86,0,0,1,.1.39A3.93,3.93,0,0,1,799.32,238.49Z"/><path class="cls-1" d="M368.18,661.16l-.15.53a7.19,7.19,0,0,1-.4,1,8.48,8.48,0,0,1-.52.93h0a14.55,14.55,0,0,1-1.61,2h0l-.61.63c-.47.47-.95.92-1.43,1.39-.17.15-.33.31-.49.47l-.62.62-.31.32a15.47,15.47,0,0,0-1.38,1.67c-.47.67-1.12,1.1-.93,2h0l0,.06h0a13.62,13.62,0,0,1-1.42,0,6.16,6.16,0,0,0-3,.29c-2.05,1-4,.1-5.92.1a4.57,4.57,0,0,0-.83.07h0a7.1,7.1,0,0,0,.43-2.82c0-.57,0-1.14,0-1.71,0-.19,0-.38,0-.57s0-.3.07-.45a5.06,5.06,0,0,1,.42-1.32,4.63,4.63,0,0,1,.24-.43c2-3.22,3.22-7.09,5.49-10.08.24-.31.49-.62.75-.91l.41-.43a10.74,10.74,0,0,1,2.06-1.65,8.51,8.51,0,0,1,.89-.5c.39-.19.8-.36,1.22-.52l.67-.22.7-.18a6.51,6.51,0,0,0,.54.51c.28.25.56.49.86.71s.6.46.9.68l.6.45.7.54c.12.09.23.19.34.29s.47.4.69.61a7.24,7.24,0,0,1,1.61,2.22c0,.17.07.35.1.52A8.13,8.13,0,0,1,368.18,661.16Z"/><path class="cls-1" d="M382.36,643.09q0,.39,0,.81c-3.68,3.29-8.88,4.94-10.84,10.08h0c-.28-.07-.54-.15-.8-.24h0c-.25-.08-.5-.16-.73-.25l-.07,0-.68-.28h0l-.31-.15-.3-.15c-.22-.11-.42-.23-.62-.34a7.7,7.7,0,0,1-1.06-.75c-.16-.14-.32-.27-.46-.41-2-1.91-2.32-4.47-.83-7.17h0a9.52,9.52,0,0,1,.64-1,12,12,0,0,1,.81-1l.11-.13h0c.1-.12.19-.24.28-.37l.35-.55a7.5,7.5,0,0,1,1.29-1.73,9.58,9.58,0,0,0,.93-1l.61-.73c1.11-1.35,2.24-2.73,3.85-2.73a3.11,3.11,0,0,1,.59.06,1.77,1.77,0,0,1,.31.08,2.22,2.22,0,0,1,.31.1h0c.44.17.87.36,1.29.56a11.11,11.11,0,0,1,2.88,1.91l.41.41a5.08,5.08,0,0,1,.38.43,3.92,3.92,0,0,1,.25.32l.2.3a2.11,2.11,0,0,1,.21.31,3,3,0,0,1,.19.35c.07.13.13.26.19.39a7.46,7.46,0,0,1,.27.71,8.91,8.91,0,0,1,.29,1.21,4.76,4.76,0,0,1,.08.66A2,2,0,0,1,382.36,643.09Z"/><path class="cls-3" d="M383.73,626.76v.06h0l-.06-.06Z"/><path class="cls-3" d="M413.68,600.15v.05a1.6,1.6,0,0,1-.1.52,6.07,6.07,0,0,1-1.41,1.86l-.15.15-.14.14c-1,1-1.93,2-2.91,2.93-2.92,3-5.86,5.92-8.79,8.89-3.9,3.94-7.79,7.89-11.62,11.9a2.59,2.59,0,0,1-1.92.95,2.31,2.31,0,0,1-.37,0l-.37-.08c-.36-.1-.71-.24-1.07-.37l-.36-.12a2.26,2.26,0,0,0-.37-.11,1.86,1.86,0,0,0-.34-.06h0a6.5,6.5,0,0,1,.35-3,4.4,4.4,0,0,1,.52-1,3.92,3.92,0,0,1,.37-.46,1.45,1.45,0,0,1,.21-.22,2.39,2.39,0,0,1,.23-.22l8.36-7.42,7.41-6.57q2.08-1.86,4.18-3.71l4.18-3.7.22-.21.23-.22c.75-.73,1.57-1.6,2.45-1.4a1.47,1.47,0,0,1,.51.24h0l.25.23a2.62,2.62,0,0,1,.22.25h0A1.34,1.34,0,0,1,413.68,600.15Z"/><path class="cls-3" d="M423.83,602.59a4.26,4.26,0,0,1-1,1.66,6.79,6.79,0,0,1-.78.72l-.52.42-.41.33c-.93.75-1.83,1.51-2.73,2.29l-.4.34-.46.41-.32.28-.3.27-.44.39-.44.39h0l-1.93,1.78c-.65.6-1.29,1.21-1.92,1.81-1.91,1.82-3.8,3.66-5.69,5.49-3,2.94-6.07,5.84-9.27,8.59l-.16.15-.17.17c-.12.13-.25.29-.37.45l-.38.49c-.08.11-.17.21-.26.32-.74.88-1.6,1.53-2.76.49l-.18-.18a1.62,1.62,0,0,1-.58-1.78,2,2,0,0,1,.36-.61l.17-.18.18-.18.11-.1c.57-.5,1.28-.94,1.72-1.37,7.25-7,14.55-14,22-20.79.25-.22.48-.45.72-.7.47-.48.91-1,1.34-1.49.27-.32.53-.65.8-1l.4-.5c.26-.33.53-.68.82-1l.63-.79.67-.8h0a8.08,8.08,0,0,1,.75.86,4.26,4.26,0,0,1,.52.84A3.36,3.36,0,0,1,423.83,602.59Z"/><path class="cls-3" d="M444.32,582.44a1.6,1.6,0,0,1-.77.63l-.29.14-.1,0h0a1.26,1.26,0,0,1-.28-.07h0a.77.77,0,0,1-.19-.08l-.14-.06-.06,0-.27-.15-.06,0-.06,0a4.54,4.54,0,0,1-.44-.28,4.07,4.07,0,0,1-.38-.28l-.12-.08s-.05,0-.07-.06l-.2-.14h0l-.28-.21-.14-.11h0l-.43-.35-.59-.51h0c-.29-.25-.58-.51-.87-.79s-.79-.74-1.18-1.12l-.29-.29-.29-.29-.28-.29-.56-.58c-.19-.2-.37-.4-.53-.59s-.32-.36-.47-.53a1.29,1.29,0,0,0-.16-.17l-.29-.33h0l-.27-.32h0l-.33-.41-.26-.33,0-.06a3.62,3.62,0,0,1-.26-.37l0,0a5.76,5.76,0,0,1-.38-.61l-.07-.14-.06-.13a.76.76,0,0,1,0-.11.56.56,0,0,1,0-.12.14.14,0,0,1,0-.09,0,0,0,0,1,0,0,.13.13,0,0,1,0-.06.11.11,0,0,1,0-.08v0a.07.07,0,0,1,0,0c.23-.42.49-.85.78-1.28a12.66,12.66,0,0,1,1.6-2,7.6,7.6,0,0,1,.74-.66,4,4,0,0,1,2.72-1,7.69,7.69,0,0,1,5.09,2.41c.27.26.52.55.77.84s.63.81.93,1.25a33.54,33.54,0,0,1,2,3.37C448.9,578.77,445.36,580.2,444.32,582.44Z"/><path class="cls-3" d="M412,592.31c-.32.44-.59.88-.87,1.29-.13.19-.26.36-.39.53a.47.47,0,0,0-.06.09c-.15.18-.3.35-.46.51-6,5.89-12,11.74-18.05,17.62l-6,5.9-.27.26a6.37,6.37,0,0,1-1,.93,1.68,1.68,0,0,1-.55.25,1.25,1.25,0,0,1-1.22-.37l-.14-.13a2.35,2.35,0,0,1-.34-.43h0c-.05-.08-.09-.16-.13-.24a.86.86,0,0,1,.26-1,1.43,1.43,0,0,1,.26-.22,12.28,12.28,0,0,0,1.33-.89l5.88-5.81q8.93-8.79,17.87-17.55c.8-.79,1.45-1.94,2.81-1.76a.71.71,0,0,1,.38.23l.13.13.29.32h0C411.78,592.08,411.88,592.2,412,592.31Z"/><path class="cls-3" d="M439,585.48a1.84,1.84,0,0,1-.25.23,5.61,5.61,0,0,1-.55.41l-1,.7c-1,.71-2,1.43-3,2.19-3.73,3-6.44,2.17-8.11-2.36-.27-.71-.57-1.61-.2-2l.05,0a.1.1,0,0,1,.06-.05.67.67,0,0,1,.32-.11h.69a2.93,2.93,0,0,0,2.16-.84,5.59,5.59,0,0,0,.7-.83l.29-.43.33-.49a5.82,5.82,0,0,1,.93-1.1c1.23-1.06,2.42-2.33,4.35-1.33l.34.19a13.41,13.41,0,0,1,3.49,3.78A2.37,2.37,0,0,1,439,585.48Z"/><path class="cls-3" d="M403.42,592h0c-.16.29-.32.57-.49.85s-.31.52-.48.77l0,.06h0c-.18.27-.36.53-.55.79l-.58.77c-.19.24-.38.47-.58.7s-.37.43-.56.63a8.78,8.78,0,0,1-.66.72l-.69.71c-1.5,1.53-3.11,3-4.68,4.42l-1.05,1c-4.92,4.79-10.05,9.37-15.31,13.82q3.08-3.33,6.21-6.62c1-1.1,2.09-2.18,3.15-3.26.53-.54,1.06-1.09,1.6-1.62l1.6-1.6.65-.65,2.59-2.53q1.63-1.57,3.3-3.12t3.37-3.06Q401.8,593.4,403.42,592Z"/><path class="cls-3" d="M403.64,591.83l-.22.19a1.65,1.65,0,0,0,.14-.26Z"/><path class="cls-2" d="M767.16,275.26c.09.24.19.48.3.75-2.23-1.31-4.33-2.54-6.32-1.91l-.37.14a4.45,4.45,0,0,0-1.34.93c-.06.07-.13.13-.2.2l-.19.21a9,9,0,0,0-.85,1.16c.14-3.5,4.66-5.71.53-8.63-.55-.39.7-1.7,1.22-1.31h0l0,0,0,0,.35.42.35.35c2.38,2.19,4.58-.13,7.64-1.7-.38.74-.71,1.37-1,1.94s-.39.8-.54,1.14-.19.45-.27.66-.15.41-.2.59a4.47,4.47,0,0,0-.07,2.43c0,.16.08.32.13.49s.08.25.12.39l.25.71.25.63C767.07,275,767.11,275.14,767.16,275.26Z"/><path class="cls-2" d="M656.9,371.28c.05.17-.51.84-1.38,1.74l-.67.69c-2.64,2.65-7,6.48-7.47,6.48l-.11,0-.24-.07a2.68,2.68,0,0,1-.34-.13l-.16-.13h0a.94.94,0,0,1-.12-.18,1.07,1.07,0,0,1-.09-.19,1.32,1.32,0,0,1,.43-1.37l2-1.87,2-1.86c1.31-1.23,2.64-2.45,4-3.64.57-.5,1.29-.72,1.79-.26a.67.67,0,0,1,.14.15,1.39,1.39,0,0,1,.23.42Q656.86,371.13,656.9,371.28Z"/><path class="cls-1" d="M631,408.43c-.31.36-.62.7-.94,1h0c-.31.31-.64.61-1,.88a11.59,11.59,0,0,1-1,.76,10,10,0,0,1-1,.62,7.35,7.35,0,0,1-1,.48,9,9,0,0,1-1,.34,6.39,6.39,0,0,1-1,.21,7,7,0,0,1-1,.07l-.47,0-.54-.05-.38-.07-.22-.05-.34-.08c-.15-.05-.3-.09-.44-.15a3,3,0,0,1-.38-.15l-.37-.17a6.63,6.63,0,0,1-.81-.48h0l-.35-.26,0,0a3.07,3.07,0,0,1-.29-.24l-.08-.07c-.12-.11-.24-.22-.35-.34a8.56,8.56,0,0,1-1-1.22,4.53,4.53,0,0,1-.3-.46h0C621.44,410.15,626.16,407.33,631,408.43Z"/><path class="cls-3" d="M383.73,626.82l-.11,0h0a.42.42,0,0,1,0-.1l.06.06Z"/><path class="cls-3" d="M387.17,634.31h0l-.55-.11-.2-.06-.17,0-.1,0L386,634a.11.11,0,0,1-.08,0,1.48,1.48,0,0,1-.27-.1l0,0-.29-.14-.11-.05-.1-.06-.1-.06-.07,0a1.5,1.5,0,0,1-.23-.15l-.29-.2a8.17,8.17,0,0,1-.7-.6,11.45,11.45,0,0,1-1.23-1.37c-.39-.49-.75-1-1.12-1.47a10.27,10.27,0,0,1-.7-1.1,11.81,11.81,0,0,0-.68-1.09,2.81,2.81,0,0,0-2.37-1.21h0a2.47,2.47,0,0,1-.52-.05h0a1,1,0,0,1-.33-.12h0l-.11-.09-.07-.09c-.23-.41.32-1.11.55-1.64l.15-.3.16-.23a1.12,1.12,0,0,1,.17-.2.81.81,0,0,1,.27-.17l.14,0a.88.88,0,0,1,.36,0l.22.08a2.59,2.59,0,0,1,.31.19l.16.13a2.74,2.74,0,0,1,.31.29,5.48,5.48,0,0,1,.55.7l.29.45.32.49a3.56,3.56,0,0,0,.53.66l.14.14a3.24,3.24,0,0,0,.31.24,2.31,2.31,0,0,0,.35.18h0a1.36,1.36,0,0,0,.41.09h.48l.26,0a3.62,3.62,0,0,0,.56-.15l-.06.17-.06.17c-.5,1.57.25,2.52,1.2,3.42l.53.49.17.16.36.33A3.92,3.92,0,0,1,387.17,634.31Z"/><path class="cls-3" d="M433.1,551.6h0c-.3-.13-.58-.27-.86-.42s-.55-.31-.82-.47a13.46,13.46,0,0,1-1.5-1.06,14.1,14.1,0,0,1-1.35-1.2,26,26,0,0,1-2.9-3.44c-.35-.49-.7-1-1-1.49s-.51-.75-.75-1.13l-.77-1.14h0a11.74,11.74,0,0,1,2.67,1.14,11.37,11.37,0,0,1,1.49,1.05l.68.59c.22.21.43.42.63.64s.4.44.59.67a26.41,26.41,0,0,1,2.56,3.81C432.21,550,432.66,550.79,433.1,551.6Z"/><path class="cls-5" d="M968,111h0c0,.19,0,.38-.05.56a5.46,5.46,0,0,1,0-.57Z"/><polygon class="cls-3" points="435.94 544.5 435.94 544.51 435.93 544.5 435.94 544.5"/><path class="cls-3" d="M443.51,553.37a5.24,5.24,0,0,1-4.09-1.77l-.27-.36a4.46,4.46,0,0,1-.31-.52l0-.06h0l0-.09c-.09-.17-.17-.35-.25-.53-.16-.36-.29-.74-.43-1.12s-.17-.49-.26-.73-.21-.61-.34-.92c-.06-.15-.11-.3-.18-.44v0c0-.06-.05-.11-.07-.17l-.09-.2-.09-.19c-.06-.13-.13-.26-.2-.38l-.26-.46a7.67,7.67,0,0,0-.64-.89l.46.16a9.48,9.48,0,0,1,1.28.57,9.36,9.36,0,0,1,1.08.65l.32.23a10.58,10.58,0,0,1,.84.75,6.28,6.28,0,0,1,.49.54,15.35,15.35,0,0,1,2.23,4C442.92,552,443.2,552.7,443.51,553.37Z"/><path class="cls-5" d="M1153.38,42.05c-23.69-.3-47.45-1.07-70.76,4.72-9.83,2.44-19.86,4-29.73,6.34-7.09,1.7-13.87,4.26-20.81,6.32-3.09.92-6.3,1.68-9.33,2.85a19.88,19.88,0,0,0-5.12,1,2.41,2.41,0,0,0-.51.25,5.84,5.84,0,0,0-1.33.17c-12.38,3.27-24.1,10.65-35.17,16.91C975.05,83.77,969.53,87,964,90.24l-4.85,2.85c-.18.1-.45.22-.75.35-.93-.93-1.86-1.88-2.82-2.79a48.63,48.63,0,0,0-9.79-9.2,3.94,3.94,0,0,0-1.74-.68,23.63,23.63,0,0,0-5.9-3.55,8.73,8.73,0,0,0-8.91,1.39c-13.57,10.58-27.19,21.1-41,31.35-18.57,13.76-34.91,30-51.72,45.74-11.63,10.89-23.29,21.74-34.71,32.83-2.78,2.71-6.06,5-8.36,8.2a1.79,1.79,0,0,0-1.43,1c-1.49,2.61-4.67,3.83-6.75,5.89-1.81,1.78-3.59,3.62-5.36,5.45L778,211l-1.31,1.33c-2.63,2.66-5.31,5.27-8,7.91l-1.36,1.35-.38.23-1.83,1.12c-3,1.86-6.43,4.14-8,7.43-3.91,3.28-7.2,7.27-10.85,10.84-.61.6-1.23,1.18-1.87,1.75l-2,1.76c-3,2.7-5.88,5.46-8.57,8.41a3,3,0,0,1,1,.07,1.76,1.76,0,0,1-2.08,1.82,4.46,4.46,0,0,1,0-.65c-.92,1-1.79,2.08-2.63,3.16-1.87,1.79-3.74,3.58-5.64,5.34q-15.62,14.44-31.27,28.85c-5.28,5.85-11.54,10.63-17.28,15.93s-11,11-16.61,16.32q-17,16-34.11,32-20.75,19.35-41.57,38.6-10.74,10-21.54,19.88c-2.74,2.53-4.64,2.63-6.5-1.3-1-2-1.52-6.17-3.82-5.59-2.56.65.31,3.88-.07,6.08s0,3.86-3.42,2.18c-4.9-2.41-5.89,2.61-7,5.38-2.14,5.34-4.21,10.61-7.6,15.33-2.4,3.32-6.86,3-9.59,6a79,79,0,0,0-6,6.86c-2.39,3.29-4.49,7.4-8.45,9.41a22.37,22.37,0,0,0-8.16,7c-2.2,3-6.29,3.82-8.88,6.84-4.35,5.07-9.46,9.45-13.95,14.46s-10,9.3-15,13.9c-4.51,4.11-7.54,9.37-10.73,14.43a118.11,118.11,0,0,0-6.5,11.23c-2.37,4.88-7.66,9-13.11,11.67a4,4,0,0,1-3.38-.13c-5.1-3.41-10.78-2.63-16.38-2.6h0A17.36,17.36,0,0,0,410,539a9.52,9.52,0,0,0-.61.9,5.68,5.68,0,0,0-.24,5.49c.11.22.22.45.35.68a12.37,12.37,0,0,0,1.56,2.17c.75.86,1.15,2.22-.15,3-3.22,2.07-4.73,6-8.37,7.59.85,2.3,1.82,4.63-2.39,4-.93-.15-2.3-.22-2.83.31-4.79,4.79-5.66-1.25-8.11-2.83l-3.31,1.79c-1.64,6.76-8.48,8.94-12.26,13.86-4.26,5.57-10.93,9-14.43,15.32-.57,1-1.65,1.59-2.44.77-1.89-1.95-2.82.33-4.17.7l.21,2c3.53,1,3.27,4.66,4.78,7a124.74,124.74,0,0,0,12.93,17.57c.8.87,2.93,2.41,1.49,4-1.72,1.89-2.78-.5-4-1.31a30.18,30.18,0,0,1-8.52-8.18c-.87-1.27-1.69-2.21-3.12-1a65.25,65.25,0,0,0-11,11.24c-1,1.41.39,2.52-.09,3.73a4.75,4.75,0,0,1,1.59,2.94,212.44,212.44,0,0,1,15.12,20.67c.17.18.35.35.54.52s.57.48.86.71.6.46.9.68l.6.45.7.54c.12.09.23.19.34.29s.47.4.69.61a7.24,7.24,0,0,1,1.61,2.22c3,2.81,3.31,5.45.11,8.55-4.66,4.52-3.92,8.21,2.06,10.86,3.58,1.58,6.34-1.25,7.08-3.6,1.5-4.79,3.42-2.25,4.76-.66,3.46,4.1,7.77,7.13,12.09,10.09,2.65,1.82,5.83,2.87,7.5,5.92.35.35.72.69,1.08,1,1.62-.12,2.86.29,4.59-1.43a39.83,39.83,0,0,1,6.94-5.34c3.08-1.89,4.83-4.48,2.65-8.28a5.55,5.55,0,0,1-.09-6.13c5.22,3.32,9.42,8,15,10.7,3.68,1.75,7.11,5.65,10.16-.72.44-.92,1.64-1.46,3.16-2.75-.58,2.5-4.19,5.63,1.25,5,1.1-1.33,2.06-2.85,4-3.18a59.54,59.54,0,0,0,16.26-14.36.44.44,0,0,1,.4-.39c1.71-3.18,4.61-5.79,7.91-5,5.84,1.47,8.06.94,12-3.52,3-3.39,5.6-7.08,9.47-9.83,5.25-3.72,11.47-4.86,17-7.78,4.21-2.24,8-5.93,13.43-4.49a82.85,82.85,0,0,0,9.75,2.36c3.33.45,4.32,2.42,5,5.27.69,3.12.24,7.53,5.81,6.38.68-.14,1.11.64,1.1,1.38,0,4.42,1.39,9.68-.51,13.09-4.37,7.85-6.35,17.26-14,23.18a9.26,9.26,0,0,0-3.11,5.73c2.93-.94,5.85-.49,7.27-3.4,2.2-4.46,6-7.12,10-10,6.3-4.53,13.38-8.61,17.29-15.51,2.66-4.69,7-6.35,11.08-7.33a74.48,74.48,0,0,0,12.22-3.84c4.37-1.89,6.86.42,9.43,3.27s.54,5.25-.78,7.62c-1.22,2.19-2.65,4.36-2.4,6.91a66.14,66.14,0,0,0,4.66,17.68,2.9,2.9,0,0,0,1.13,1.44,1.18,1.18,0,0,0,1.62-.7c.74-1.51-.19-4.81,2.1-4.33,3.08.65.08,3.51.65,5.32.14.48.33.94.43,1.43.2.94,0,2.13,1.34,2.36s1.79-.78,2.14-1.7c1.49-3.94,5.4-6.24,6.47-10.64,2.07-8.5,10.62-12.14,15.1-18.91,2.1-3.16,4-2.17,6.33.12,1.35,1.34,3.37,4,5.51.72.6-.91.42-2.47,2.1-2.12,1.89.39,2,2,2,3.53.06,3.71-.28,7.5,2,10.94a6.9,6.9,0,0,0,3-6.15c-.05-1.43-.24-3,1.83-3.57,4.31-1.13,4.41-4.66,3.67-7.91s-.22-6.55-1.31-9.8c-.85-2.53,1.77-2.84,3.64-3.68,2.1-.94-2.94-3.47.56-4.58,2.48-.8,4.06-2.94,7-3.34,6.31-.84,12.61-2.79,18.89-1.33,6.47,1.51,13.49.26,19.53,4.41,1.84,1.26,1.68,4.6,4.92,4.21,2.26-.28,3.25,1.24,3.37,3.4,0,1,0,2.25,1.39,2.21s1.44-1.35,1.24-2.29c-1.81-8.32-3.46-16.7-5.67-24.91-1.14-4.21-4-7.83.76-11.94,1.48-1.29,3.9-.5,4.68-2.6-3.43-1.47-7.29-.7-10.24-2.21-8.95-4.61-18.22-7.45-28.28-6.09a100.12,100.12,0,0,1-14.42.92c-6.25-.06-12.45,1.94-18.71.43-4.66,0-9.32.22-14,0-16-.89-29.8,4.08-42,14.36a165.93,165.93,0,0,1-21.46,15.39c-3.26,2-3.84.9-5.11-2.14-2.45-5.84-1.26-10.08,3.83-13.61,8.39-5.83,14.47-14.14,22.08-20.81-4.9-.87-9.46-2.92-14.21-4.19-13.58-3.63-27.8-3.24-41.54-6.35-18.47-4.19-36.6-8.58-49.26-24.29-1.51-1.86-2.59-1.57-4.5-.26C473.58,559,470,563.46,466,567.44c-1.12,1.12-1.79,1.83-3.24.82-3.17-2.21-6.05-4.63-7.38-8.46-.34-1-.85-2,.19-2.68,4.21-2.54,7-6.61,10.65-9.73,4.71-4,8-7.92,5.83-15.54-3.69-12.82-1.38-25.59,4.84-37.53,3.87-7.43,10.8-12.07,16.15-18.13,6.26-7.1,13.75-9.39,22.65-9.11,2,.06,4.26.46,5.9-.33,7.92-3.85,16.7-4.35,24.93-6.88,6.19-1.9,13.06-2,18.75-4.6,8.51-3.9,15.06-11,21.77-17.58,3.22-3.15,5.81-3.72,9.25.08,2.71,3-1.17,3.7-2.61,5.2a13.92,13.92,0,0,0-2.49,3.06c-.65,1.24-3,1.81-2,3.51s2.72.65,4.1.29a190.19,190.19,0,0,1,34.32-5.94c9.28-.7,18.67-2.34,27.85-1.58,17.12,1.41,32.47,9.52,48.48,15.07,6.65,2.31,12.85,6,19.59,8,9.8,2.83,20,4.34,29.84,7,8.24,2.19,16.72,2.48,25,4.05a2.25,2.25,0,0,0,1.75-.49,1.13,1.13,0,0,0-.33-1.73c-5.62-2.5-8.85-8.39-14.14-10.81-5.69-2.59-9.19-7.09-12.94-11.32-3.92-4.41-2-8.16,3.94-8.61,3-.23,1.91-1.54,1.13-2.8-2.42-3.88-4.67-7.72-1-12.11a1.93,1.93,0,0,0,.47-1.39c-1.13-6.52,2.66-11.3,5.88-16.16,2.85-4.29,6.1-8.31,6.61-13.66.2-2.11,3.71-5,.91-5.88-2.5-.81-3.3,3.41-4,5.82-2.94,10.42-10.1,17.89-18.83,22.95-11.87,6.88-25.59,7.41-39.1,7.51-1.67,0-3.77,0-4.31-1.72s1.21-2.86,2.27-4.14c5-6,12.09-8.73,18.7-12.3,2.74-1.48,6.51-.66,8.24-2.69,3.4-4,8-6,12.11-8.75a54.61,54.61,0,0,0,16.71-17.22c2.24-3.7,6.46-5.07,8.65-8.82,8.72-14.88,22-25.87,33.48-38.36,4.2-4.55,9.14-8.51,12.82-13.43,7.9-10.55,17.09-19.82,26.54-28.9l5.7-5.59c-.17-1.45.43-2.12,1.93-1.87l23.9-23.27c2.29.41,3.16-1.54,4.4-2.75,7-6.83,13.72-14,21-20.54,13.54-12,26.21-24.94,38.92-37.75,13.79-13.89,26.34-29,39-44l.11-.11a48.79,48.79,0,0,0,9.09-8.18,15.78,15.78,0,0,0,2.08-1.86,8.5,8.5,0,0,0,2-3c1.21-2.85,1-6.21.48-9.21-.62-3.53-2.61-5.49-4.07-8.56-1-2.12-1.31-2.93.14-4.64,1.16-1.36,3.63-2.39,5.13-3.37a5.15,5.15,0,0,0,1.47-1.43l0,0c17.85-10.85,37.25-18.14,57-24.25,16.77-5.18,34.06-8.22,51.48-10.52,2-.27,4.37.11,6.49-.37,1.63,0,3.27-.09,4.9-.25,5.16.33,10.33.62,15.5.64a7.09,7.09,0,0,0,.95.1l21.46.31c3.38,0,6.76.07,10.14.18,2.82.09,5.76.68,8.5-.09,2.94.24,5.91.36,8.82.86v-38C1171.48,43.25,1162.44,42.16,1153.38,42.05ZM435.94,544.5l.46.17a9.48,9.48,0,0,1,1.28.57,9.36,9.36,0,0,1,1.08.65l.32.23a8.63,8.63,0,0,1,.84.75,6.28,6.28,0,0,1,.49.54,15.35,15.35,0,0,1,2.23,4c.28.66.56,1.32.87,2a5.24,5.24,0,0,1-4.09-1.77l-.27-.36a4.46,4.46,0,0,1-.31-.52l0-.06,0-.09c-.09-.17-.17-.35-.25-.53-.16-.36-.29-.74-.43-1.12s-.17-.49-.26-.73-.22-.61-.34-.92c-.06-.15-.11-.3-.18-.44v0c0-.06-.05-.11-.07-.17l-.09-.2-.09-.19c-.06-.13-.13-.26-.2-.38l-.26-.46a7.67,7.67,0,0,0-.64-.89h0Zm-1.67,8.66-.17.23-.06-.28Zm-23.39,38.12a.71.71,0,0,1,.38.23.53.53,0,0,1,.13.13l.29.32h0c.11.11.21.22.33.33h0c-.32.44-.59.88-.87,1.29-.13.18-.25.36-.39.53a.47.47,0,0,0-.06.09c-.15.18-.3.35-.46.51-6,5.89-12,11.74-18.05,17.62l-6,5.9-.27.26a6.37,6.37,0,0,1-1,.93,1.68,1.68,0,0,1-.55.25,1.25,1.25,0,0,1-1.22-.37l-.14-.13a2.35,2.35,0,0,1-.34-.43h0a.94.94,0,0,1-.13-.24.86.86,0,0,1,.26-1,1.43,1.43,0,0,1,.26-.22,12.28,12.28,0,0,0,1.33-.89l5.88-5.81q8.93-8.79,17.87-17.55C408.87,592.25,409.52,591.1,410.88,591.28Zm-4.2-22.19a4.93,4.93,0,0,1,.91.71,4.42,4.42,0,0,1,.57.65,4.26,4.26,0,0,1,.34.49,16.12,16.12,0,0,1,1.69,4.89h0c-.22-.11-.44-.22-.65-.34l-.62-.35a12,12,0,0,1-1.15-.75,8.27,8.27,0,0,1-.66-.51l-.46-.4a.6.6,0,0,1-.08-.08l-.18-.18a.91.91,0,0,1-.17-.17,1,1,0,0,1-.17-.18,1.41,1.41,0,0,1-.17-.18c-.16-.18-.31-.36-.45-.55h0c-.12-.16-.24-.32-.35-.49a2.13,2.13,0,0,1-.16-.25l-.12-.18-.05-.08-.06-.1c-.08-.14-.16-.29-.23-.44a5.94,5.94,0,0,1-.27-.57c-.11-.26-.22-.52-.31-.8a14.09,14.09,0,0,1-.4-1.39A11,11,0,0,1,406.68,569.09ZM384,610.66c1-1.1,2.09-2.18,3.15-3.26.53-.54,1.06-1.09,1.6-1.62l1.6-1.6h0l.65-.64,2.59-2.53q1.63-1.57,3.3-3.12t3.37-3.06q1.59-1.43,3.21-2.8a1.65,1.65,0,0,0,.14-.26h0l.07-.07,0,0a.31.31,0,0,1,.13-.06h0l.63-.74a.6.6,0,0,1,0,.45.16.16,0,0,1,0,.07l0,0-.05,0a1.41,1.41,0,0,1-.38.11l-.14,0-.2.24-.22.19h0c-.15.29-.31.57-.49.85s-.31.52-.48.77l0,.06h0c-.18.27-.36.53-.55.79l-.58.77c-.19.24-.38.47-.58.7s-.36.42-.56.63a8.78,8.78,0,0,1-.66.72,9.17,9.17,0,0,1-.69.71c-1.5,1.53-3.11,3-4.68,4.42l-1.05,1c-4.92,4.79-10.05,9.37-15.31,13.82Q380.82,613.95,384,610.66Zm-11,43.86-.13.06.13-.07h0Zm.19-.14h0l1.27-1.12Zm9.23-10.48c-3.68,3.29-8.88,4.94-10.84,10.08a2.24,2.24,0,0,0,.32.4,1.44,1.44,0,0,1-.33-.39c-.28-.07-.54-.15-.8-.24h0c-.25-.08-.5-.16-.73-.25l-.07,0-.68-.28h0l-.31-.15-.3-.15c-.22-.11-.42-.23-.62-.34a7.7,7.7,0,0,1-1.06-.75c-.16-.14-.32-.27-.46-.41-2-1.91-2.32-4.47-.83-7.17h0a9.52,9.52,0,0,1,.64-1,12,12,0,0,1,.81-1l.11-.13h0c.1-.12.19-.24.28-.37l.35-.55a7.5,7.5,0,0,1,1.29-1.73,9.58,9.58,0,0,0,.93-1l.61-.73c1.11-1.35,2.24-2.73,3.85-2.73a3.11,3.11,0,0,1,.59.06,1.77,1.77,0,0,1,.31.08,2.22,2.22,0,0,1,.31.1h0c.44.17.87.35,1.29.56a11.11,11.11,0,0,1,2.88,1.91,5.29,5.29,0,0,1,.41.41,5.08,5.08,0,0,1,.38.43,3.92,3.92,0,0,1,.25.32l.2.3a2.11,2.11,0,0,1,.21.31,3,3,0,0,1,.19.35c.07.13.13.26.19.39a4.71,4.71,0,0,1,.27.71,5.94,5.94,0,0,1,.29,1.21,4.76,4.76,0,0,1,.08.66,2,2,0,0,1,0,.35,7.09,7.09,0,0,1,0,.8,2.16,2.16,0,0,1,.78.31A2.46,2.46,0,0,0,382.36,643.9Zm2.33-13.27.53.49.17.16.36.33a3.92,3.92,0,0,1,1.42,2.7h0l-.55-.11-.2-.06-.17,0-.1,0L386,634a.11.11,0,0,1-.08,0,1.48,1.48,0,0,1-.27-.1l0,0a1.11,1.11,0,0,1-.29-.14l-.11-.05-.1-.06-.1-.06-.07,0a1.5,1.5,0,0,1-.23-.15l-.29-.2a8.17,8.17,0,0,1-.7-.6,11.45,11.45,0,0,1-1.23-1.37c-.39-.49-.75-1-1.12-1.47a10.27,10.27,0,0,1-.7-1.1,11.81,11.81,0,0,0-.68-1.09,2.81,2.81,0,0,0-2.37-1.21h0a2.47,2.47,0,0,1-.52-.05h0a1,1,0,0,1-.33-.12h0a.35.35,0,0,1-.11-.09.18.18,0,0,1-.07-.09c-.23-.41.32-1.11.55-1.64l.15-.3.16-.23a1.12,1.12,0,0,1,.17-.2.81.81,0,0,1,.27-.17l.14,0a.63.63,0,0,1,.36,0l.22.08a2.59,2.59,0,0,1,.31.19l.16.13a2.74,2.74,0,0,1,.31.29,5.48,5.48,0,0,1,.55.7c.1.14.2.3.29.45l.32.49c.06.08.11.16.17.23a5.12,5.12,0,0,0,.36.43l.14.14a3.24,3.24,0,0,0,.31.24,2.31,2.31,0,0,0,.35.18h0a2.71,2.71,0,0,0,.41.09h.48l.26,0a3.62,3.62,0,0,0,.57-.17.42.42,0,0,1,0-.1h.07a6.5,6.5,0,0,1,.35-3,4.4,4.4,0,0,1,.52-1,3.92,3.92,0,0,1,.37-.46,1.45,1.45,0,0,1,.21-.22,2.39,2.39,0,0,1,.23-.22h0l8.36-7.41,7.41-6.57q2.08-1.86,4.18-3.71l4.18-3.71.22-.2.23-.22c.75-.73,1.57-1.6,2.45-1.4a1.18,1.18,0,0,1,.51.24h0a1.31,1.31,0,0,1,.25.23h0a2.32,2.32,0,0,1,.21.25h0a1.2,1.2,0,0,1,.25.74v.05a1.37,1.37,0,0,1-.1.52,6.07,6.07,0,0,1-1.41,1.86l-.15.15-.14.14c-1,1-1.93,2-2.91,2.93-2.92,3-5.86,5.92-8.79,8.89-3.9,3.94-7.79,7.89-11.62,11.9a2.59,2.59,0,0,1-1.92.95,2.31,2.31,0,0,1-.37,0l-.37-.08c-.36-.1-.71-.24-1.07-.37l-.36-.12a2.26,2.26,0,0,0-.37-.11,1.86,1.86,0,0,0-.34-.06h0v.06l-.11,0h0l-.06.17-.06.17C383,628.78,383.74,629.73,384.69,630.63Zm39.14-28a4.26,4.26,0,0,1-1,1.66,6.79,6.79,0,0,1-.78.72l-.52.42-.41.33c-.93.75-1.83,1.51-2.73,2.29l-.4.34-.46.41-.32.28-.3.27-.44.39-.44.4h0l-1.93,1.78c-.65.6-1.29,1.21-1.92,1.81-1.91,1.82-3.8,3.66-5.69,5.49-3,2.94-6.07,5.84-9.27,8.59l-.16.15-.17.17-.37.45-.38.49c-.08.11-.17.21-.26.32-.74.88-1.6,1.53-2.76.49l-.18-.18a1.62,1.62,0,0,1-.58-1.78,2,2,0,0,1,.36-.61l.17-.18.18-.18.11-.1c.57-.5,1.28-.94,1.72-1.37,7.25-7,14.55-14,22-20.79.25-.22.48-.45.72-.7.47-.48.91-1,1.34-1.49.27-.32.53-.65.8-1l.4-.5c.26-.33.53-.68.82-1l.63-.79.67-.8h0a6.31,6.31,0,0,1,.75.86,4.26,4.26,0,0,1,.52.84A3.36,3.36,0,0,1,423.83,602.59Zm.8-59.06c-.25-.37-.51-.75-.75-1.13l-.77-1.14h0v0a10.64,10.64,0,0,1,2.68,1.16,9.1,9.1,0,0,1,1.49,1.05,7.56,7.56,0,0,1,.68.59c.22.21.43.42.63.64s.4.44.59.67a26.41,26.41,0,0,1,2.56,3.81c.46.8.91,1.62,1.35,2.43h0c-.3-.13-.58-.27-.86-.42s-.55-.31-.82-.47a13.46,13.46,0,0,1-1.5-1.06,14.1,14.1,0,0,1-1.35-1.2,26,26,0,0,1-2.9-3.44C425.31,544.53,425,544,424.63,543.53Zm14.39,42a1.84,1.84,0,0,1-.25.23,5.61,5.61,0,0,1-.55.41l-1,.7c-1,.71-2,1.43-3,2.19-3.73,3-6.44,2.17-8.11-2.36-.27-.71-.57-1.61-.2-2,0,0,0,0,.05,0s0,0,.06-.05a.67.67,0,0,1,.32-.11h.34l.35,0a2.93,2.93,0,0,0,2.16-.84,5.59,5.59,0,0,0,.7-.83l.29-.43.33-.49a5.82,5.82,0,0,1,.93-1.1c1.23-1.06,2.42-2.33,4.35-1.33l.34.19a13,13,0,0,1,3.49,3.78A2.37,2.37,0,0,1,439,585.48Zm5.3-3a1.6,1.6,0,0,1-.77.63l-.29.14-.1,0h0a1.26,1.26,0,0,1-.28-.07h0a.77.77,0,0,1-.19-.08l-.14-.06a2,2,0,0,1-.33-.19l-.06,0-.06,0a4.54,4.54,0,0,1-.44-.28,4.07,4.07,0,0,1-.38-.28l-.12-.08s-.05,0-.07-.06l-.2-.14-.28-.22-.14-.11-.43-.36-.59-.51h0c-.29-.25-.58-.51-.87-.79s-.79-.74-1.18-1.12l-.29-.29-.29-.29-.28-.29-.56-.58c-.19-.2-.37-.4-.53-.59s-.44-.47-.63-.7l-.29-.33h0l-.27-.32h0l-.33-.41-.26-.33,0-.06a3.62,3.62,0,0,1-.26-.37l0,0a5.76,5.76,0,0,1-.38-.61l-.07-.14-.06-.13a.76.76,0,0,1,0-.11.56.56,0,0,1,0-.12.14.14,0,0,1,0-.09,0,0,0,0,1,0,0,.13.13,0,0,1,0-.06.11.11,0,0,1,0-.08v0a.07.07,0,0,1,0,0c.23-.42.49-.85.78-1.28a12.66,12.66,0,0,1,1.6-2,7.6,7.6,0,0,1,.74-.66,4,4,0,0,1,2.72-1,7.69,7.69,0,0,1,5.09,2.41c.27.26.52.55.77.84a14.47,14.47,0,0,1,.93,1.25,33.54,33.54,0,0,1,2,3.37C448.9,578.77,445.36,580.2,444.32,582.44ZM634.65,401.55a6.94,6.94,0,0,1-.23,1.08,2.72,2.72,0,0,1-.18.55,7.38,7.38,0,0,1-.55,1.23c-.07.14-.15.27-.23.41s0,.19.07.28a2.72,2.72,0,0,1,.07,1s0,0,0,.06,0,.06,0,.09a1.07,1.07,0,0,1-.07.27,1,1,0,0,1-.17.38,1.27,1.27,0,0,1-.24.33,2.13,2.13,0,0,1-.31.29,4.61,4.61,0,0,1-1.58.7h0a.6.6,0,0,1-.08.08l-.09.09a13.44,13.44,0,0,1-.95,1h0c-.31.31-.64.61-1,.88a11.59,11.59,0,0,1-1,.76,10,10,0,0,1-1,.62,7.35,7.35,0,0,1-1,.48,9,9,0,0,1-1,.34,6.39,6.39,0,0,1-1,.21,7,7,0,0,1-1,.07l-.47,0-.54-.05-.38-.07-.22-.05-.34-.08c-.15-.05-.3-.09-.44-.15a3,3,0,0,1-.38-.15l-.37-.17a6.63,6.63,0,0,1-.81-.48h0l-.35-.26,0,0a3.07,3.07,0,0,1-.29-.24l-.08-.07a3.73,3.73,0,0,1-.35-.34,8.56,8.56,0,0,1-1-1.22,4.53,4.53,0,0,1-.3-.46l-.85-.57-.79-.58c-5.45-4.16-6.78-9.12-3.88-14.52s8.9-7.93,13.73-5.28a28.06,28.06,0,0,1,4.35,2.95c.28.23.55.47.82.72s.54.49.79.75.51.52.74.79.47.54.69.82a13.62,13.62,0,0,1,1.43,2.18,8.36,8.36,0,0,1,.43.91h0a9.2,9.2,0,0,1,.6,2.07c0,.14,0,.28,0,.42a2.85,2.85,0,0,1,0,.41,0,0,0,0,1,0,0A7.2,7.2,0,0,1,634.65,401.55ZM655.52,373l-.67.69c-2.64,2.65-7,6.48-7.47,6.48l-.11,0-.24-.07a2.68,2.68,0,0,1-.34-.13.51.51,0,0,1-.16-.13h0a.94.94,0,0,1-.12-.18,1.07,1.07,0,0,1-.09-.19,1.32,1.32,0,0,1,.43-1.37h0l2-1.86,2-1.86c1.31-1.23,2.64-2.45,4-3.64.57-.5,1.29-.72,1.79-.26a.67.67,0,0,1,.14.15,1.39,1.39,0,0,1,.23.42q0,.12.09.27C657,371.45,656.39,372.12,655.52,373Zm72.17-88.08a.14.14,0,0,1,.06-.14c0-.21-.06-.41-.1-.61.78.16.28.39.1.61,0,.06,0,.13,0,.2h0l-.13,0,.05-.08Zm26.79,23.7Q735.72,325.72,717.1,343c-9,8.34-17.88,16.81-26.86,25.18-3.89,3.62-6.27-.33-8.54-2.23-5.79-4.86-10.13-11.29-16.84-15.26-2.33-1.38-3.05-4.27-1.55-7,1.69-3,3.83-5.64,7.26-6.82,0,0,0-.07,0-.1h.07c0-.12,0-.24,0-.35a.88.88,0,0,1,0-.16c0-.1,0-.2,0-.3a1.72,1.72,0,0,1,.07-.21.14.14,0,0,1,0-.06.42.42,0,0,1,0-.1,1.24,1.24,0,0,1,.1-.2l0-.05a1,1,0,0,1,.19-.21,1,1,0,0,1,.24-.17l.05,0a1.15,1.15,0,0,1,.28-.09h0a1.61,1.61,0,0,1,.39,0l.4,0v-.06h0l.1,0c2.58-5.08,8-7.41,11.4-11.72a5.39,5.39,0,0,1,1.21-1.06c.3-.2.63-.39,1-.58l1-.56.47-.3h0c2,4.29,3.13,4.34,7,.8,1.35-1.23,2.3-4.47,4.37-3.11,2.35,1.55,4.12,4.31,5.49,6.89.69,1.31-1.48,2.35-2.49,3.33-6.29,6.1-6.25,11.13.2,17.11,2.56,2.39,5.33,1.78,7.76.19,2.2-1.43,4-3.51,5.91-5.34.91-.85,1.56-1.93.65-3.05s-2.13-.58-3.17,0a9.12,9.12,0,0,0-1.56,1.22c-4.77,4.05-6.47,3.64-9.66-1.87-1.13-1.94,0-2.89,1.14-3.72a11,11,0,0,0,4.77-10.93c-.6-3.92-6-7.71-11.27-8.81,1.74-3.64,5-5.9,7.23-9,.44-.63,1-1.47,2-1s.92,1.4.77,2.15c-1,4.91,3.07,7.38,5.21,10.76.71,1.12,1.85,2.24,3.3,1.21,1.25-.9,1.14-2.38.5-3.64-1.42-2.83-3.68-5-5.87-7.48.65-.49,1.16-.89,1.69-1.26,5.55-3.93,5.57-3.94,10.08,1.3,1.12,1.29,2.18,2.89,4.06,1.42a2.91,2.91,0,0,0,.14-4.78c-2.78-2.3-3.74-7.47-9.14-6-1.09.3-1.54-.76-1.15-2,.91-3,8.49-9.26,12-9.84l-.31.59h0a9.55,9.55,0,0,0-.53,1.4,18.75,18.75,0,0,0-.34,6.13c.08,1.5,0,3.48,1.82,3.56,2,.08,1.86-2,1.8-3.41s-.46-2.7,1.24-3.65c1.74-.29.36,4.62,3.14,2.4a4.84,4.84,0,0,0,.92-6c-1.27-2.37-3.38-4.06-7.43-3.39,3.37-3.28,6.31-4,8.72-1.15,5.69,6.85,12.6,12.5,18.27,19.37C757.69,304.2,757.35,306,754.48,308.64Zm11.79-35.95c0,.16.08.32.13.49s.08.25.12.39l.25.71.25.63c.05.11.09.23.14.35s.19.48.3.75c-2.23-1.31-4.33-2.54-6.32-1.91l-.37.14a4.45,4.45,0,0,0-1.34.93c-.06.07-.13.13-.2.2l-.19.21a9,9,0,0,0-.85,1.16c.14-3.5,4.66-5.71.53-8.63-.55-.39.7-1.7,1.22-1.31h0l0,0s0,0,0,0h0l.34.42.35.35c2.38,2.19,4.58-.13,7.64-1.7-.38.74-.71,1.37-1,1.94l-.54,1.14c-.1.24-.19.45-.27.66l-.2.59A4.47,4.47,0,0,0,766.27,272.69Zm33.05-34.05c0,.06,0,.11,0,.16v0a2.19,2.19,0,0,1,0,.36v0a8.38,8.38,0,0,1-.26,1.38q-.09.34-.21.69a11.32,11.32,0,0,1-1.68,3.08,13,13,0,0,1-1.2,1.38,15.18,15.18,0,0,1-7.68,4.14l-.63.11c-.42.06-.85.1-1.28.12-.23,0-.46,0-.69,0h-.57a5.82,5.82,0,0,1-.73-.08.8.8,0,0,1-.15,0,2.78,2.78,0,0,1-.5-.11,4.6,4.6,0,0,1-.66-.2l-.1,0-.11,0c-.19-.07-.38-.16-.57-.25l-.38-.2a8,8,0,0,1-1.08-.71c-.29-.22-.56-.46-.83-.71s-.52-.52-.76-.81c0,0,0,0,0,0a7.48,7.48,0,0,1-.55-.71h0a9.93,9.93,0,0,1-.82-1.37c-.05-.1-.1-.2-.14-.3l-.12-.24s0,0,0,0c-.07-.17-.14-.34-.2-.51s-.12-.32-.17-.48l0-.09c-.06-.2-.11-.39-.16-.59h0a10.56,10.56,0,0,1-.27-1.59,10.14,10.14,0,0,1,0-1.35v0a12.07,12.07,0,0,1,3.92-7.8c.26-.24.52-.47.8-.69a10,10,0,0,1,.84-.61l.43-.28c.29-.18.59-.34.89-.49s.6-.28.91-.39a7.88,7.88,0,0,1,3.12-.52,8.61,8.61,0,0,1,1.48.2l1,.27a13.69,13.69,0,0,1,2,.82c.33.16.66.34,1,.53l.49.29q.72.45,1.38,1c.29.22.57.45.85.7h0c.27.23.53.48.78.74s.25.25.37.38a10.93,10.93,0,0,1,1.24,1.57h0c.09.13.17.27.25.4a3,3,0,0,1,.21.4,2.42,2.42,0,0,1,.19.4,2.75,2.75,0,0,1,.15.36.16.16,0,0,1,0,.09,2.07,2.07,0,0,1,.1.33,1.86,1.86,0,0,1,.1.39,3.31,3.31,0,0,1,.08.82A.92.92,0,0,1,799.32,238.64ZM968,111c0,.19,0,.38-.05.56a5.46,5.46,0,0,1,0-.57h0Zm8.73,11.27-.63-.56c.09-.13.18-.25.26-.38a5.58,5.58,0,0,1,.61.58S976.8,122.15,976.71,122.28Z"/><path class="cls-5" d="M371.84,654.38a1.44,1.44,0,0,1-.33-.39h0A2.24,2.24,0,0,0,371.84,654.38Z"/><path class="cls-5" d="M373,654.51h0l-.13.06.13-.07Z"/><path class="cls-5" d="M374.4,653.25l-1.27,1.13h0Z"/><path class="cls-3" d="M410.19,575.83h0c-.22-.11-.44-.22-.65-.34l-.62-.35a12,12,0,0,1-1.15-.75,8.27,8.27,0,0,1-.66-.51l-.46-.4h0l-.08-.07-.18-.18a.91.91,0,0,1-.17-.17,1,1,0,0,1-.17-.18,1.41,1.41,0,0,1-.17-.18c-.16-.18-.31-.36-.45-.55h0c-.12-.16-.24-.32-.35-.49a2.13,2.13,0,0,1-.16-.25l-.12-.18a.2.2,0,0,1,0-.08h0l-.06-.1c-.08-.14-.16-.29-.23-.44a5.94,5.94,0,0,1-.27-.57c-.11-.26-.22-.52-.31-.8a14.09,14.09,0,0,1-.4-1.39,11,11,0,0,1,3.2,1.25,6.34,6.34,0,0,1,.91.71,4.42,4.42,0,0,1,.57.65c.12.15.23.32.34.49A16.12,16.12,0,0,1,410.19,575.83Z"/><path class="cls-1" d="M633.6,406.14s0,0,0,.06,0,.06,0,.09a1.07,1.07,0,0,1-.07.27,1,1,0,0,1-.17.38,2.52,2.52,0,0,1-.24.33,2.13,2.13,0,0,1-.31.29,4.61,4.61,0,0,1-1.58.7h0c-1.1-2.35,0-3.29,2.24-3.44,0,.1.06.19.08.28A2.72,2.72,0,0,1,633.6,406.14Z"/><path class="cls-4" d="M670.65,336.8v.08l-.07-.07Z"/><path class="cls-4" d="M672.57,334.87c0,1.34-.77,1.79-1.92,1.93,0-.12,0-.24,0-.35a.88.88,0,0,1,0-.16c0-.1,0-.2,0-.3a1.72,1.72,0,0,1,.07-.21.14.14,0,0,1,0-.06.42.42,0,0,1,0-.1,1.24,1.24,0,0,1,.1-.2l0-.05a1,1,0,0,1,.19-.21,1,1,0,0,1,.24-.17l.05,0a1.15,1.15,0,0,1,.28-.09h0a1.61,1.61,0,0,1,.39,0Z"/><path class="cls-4" d="M672.64,334.88h-.07v-.06Z"/><path class="cls-3" d="M403.84,591.59l-.2.24-.08-.07h0l.07-.07,0,0a.31.31,0,0,1,.13-.06Z"/><path class="cls-3" d="M404.5,591.3a.16.16,0,0,1,0,.07l0,0-.05,0a1.41,1.41,0,0,1-.38.11l-.14,0,.63-.74A.6.6,0,0,1,404.5,591.3Z"/><path class="cls-5" d="M977,121.92s-.15.23-.24.36l-.63-.56c.09-.13.18-.25.26-.38A5.58,5.58,0,0,1,977,121.92Z"/><path class="cls-5" d="M968,111a5.46,5.46,0,0,0,0,.57c0-.18,0-.37.05-.56h0ZM785.08,250.1a7.22,7.22,0,0,1-1-.14l.16,0a.8.8,0,0,0,.15,0,5.82,5.82,0,0,0,.73.08h.57Zm-2.14-.45.1,0a4.6,4.6,0,0,0,.66.2l.24.05A7.12,7.12,0,0,1,782.94,249.65Zm-2.14-1.2a8,8,0,0,0,1.08.71A10.56,10.56,0,0,1,780.8,248.45Zm-3.21-4.16c-.08-.19-.16-.37-.23-.56.06.17.13.34.2.51,0,0,0,0,0,0l.12.24A2.56,2.56,0,0,1,777.59,244.29Zm-.42-1.13c-.06-.2-.12-.39-.17-.59,0,.2.1.39.16.59l0,.09c0,.16.11.32.17.48C777.29,243.54,777.23,243.35,777.17,243.16Zm-43.27,9.93c-.38.41-.75.82-1.1,1.24a4.46,4.46,0,0,0,0,.65,1.76,1.76,0,0,0,2.08-1.82A3,3,0,0,0,733.9,253.09Zm-6.25,31.1c0,.2.07.4.1.61C727.93,284.58,728.43,284.35,727.65,284.19Zm.1.61a.14.14,0,0,0-.06.14h0l-.05.08.13,0h0C727.78,284.93,727.76,284.86,727.75,284.8Zm-55.15,50h0v.06h.08l.05-.08h0Zm-2,2s0,.07,0,.1l.08,0v-.08Zm-54,72.15h0a4.53,4.53,0,0,0,.3.46C616.76,409.27,616.66,409.12,616.57,409Zm-.86-.57.85.57h0ZM443.26,583.21l.29-.14ZM440.87,582l-.42-.33-.43-.35.43.36.14.11.28.22.2.14Zm.39.29a4.07,4.07,0,0,0,.38.28,4.54,4.54,0,0,0,.44.28l.06,0C441.88,582.68,441.59,582.48,441.26,582.25Zm1.61,1a1.26,1.26,0,0,0,.28.07h0A1.25,1.25,0,0,1,442.87,583.2Zm-4.06-32.54-.05-.09,0,.09,0,.06Zm-2.88-6.16h0ZM434.24,589c1-.76,2-1.48,3-2.19C436.19,587.52,435.2,588.24,434.24,589Zm-.2-35.9.06.28.17-.23Zm-1.8-1.92c.28.15.56.29.86.42h0ZM432.7,573a.13.13,0,0,0,0,.06.32.32,0,0,1,0-.14A.11.11,0,0,0,432.7,573Zm0-.15a.07.07,0,0,0,0,0s0,0,0,0c.23-.42.49-.85.77-1.28C433.22,572,433,572.4,432.73,572.82Zm0,.24a.14.14,0,0,0,0,.09.56.56,0,0,0,0,.12C432.75,573.19,432.73,573.12,432.72,573.06Zm-9.59-31.79h0l.77,1.14C423.63,542,423.39,541.64,423.13,541.27ZM422.07,605l-.52.43.52-.42a6.79,6.79,0,0,0,.78-.72A7.76,7.76,0,0,1,422.07,605Zm-6,5.13h0l.44-.4Zm6.25-11.74-.67.8-.63.79c.41-.52.85-1.05,1.31-1.58Zm-10.42,4.51h0l.14-.14A.83.83,0,0,0,411.88,602.86Zm-2.34-27.36c.21.12.43.23.65.34h0Zm-4.78-4.36q-.17-.27-.3-.54c.07.15.15.3.23.44l.06.1.05.08.12.18Zm1.89,2.34-.08-.07a.6.6,0,0,0,.08.08l.46.4C407,573.76,406.8,573.62,406.65,573.48ZM393,629.66a1.64,1.64,0,0,1-.59-1.78,1.62,1.62,0,0,0,.58,1.78l.18.18Zm-6.79-11.42-.27.27.27-.26,6-5.9Zm-.52,15.63,0,0a1.48,1.48,0,0,0,.27.1Zm.77.28.2.06.55.11h0C386.91,634.27,386.66,634.21,386.42,634.15Zm-1.57-14.71a6.37,6.37,0,0,0,1-.93A8.76,8.76,0,0,1,384.85,619.44Zm-1.9-.26c-.14-.15-.25-.29-.35-.42a2.35,2.35,0,0,0,.34.43l.14.13Zm.77,7.63-.1,0h0l.11,0h0Zm-3.69.73a11.81,11.81,0,0,1,.68,1.09A8.66,8.66,0,0,0,380,627.54Zm-2.9-1.26a2.47,2.47,0,0,0,.52.05A3.39,3.39,0,0,1,377.13,626.28Zm.17-2.24-.15.3c-.23.53-.78,1.23-.55,1.64-.23-.41.33-1.11.56-1.64C377.21,624.23,377.25,624.13,377.3,624Zm-4.17,30.33h0l1.27-1.13Zm-.19.14-.13.07.13-.06h0Zm-1.42-.53h0l-.8-.23c.26.09.52.17.8.24a1.44,1.44,0,0,0,.33.39A2.24,2.24,0,0,1,371.52,654Zm-2.65-1,.31.15h0Zm-2-1.24a7.7,7.7,0,0,0,1.06.75A9.91,9.91,0,0,1,366.89,651.79Zm.17-9.63a12,12,0,0,0-.81,1c.25-.34.52-.68.82-1a1.13,1.13,0,0,0,.1-.13Z"/><path class="cls-5" d="M437.44,547.15c0-.06-.05-.12-.07-.17a1,1,0,0,0-.07-.15c.07.14.12.29.18.44A.56.56,0,0,0,437.44,547.15Zm-64.5,107.36h0Z"/><polygon class="cls-4" points="434.27 553.16 434.1 553.39 434.04 553.11 434.27 553.16"/><path class="cls-4" d="M727.79,285h0l-.08-.06h0a.14.14,0,0,1,.06-.14C727.76,284.86,727.78,284.93,727.79,285Z"/><path class="cls-4" d="M727.75,284.8c0-.21-.06-.41-.1-.61C728.43,284.35,727.93,284.58,727.75,284.8Z"/><path class="cls-1" d="M312.24,715.64c0,.1-.07.2-.11.31h0a3.37,3.37,0,0,1-.17.32c-.06.1-.12.2-.19.3l-.17.22a6.23,6.23,0,0,1-.51.58l-.42.42-4.9,4.69c-.7.66-1.39,1.33-2.09,2q-4.47,4.29-8.91,8.63-3.94,3.82-7.87,7.67L279,748.47q-3,3-6.11,5.95-5.24,5.1-10.49,10.14c-.8.76-1.6,1.52-2.39,2.29L256,770.69c-1.18,1.12-2.38,2.23-3.57,3.33l-3.6,3.32q-5.4,5-10.83,9.9c-1.45,1.31-2.9,2.64-4.35,4-.79.71-1.57,1.43-2.36,2.16q-2.06,1.89-4.1,3.79l-.94.84a3.58,3.58,0,0,0-.29.27,3.78,3.78,0,0,0-.4.4l-.22.23a4.61,4.61,0,0,0-.46.63l-4.05,3.84-3.43,3.27-10.11,9.59-1.13,1.08-3.1,2.94-.8.76-2.91,2.77-.23.21-17.79,16.89-15.27,14.5-2.64,2.5-3.72,3.54-.05,0-.94.89c-.28.32-.56.66-.85.94l0,0q-8.15,7.83-16.25,15.7T125.3,894.76l-.32.32c-.58.59-1.17,1.23-1.79,1.76-.18.15-.37.29-.55.42h0l-.44.26-.22.11a2.92,2.92,0,0,1-.46.18l-.23,0-.11,0h-.12l-.3,0a1.24,1.24,0,0,1-.33,0h0a1.83,1.83,0,0,1-.39-.09l-.35-.14a4.51,4.51,0,0,1-.94-.61l-.16-.14-.26-.24a6.73,6.73,0,0,1-.69-.77,4.91,4.91,0,0,1-.47-.76,3.06,3.06,0,0,1-.32-1,.77.77,0,0,1,0-.15.66.66,0,0,1,0-.14,2.54,2.54,0,0,1,0-.55,2.93,2.93,0,0,1,.21-.81,3.52,3.52,0,0,1,.18-.4,1.3,1.3,0,0,1,.14-.26c0-.08.09-.16.14-.24a5.59,5.59,0,0,1,.52-.71,1.24,1.24,0,0,1,.18-.22,11,11,0,0,1,.88-.95l.56-.55c21.31-20.21,42.44-40.62,63.85-60.73,16.82-15.8,33.4-31.87,50-47.92l6.1-5.86q6.12-5.83,12.3-11.61l7.72-7.22q4.56-4.26,9.12-8.55c1.66-1.55,3.32-3.12,5-4.69,1.08-1,2.16-2,3.24-3.08,1.91-1.81,3.81-3.64,5.71-5.47,7.64-7.38,15.3-14.72,23.07-22a10,10,0,0,1,1.87-1.57,1.51,1.51,0,0,1,.26-.12,1,1,0,0,1,.37-.1l.2,0a1.57,1.57,0,0,1,.77.21,2.82,2.82,0,0,1,.55.39h0l.29.29a7.93,7.93,0,0,1,.63.77,8.45,8.45,0,0,1,1.68,2.77A2,2,0,0,1,312.24,715.64Z"/><path class="cls-1" d="M117.58,895.88a4.24,4.24,0,0,1-.47-.76A4.91,4.91,0,0,0,117.58,895.88Z"/><path class="cls-1" d="M262.43,764.56l-2.39,2.3q-2,1.92-4.05,3.83l4.05-3.84C260.83,766.08,261.63,765.32,262.43,764.56Z"/><path class="cls-5" d="M319.27,724.5a.61.61,0,0,0,0,.12,3.76,3.76,0,0,1-.85,1.17l-.35.32-1.74,1.52-2.28,2c-.75.66-1.51,1.33-2.28,2-.5.44-1,.88-1.53,1.31-.71.62-1.43,1.22-2.16,1.81l-1.2,1-1.32,1c-.53.41-1.07.81-1.61,1.21-5.41,4-9.34,9.35-14.33,13.73q-4,3.48-7.89,7.07T273.91,766h0c-2.58,2.42-5.13,4.85-7.7,7.29l-7.68,7.3c-.66.62-1.32,1.25-2,1.89q-3,2.82-5.92,5.69l-7.85,7.61q-3.93,3.79-7.87,7.57c-2.64,2.51-5.29,5-8,7.48-16.36,15.05-31.78,31.07-48.36,45.9-3,2.67-6,5.32-9,8-1,.86-2,1.73-2.92,2.61l-2.55,2.31c-1,.91-2,1.82-3,2.75s-2,1.84-3,2.78-1.77,1.69-2.65,2.56l-.08.08c-.2.19-.4.38-.59.58s-.3.28-.44.43l-.85.85-.85.86a2.17,2.17,0,0,0-.26.27c-.29.27-.55.55-.82.82s-.78.8-1.18,1.19c-1.19,1.18-2.42,2.33-3.66,3.46-.83.75-1.66,1.5-2.5,2.24l-3.79,3.34c-1.68,1.48-3.35,3-5,4.54-.67.64-1.34,1.29-2,2-.33.33-.66.67-1,1l-.59.61a.86.86,0,0,1-.14.13,4.75,4.75,0,0,1-.56.41c-.15.09-.3.18-.46.26s-.45.24-.66.37l-.1.07a2.7,2.7,0,0,0-.53.43h0l-.12.13-.12.12a3,3,0,0,1-1,.62,2.6,2.6,0,0,1-.46.12h0a1.88,1.88,0,0,1-.85-.09l-.18-.07a.11.11,0,0,1-.08,0,1.59,1.59,0,0,1-.29-.15l-.07,0-.08-.05a4.22,4.22,0,0,1-.36-.27,3.61,3.61,0,0,1-.35-.33,3.32,3.32,0,0,1-.25-.27l-.12-.15a1.84,1.84,0,0,1-.17-.25.09.09,0,0,1,0-.06.88.88,0,0,1-.09-.2s0,0,0,0a1.12,1.12,0,0,1-.06-.43,1,1,0,0,1,.11-.38l.13-.2.17-.2.13-.13a2.69,2.69,0,0,1,.32-.27l.5-.39a1.33,1.33,0,0,0,.19-.14,2.84,2.84,0,0,0,.25-.23h0q2.73-2.75,5.47-5.48l10.94-11q8.22-8.22,16.42-16.44a1.29,1.29,0,0,1,.18-.16l.08.08L227,801.39c.21-.1.42-.22.62-.34s.46-.26.68-.41l.68-.44c.25-.17.49-.35.73-.53s.36-.26.53-.41a.13.13,0,0,0,.07-.06c.23-.17.44-.35.66-.54s.39-.33.59-.51c.37-.33.75-.67,1.11-1s.7-.67,1-1c1-1,2-2.1,3-3.15l1.2-1.22c.26-.28.53-.54.8-.8,4.79-4.6,9.53-9.23,14.34-13.82q3.6-3.43,7.25-6.82t7.4-6.67c.67-.59,1.34-1.19,2-1.79,1.19-1.08,2.35-2.19,3.5-3.31.6-.58,1.2-1.16,1.79-1.75q1.53-1.5,3-3l2-2,1.62-1.61c.81-.8,1.63-1.6,2.46-2.39l.67-.64.67-.63c.45-.42.9-.84,1.37-1.23l.56-.48c.38-.31.76-.61,1.15-.89.17-.13.35-.25.53-.37a.41.41,0,0,1,.11-.07,6.65,6.65,0,0,1,.56-.36l.06,0,.37-.22c.19-.11.38-.22.57-.31l.59-.29c.2-.1.4-.18.6-.26a6.62,6.62,0,0,1,.62-.24l.69-.22.15-.05a5.68,5.68,0,0,0,1-.43,4,4,0,0,0,.45-.26,2.18,2.18,0,0,0,.31-.22,1.84,1.84,0,0,0,.22-.17,3.62,3.62,0,0,0,1.19-1.66c.09-.28.18-.55.28-.81s.17-.45.26-.67a2,2,0,0,1,.11-.26c.06-.14.12-.28.19-.41a3.39,3.39,0,0,1,.18-.39l.3-.59a16.73,16.73,0,0,1,1.05-1.74l.35-.51c.12-.17.25-.33.37-.49s.43-.55.65-.82l.42-.49.59-.66c.47-.51,1-1,1.45-1.47s.77-.73,1.17-1.08c1-.87,1.95-1.7,2.95-2.54l1.75-1.48.75-.65c.5-.43,1-.88,1.47-1.33s.95-.92,1.41-1.39.72-.77,1.06-1.17a3.34,3.34,0,0,1,1-.86l.15-.07a1.14,1.14,0,0,1,.27-.08l.25,0a1.21,1.21,0,0,1,.38.06l.27.12.13.07a3.56,3.56,0,0,1,.62.51l.16.16a11.41,11.41,0,0,0,1.1,1.1l.4.33.18.17.17.18a1.8,1.8,0,0,1,.19.21s0,0,0,0a1.63,1.63,0,0,1,.17.22.82.82,0,0,1,.16.22,2.16,2.16,0,0,1,.2.36A2.42,2.42,0,0,1,319.27,724.5Z"/><path class="cls-5" d="M124.85,900.6a.82.82,0,0,1-.06-.43A1.12,1.12,0,0,0,124.85,900.6Z"/><path class="cls-5" d="M125.52,901.57a3.38,3.38,0,0,1-.26-.27l-.11-.15.12.15A3.32,3.32,0,0,0,125.52,901.57Z"/><path class="cls-5" d="M131.82,900.07a2.44,2.44,0,0,1-.56.41A4.75,4.75,0,0,0,131.82,900.07Z"/><path class="cls-5" d="M132,899.94h0a.53.53,0,0,1-.14.12A.86.86,0,0,0,132,899.94Z"/><path class="cls-5" d="M132.07,892.75q-2.74,2.73-5.47,5.48h0Z"/><path class="cls-5" d="M140.5,891.82c-1.68,1.49-3.35,3-5,4.54C137.15,894.8,138.82,893.3,140.5,891.82Z"/><path class="cls-5" d="M266.2,773.26l-7.68,7.31-2,1.88c.65-.64,1.31-1.27,2-1.89Z"/><path class="cls-5" d="M289.57,751.68q-4,3.5-7.89,7.07Q285.58,755.17,289.57,751.68Z"/><path class="cls-5" d="M318.37,725.79a3.75,3.75,0,0,1-.35.33l-1.74,1.51,1.74-1.52Z"/><path class="cls-1" d="M42.74,975.73a0,0,0,0,0,0,0l0,0h0Z"/><path class="cls-1" d="M113.65,906.85a2.32,2.32,0,0,1-.6,1.45,53.86,53.86,0,0,1-5,5.47l-7.39,6.94-7.42,6.93-7.41,6.92q-3.7,3.45-7.4,6.94c-2,1.85-3.93,3.71-5.88,5.58q-2.1,2-4.19,4c-.77.73-1.53,1.47-2.3,2.22q-2.59,2.5-5.17,5c-.39.39-.79.77-1.19,1.14l-1.2,1.13L55.87,963c-.89.8-1.77,1.61-2.63,2.43-.28.25-.55.51-.82.78s-.79.76-1.18,1.16-.55.55-.81.83c-.43.44-.85.89-1.25,1.35-.27.3-.53.59-.78.9s-.42.49-.62.75-.3.37-.44.56c-.48.62-1,1.26-1.39,1.92a5.41,5.41,0,0,1-.67.83c-.1.11-.21.21-.32.31a3.07,3.07,0,0,1-.35.28,3,3,0,0,1-.43.25l-.43.17a1.72,1.72,0,0,1-.39.1,2,2,0,0,1-.35.05l-.27,0h0a5.54,5.54,0,0,1,.17-.58c0-.13.08-.26.13-.38a1.34,1.34,0,0,1,.07-.18c.07-.18.15-.36.23-.54s.17-.35.26-.52a4.63,4.63,0,0,1,.24-.43c.08-.14.17-.28.26-.42s.31-.47.47-.69c.42-.56.87-1.1,1.34-1.62s1-1,1.43-1.53q5-5.31,10.1-10.59c6.74-7,13.49-14.09,20.18-21.18q5-5.32,10-10.69l2.64-2.83c1.76-1.88,3.54-3.75,5.32-5.6q2.34-2.43,4.7-4.85c2.92-3,5.87-6,8.83-8.94.56-.56,1-.88,1.46-.88l.19,0a.7.7,0,0,1,.19.06,1.46,1.46,0,0,1,.41.24l.17.14a4.3,4.3,0,0,1,.37.37l.15.17.16.16c.11.13.23.25.34.37l.26.29.14.16.23.3a4,4,0,0,1,.24.38,1.59,1.59,0,0,1,.12.27,1.07,1.07,0,0,1,.09.27s0,0,0,.08A1.53,1.53,0,0,1,113.65,906.85Z"/><path class="cls-5" d="M367,678.23a1.87,1.87,0,0,1-.38.8l-.07.08a1.57,1.57,0,0,1-1,.45,4.12,4.12,0,0,1-.92,0l-.32,0-1-.21-.62-.14c-.59-.12-1.6-.21-1.82.11-.34.5-.7,1-1.07,1.44-.18.23-.37.45-.56.67s-.38.44-.58.66-.53.57-.8.85-.55.55-.83.81l-.85.78h0q-.72.64-1.47,1.26l-1.51,1.21a0,0,0,0,1,0,0l-.92.71-.93.71-1.87,1.42q-1.25.94-2.46,1.92c-.8.66-1.59,1.34-2.36,2s-1.5,1.45-2.2,2.23-1.48,1.63-2.23,2.43c-1.51,1.59-3.06,3.14-4.64,4.68-4,3.83-8.07,7.53-12.05,11.36-.49.47-.91,1-1.4,1.55l-.43.4-.24.18a2.94,2.94,0,0,1-.52.3l-.29.11-.24.07-.15,0a2.91,2.91,0,0,1-.6.06h-.09a.69.69,0,0,1,0-.2,2.4,2.4,0,0,1,.17-1.18,1.15,1.15,0,0,1,.12-.25.41.41,0,0,1,0-.09l.16-.23a1.41,1.41,0,0,1,.14-.18l.16-.17.17-.17a4.32,4.32,0,0,1,.39-.34c.44-.36.91-.68,1.29-1.05,8.71-8.41,17.49-16.76,26.19-25.18,1-1,1.77-1.72,2.38-2.38q.3-.33.54-.63a3.36,3.36,0,0,0,1-2.11c0-.1,0-.2,0-.3a2,2,0,0,0-.05-.24,1.38,1.38,0,0,0-.08-.27,1.17,1.17,0,0,0-.09-.24,3,3,0,0,0-.25-.51,6,6,0,0,0-.34-.56c-.27-.41-.61-.86-1-1.38l-.31-.4-1.1-1.34h0l.25-.13.16-.08a2.23,2.23,0,0,1,.43-.16l.18-.06A8.21,8.21,0,0,1,352,677c.47,0,.95,0,1.43,0,.32,0,.64,0,.95,0l.47,0c.31,0,.62,0,.92-.09a1.47,1.47,0,0,0,.29-.05,3.61,3.61,0,0,0,.65-.15,3,3,0,0,0,.42-.15,3.49,3.49,0,0,0,1.11-.69,3.14,3.14,0,0,0,.31-.32,2.81,2.81,0,0,0,.38-.55,1.59,1.59,0,0,0,.13-.22l.12-.25a1.42,1.42,0,0,0,.08-.18,3.62,3.62,0,0,0,.13-.35,7.4,7.4,0,0,0,.27-1.08h0l0-.06c.71.21,1.45.37,2.17.56a11.19,11.19,0,0,1,2.08.75,10,10,0,0,1,1.12.67l.53.41a5.11,5.11,0,0,1,.48.45,4.54,4.54,0,0,1,.41.48,4,4,0,0,1,.35.59l.12.31a2.81,2.81,0,0,1,.08.31.76.76,0,0,1,0,.21A2.14,2.14,0,0,1,367,678.23Z"/><path class="cls-1" d="M364.83,696.75h0l-1,.47-.95.53a21.25,21.25,0,0,0-2.6,1.88c-.54.46-1.06.94-1.57,1.44-1.35,1.3-2.6,2.71-3.89,4.06-.43.45-.86.89-1.3,1.33s-1,1-1.56,1.46-1.19,1-1.78,1.58c-.42.36-.83.73-1.24,1.11l-1.35,1.23c-.38.34-.77.7-1.15,1.06-3.32,3.08-6.58,6.24-9.86,9.36-1.17,1.13-2.35,2.24-3.53,3.35l-.28.26c-.46.44-.91.9-1.39,1.31l-.52.41-.22.16a4.66,4.66,0,0,1-.47.3,4.59,4.59,0,0,1-.5.24,3.54,3.54,0,0,1-1.08.31l-.3,0a2.77,2.77,0,0,1-.5,0h0l4.47-4.66,4.48-4.68q4.47-4.66,9-9.31h0q.5-.53,1-1l1.43-1.38c1.44-1.36,2.92-2.68,4.38-4,.49-.44,1-.89,1.46-1.35,1.44-1.36,2.85-2.76,4.16-4.24.63-.71,1.24-1.45,1.82-2.22s1.14-1.57,1.66-2.4C364.81,692.52,365.84,693.68,364.83,696.75Z"/><path class="cls-1" d="M361.35,691.74c-.32.12-.63.26-.92.4l0,0c-.26.12-.51.26-.76.4l-.25.15c-.23.14-.46.28-.68.44a15,15,0,0,0-1.35,1c-.16.14-.32.27-.47.42-.37.32-.73.67-1.08,1l-.37.38c-.29.29-.57.6-.84.91l-.81.91c-1.08,1.23-2.15,2.47-3.32,3.59l-.72.66c-1.08.94-2.15,1.9-3.21,2.86-4.24,3.87-8.33,7.89-12.52,11.8q-1.57,1.47-3.17,2.91c-2.13,1.92-4.3,3.8-6.54,5.59l-.18-.17a1.9,1.9,0,0,1-.25-.35.88.88,0,0,1-.09-.2.49.49,0,0,1-.06-.17.78.78,0,0,1,0-.21,1.1,1.1,0,0,1,0-.18,2.8,2.8,0,0,1,0-.41,1.23,1.23,0,0,1,0-.27,1197259389064.73,1197259389064.73,0,0,1,0-.54,2,2,0,0,0,0-.54,1.08,1.08,0,0,0-.07-.31h0c3.54-3.2,7.15-6.29,10.57-9.6,8-7.79,16.54-15.11,24-23.5l3.42,0C362.56,689.85,362.3,690.83,361.35,691.74Z"/><path class="cls-1" d="M342.8,672.78l-.5.2-.43.19a10.75,10.75,0,0,0-1.61.94q-.33.23-.66.48c-.19.14-.38.3-.57.46s-.55.47-.82.72c-.45.41-.89.83-1.33,1.26l-.75.73-12.54,12q-6.27,6-12.55,12c-1,1-2,2.39-4.33,1.33h0c.34-.47.68-.93,1.05-1.38l.54-.67c.17-.23.36-.45.55-.66.37-.43.75-.86,1.14-1.28s.77-.83,1.17-1.23l.8-.8q.89-.89,1.8-1.74c1.23-1.17,2.48-2.32,3.7-3.48q.92-.85,1.8-1.74l1.42-1.4,1.42-1.38,2.87-2.75,1.92-1.82c3.32-3.15,6.65-6.27,9.92-9.46.33-.33.66-.64,1-.93l.35-.28c.13-.1.26-.21.4-.3a3.32,3.32,0,0,1,.41-.28l.25-.15.38-.2.44-.2c.22-.09.45-.16.68-.23l.36-.08a6.06,6.06,0,0,1,.76-.1C343,671,342.84,671.89,342.8,672.78Z"/><path class="cls-1" d="M345.49,676.06a1.59,1.59,0,0,1-.16.41,2.14,2.14,0,0,1-.28.39,3.33,3.33,0,0,1-.25.28l-.27.27q-15.57,15-31.19,29.87a8.5,8.5,0,0,1-2.44,1.08h0a3.24,3.24,0,0,1,.62-2.93s0,0,0,0l.17-.19.17-.17a.94.94,0,0,1,.18-.17l.17-.17.23-.21.29-.26.17-.16,5.47-5.27c.58-.57,1.15-1.13,1.73-1.66q5.11-4.95,10.25-9.87l.81-.78q3.66-3.53,7.34-7l3.75-3.58.1-.1c.22-.24.44-.57.69-.84l.11-.11a.31.31,0,0,1,.1-.1l.11-.1a1.28,1.28,0,0,1,.25-.15l.17-.07a.85.85,0,0,1,.23,0,1.53,1.53,0,0,1,1,.5A1.23,1.23,0,0,1,345.49,676.06Z"/><path class="cls-5" d="M358.22,688.79c-7.45,8.39-16,15.71-24,23.5-3.42,3.31-7,6.4-10.57,9.6h0a3.46,3.46,0,0,1,.05-1.41.48.48,0,0,1,.06-.18.64.64,0,0,1,.06-.18,3.24,3.24,0,0,1,.36-.69,4.61,4.61,0,0,1,.28-.38l.21-.24.37-.37c9.83-9.37,19.58-18.82,29.36-28.23l.46-.45.31-.29a3.12,3.12,0,0,1,1.75-.94A2.48,2.48,0,0,1,358.22,688.79Z"/><polygon class="cls-1" points="315.68 670.78 315.65 670.81 315.65 670.78 315.68 670.78"/><path class="cls-1" d="M319.57,659.82c-.16.23-.32.45-.49.67.17-.22.34-.44.5-.67a5.3,5.3,0,0,1,.34-.45A5.37,5.37,0,0,0,319.57,659.82Zm.08,8h0l.05-.11-.09.08Zm-6.36,1.43a5.94,5.94,0,0,1-.36-.91A4.42,4.42,0,0,0,313.29,669.24Zm-.66-2.07c-.05-.21-.1-.41-.16-.59a.7.7,0,0,1,.16-.69.7.7,0,0,0-.17.7c.13.4.23.9.37,1.41a1.16,1.16,0,0,0,0-.18C312.73,667.59,312.68,667.38,312.63,667.17Z"/><path class="cls-1" d="M305.61,689.6l0,0h0Z"/><path class="cls-1" d="M333.6,663.06c-3.36,3.46-6.72,6.92-10.15,10.33l-2.14,2.11-2.16,2.1L317,679.67q-1.65,1.55-3.32,3.06L312,684.24c-.56.5-1.13,1-1.7,1.48-.76.66-1.52,1.31-2.29,1.95l-2.34,1.91,13.22-13.93,13.27-14Z"/><path class="cls-5" d="M346.14,667.11a2.16,2.16,0,0,1,0,.35,3,3,0,0,1-.09.38c0,.09-.06.18-.1.27a1.69,1.69,0,0,1-.12.28c0,.1-.09.2-.14.3s-.17.31-.27.47-.21.34-.33.52-.16.24-.25.37c-.19.29-.41.59-.65.91l-.41.56-.95,1.26c0-.89.16-1.81-1-2.18h0c-.21-.43-.41-.86-.6-1.3-.6-1.31-1.18-2.64-1.85-3.9-.15-.27-.3-.54-.46-.8a14.49,14.49,0,0,0-1.12-1.65,4.72,4.72,0,0,0-.41-.5.1.1,0,0,0,0-.05,5.11,5.11,0,0,0-.45-.48,7.83,7.83,0,0,0-.9-.83,1.71,1.71,0,0,0-.26-.21c-.2-.16-.41-.31-.63-.46s-.49-.31-.75-.45c-1.44-.79-1.79-2.32-1.61-3.89a1.06,1.06,0,0,1,0-.19l.06-.17a.95.95,0,0,1,.14-.24l.16-.16.21-.13h0a1.5,1.5,0,0,1,.44-.12h.36a2.43,2.43,0,0,1,.57.09l.29.1.17.09.2.12a3.26,3.26,0,0,1,.33.31l.14.18a4.11,4.11,0,0,1,.45.83c.13.3.23.63.35,1,.05.14.1.29.16.42a8.49,8.49,0,0,0,.39.8l.23.37a6.82,6.82,0,0,0,.51.69q.27.33.57.63a9.65,9.65,0,0,0,1.13,1,7.17,7.17,0,0,0,.79.57c.27.19.55.37.83.54l1.16.7c.53.33,1,.63,1.43.91s.53.37.75.54.32.26.46.38l.2.19.18.18a3,3,0,0,1,.45.63,1,1,0,0,1,.09.21.16.16,0,0,1,0,.09l0,.09a1.18,1.18,0,0,1,0,.2A2.11,2.11,0,0,1,346.14,667.11Z"/><path class="cls-5" d="M375.51,699a1.44,1.44,0,0,1-.41.41c-.46.27-1,0-1.46-.23l-.22-.1-.21-.08-.23-.08a6.1,6.1,0,0,1-.82-.28,8.08,8.08,0,0,1-.8-.35l-.53-.26-1.05-.54-.54-.26-.53-.23-.54-.2c-.19-.06-.37-.11-.56-.15a3.66,3.66,0,0,0-.56-.1l-.23,0a3.64,3.64,0,0,0-.66,0H366l-.27,0a3.73,3.73,0,0,0-.46.09l-.42.14h0c1-3.07,0-4.23-3.19-3.39-.09-.54-.19-1.08-.29-1.62.95-.91,1.21-1.89.29-3h0a.14.14,0,0,0,.08-.09,1.07,1.07,0,0,0,.17-.39,5.91,5.91,0,0,1,.21-.83.71.71,0,0,1,.11-.17l.06,0,.06,0a.41.41,0,0,1,.16,0,1.13,1.13,0,0,1,.47.15c.39.21.78.42,1.16.64a1,1,0,0,1,.17.1l.6.35.05,0a1.64,1.64,0,0,1,.22.14.55.55,0,0,1,.17.11.16.16,0,0,1,.1.05c.28.16.56.34.83.52.54.34,1.06.69,1.58,1.06s.92.68,1.37,1l.2.16.66.54a4.36,4.36,0,0,1,.4.35l.78.69.46.43c.16.14.31.29.46.45l.22.22.23.23.44.46c.3.32.59.64.86,1,.15.16.29.33.42.5s.28.33.41.5C375.25,697.46,376.06,698.15,375.51,699Z"/><path class="cls-5" d="M367.83,707.81a12,12,0,0,1-.58,1.52,3.42,3.42,0,0,1-.21.43,3,3,0,0,1-.21.4c-.07.13-.14.26-.22.38s0,0,0,.05a2,2,0,0,1-.2.34.05.05,0,0,1,0,0l-.21.31a15.15,15.15,0,0,1-1.19,1.55l-.54.58c-.22.24-.45.47-.68.69s-.46.45-.7.66-.47.43-.71.64l-.82.72-1.33,1.13-.49.42-.81.72c-.75.68-1.47,2.24-2.32,3l-.21.16-.17.11-.17.07a.19.19,0,0,1-.1,0l-.1,0a1,1,0,0,1-.61-.1,1.2,1.2,0,0,1-.17-.11,1.25,1.25,0,0,1-.19-.15.63.63,0,0,1-.13-.11,1.16,1.16,0,0,1-.18-.22.89.89,0,0,1-.18-.82,1.91,1.91,0,0,1,.58-.85l.48-.39h0l.55-.39h0l.58-.38.28-.19c.19-.13.37-.26.53-.39a4.18,4.18,0,0,0,.43-.39h0q.58-.63,1.2-1.23l.94-.94,1-.92,1.39-1.3c1-.92,2-1.82,3-2.73S367,708.59,367.83,707.81Z"/><path class="cls-1" d="M315.68,670.78v0h0Z"/><path class="cls-1" d="M316.66,673.16l-.32.05a.47.47,0,0,1-.21,0,.7.7,0,0,0,.21,0Z"/><path class="cls-1" d="M310.41,679a.25.25,0,0,1,0,.12,2.43,2.43,0,0,1-1,1.48l-.27.22-.28.23-.24.21a5.85,5.85,0,0,0-.52.49h0a6,6,0,0,1-.2-1,3.09,3.09,0,0,1,0-1.23,1.23,1.23,0,0,1,.11-.34,1.51,1.51,0,0,1,.11-.22,2,2,0,0,1,.17-.23,1.86,1.86,0,0,1,.26-.23,2.23,2.23,0,0,1,.59-.32l.15-.06h0l.27-.08a.58.58,0,0,1,.31,0l.09,0,.08,0c.17.07.31.18.32.26A2.08,2.08,0,0,1,310.41,679Z"/><path class="cls-1" d="M311.74,671.86c0,.17,0,.33,0,.49a3.5,3.5,0,0,1-.15.69l-.06.17a1.71,1.71,0,0,1-.14.27,1.39,1.39,0,0,1-.23.31,2.16,2.16,0,0,1-.27.25,1.67,1.67,0,0,1-.56.3l-.36.11-.23,0a.64.64,0,0,1-.2,0,.49.49,0,0,1-.18-.08.51.51,0,0,1-.23-.29.87.87,0,0,1,0-.46,2.91,2.91,0,0,1,.13-.47,2.38,2.38,0,0,1,.2-.39,2.35,2.35,0,0,1,.19-.25l.07-.07.19-.16a.66.66,0,0,1,.17-.12l.21-.11a2.74,2.74,0,0,1,.4-.15l.47-.11a4,4,0,0,1,.5-.06Z"/><path class="cls-1" d="M42.69,975.77a1.48,1.48,0,0,0,0,.21,1.88,1.88,0,0,1-.2.83.33.33,0,0,1-.1.14s0,0-.08.08l-.06,0a.24.24,0,0,1-.11.06l-.08,0-.24.07h-.09a1,1,0,0,1-.18-.11l-.09-.08c-.13-.12-.22-.25-.21-.33a1,1,0,0,1,.07-.28.72.72,0,0,1,.12-.21,1,1,0,0,1,.58-.34l.48-.08Z"/><path class="cls-1" d="M42.73,975.76h0v0h0Z"/><polygon class="cls-1" points="312.31 676.41 312.31 676.42 312.03 676.38 312.04 676.37 312.21 676.12 312.31 676.41"/><path class="cls-1" d="M312.2,671.31c-.16.18-.31.36-.46.55l-.13-.13Z"/><path class="cls-5" d="M698.77,352c.09,4.28-5.55,11.26-8.61,11.71-2,.3-2.24-1-1.9-2.47.4-1.76,2.27-2.38,3.13-3.76s4.14-1.64,3-3.84a17,17,0,0,0-5.45-6.31c-1.78-1.19-2.65,1.84-4.19,2.63s-2.64,3.37-4.47,1.26c-1.35-1.57.22-3.47,1.54-4.16,6-3.11,3.07-6.28.49-9.75-.94-1.25-3.5-2.79-1.49-4.44s4.48-.9,5.88,1.56c1.18,2.06,3.67,3.54,3,6.45-.42,1.83,1.16,1.44,2,2C695.4,345.36,697.32,349.12,698.77,352Z"/><path class="cls-5" d="M735.86,318.07c0,5.35-6.94,12-11.87,11.31-2.28-.32-8.51-6.65-8.49-8.77,0-2.53,1.84-2.61,3.46-1.92,1.13.49,1.83,1.88,2.88,2.65,1.58,1.15,1.75,4.57,3.79,4a10.68,10.68,0,0,0,5.54-4.7c1.53-2.69-1.68-4.05-3.08-5.71-1.06-1.28-3.42-1.56-2.56-4a3.59,3.59,0,0,1,2.93-2.38c1.94-.31,3,1.3,3.82,2.68C733.6,313.37,735.9,315.14,735.86,318.07Z"/><path class="cls-5" d="M748.57,301.16c-.2,1.12-1,1.62-2,2s-2.36.89-1.63,2.44a3.21,3.21,0,0,0,1.6,1.71c1.31.37,1.46-.95,1.87-1.79.57-1.16,1.57-2.05,2.73-1.28s.66,2.08.29,3.2c-1.18,3.49-4.52,4.78-7.33,2.51-1.67-1.35-3-2.3-5.14-1.21a1.72,1.72,0,0,1-2.19-.71,2.2,2.2,0,0,1,.27-2.77,94.81,94.81,0,0,1,8.88-5.55A1.79,1.79,0,0,1,748.57,301.16Z"/><path class="cls-5" d="M679.76,334.24a2.92,2.92,0,0,1-.32.67l-.17.26c-.29.4-.62.77-.89,1.09a10.36,10.36,0,0,1-.91,1c-.15.16-.32.31-.48.46a14.89,14.89,0,0,1-2.81,1.94,5.64,5.64,0,0,1-2.42.82.88.88,0,0,1-.29,0,.27.27,0,0,1-.12,0l-.1,0a.53.53,0,0,1-.15-.08.31.31,0,0,1-.09-.07l-.08-.07a.24.24,0,0,1-.08-.09,1.77,1.77,0,0,1-.32-.8,5.31,5.31,0,0,1-.06-.83,13.79,13.79,0,0,1,.1-1.49s0-.07,0-.1h.07c1.15-.14,2-.59,1.92-1.93v-.06h.13l.56-.07a7.65,7.65,0,0,0,.83-.18.7.7,0,0,0,.19-.06,2.13,2.13,0,0,0,.35-.14,1.11,1.11,0,0,0,.19-.09l.25-.16a2.53,2.53,0,0,0,.59-.55,3.76,3.76,0,0,1,1.74-1.28,2,2,0,0,1,1.22,0,2.92,2.92,0,0,1,.36.17l.19.12c.11.1.22.2.33.32a1.45,1.45,0,0,1,.27.41A1.41,1.41,0,0,1,679.76,334.24Z"/><path class="cls-4" d="M315.68,670.78v0h0v0Z"/><polygon class="cls-4" points="319.69 667.81 319.65 667.81 319.65 667.78 319.69 667.81"/><path class="cls-1" d="M330.51,659.41a1.59,1.59,0,0,0-.07-.2,1,1,0,0,0-.09-.21c0-.09-.09-.18-.14-.27s-.18-.31-.26-.48a3.72,3.72,0,0,1-.31-.67,4.13,4.13,0,0,0-.36-.82,2.66,2.66,0,0,0-.47-.6,1.65,1.65,0,0,0-2.11-.21c-.17.1-.34.2-.51.28a5.89,5.89,0,0,1-.63.29c-.89.38-1.83.63-2.74,1l-.64.26c-.22.1-.43.2-.63.31a3.78,3.78,0,0,0-.43.26,3.19,3.19,0,0,0-.42.3,4.23,4.23,0,0,0-.4.34,4.83,4.83,0,0,0-.38.4,5.3,5.3,0,0,0-.34.45c-.16.23-.33.45-.5.67-.46.57-1,1.11-1.41,1.68a6.26,6.26,0,0,0-.45.57c-.17.22-.32.46-.47.69a7.31,7.31,0,0,0-.4.79,3.62,3.62,0,0,0-.13.35c0,.1-.07.22-.11.33s-.08.33-.11.51h0l-.31-.11a3.57,3.57,0,0,0-.57-.1,3.15,3.15,0,0,0-.44,0l-.39,0-.43.07-.2.05-.19,0-.18.07a1.91,1.91,0,0,0-.32.16,1.55,1.55,0,0,0-.24.19l-.1.1a.7.7,0,0,0-.16.69c.06.18.11.38.16.59s.1.42.16.65a1.16,1.16,0,0,1,0,.18c0,.11.06.22.1.33a5.94,5.94,0,0,0,.36.91.09.09,0,0,0,0,.07,1.62,1.62,0,0,0,.1.18,1.87,1.87,0,0,0,.2.29,1.27,1.27,0,0,0,.22.25,2.91,2.91,0,0,0,.27.24,2.52,2.52,0,0,0,.77.38l.33.08.44,0h0v0c.06.47,0,1.14,0,1.66a.88.88,0,0,0,0,.24.83.83,0,0,0,0,.15.31.31,0,0,0,.05.1.36.36,0,0,0,.12.15.21.21,0,0,0,.1.06l.09,0a.7.7,0,0,0,.21,0l.32,0a3.78,3.78,0,0,0,.6-.17,4.68,4.68,0,0,0,.55-.27,1.94,1.94,0,0,0,.29-.21,2.93,2.93,0,0,0,.42-.37,2,2,0,0,0,.23-.27,3.09,3.09,0,0,0,.26-.37c.08-.14.16-.27.23-.41l.09-.2c.06-.14.11-.28.16-.42s.07-.22.1-.33.06-.23.08-.35c4.13-1.94,6.75-5.66,10.08-8.55a3,3,0,0,0,.31-.3,2.09,2.09,0,0,0,.14-.17.67.67,0,0,0,.11-.14,1.82,1.82,0,0,0,.15-.27.78.78,0,0,0,.05-.14,1.12,1.12,0,0,0,.06-.23A1.42,1.42,0,0,0,330.51,659.41Zm-10.77,8.29-.05.11h0v0l.09-.08h0l1.22-1.13Z"/><path class="cls-4" d="M319.74,667.7l-.05.11,0,0Z"/></svg>
